<?xml version="1.0" encoding="utf-8"?>
<!-- Generator: Adobe Illustrator 16.0.3, SVG Export Plug-In . SVG Version: 6.00 Build 0)  -->
<!DOCTYPE svg PUBLIC "-//W3C//DTD SVG 1.1//EN" "http://www.w3.org/Graphics/SVG/1.1/DTD/svg11.dtd">
<svg version="1.1" id="Layer_1" xmlns="http://www.w3.org/2000/svg" xmlns:xlink="http://www.w3.org/1999/xlink" x="0px" y="0px"
	 width="41px" height="34px" viewBox="0 0 41 34" enable-background="new 0 0 41 34" xml:space="preserve">
<g>
	<g>
		<g>
			<g>
				<g>
					<path fill="#E5E5E5" d="M36.277,24.633c0,0.557-0.452,1.01-1.01,1.01H2.058c-0.555,0-1.009-0.453-1.009-1.01V1.747
						c0-0.555,0.455-1.009,1.009-1.009h33.209c0.558,0,1.01,0.454,1.01,1.009V24.633z"/>
				</g>
				<g>
					<path d="M35.27,26.4H2.058c-0.974,0-1.766-0.793-1.766-1.769V1.746c0-0.974,0.792-1.766,1.766-1.766h33.209
						c0.976,0,1.769,0.792,1.769,1.766v22.887C37.036,25.607,36.243,26.4,35.27,26.4z M2.058,1.494
						c-0.137,0-0.252,0.115-0.252,0.252v22.887c0,0.137,0.116,0.252,0.252,0.252h33.209c0.14,0,0.254-0.115,0.254-0.252V1.746
						c0-0.137-0.114-0.252-0.254-0.252H2.058z"/>
				</g>
			</g>
			<g>
				<g>
					<path fill="#FFFFFF" d="M36.277,1.747c0-0.555-0.452-1.009-1.01-1.009H2.058c-0.555,0-1.009,0.454-1.009,1.009V4.99
						c0,0.555,0.455,1.009,1.009,1.009h33.209c0.558,0,1.01-0.454,1.01-1.009V1.747z"/>
				</g>
				<g>
					<path d="M35.27,6.756H2.058c-0.974,0-1.766-0.792-1.766-1.766V1.746c0-0.974,0.792-1.766,1.766-1.766h33.209
						c0.976,0,1.769,0.792,1.769,1.766V4.99C37.036,5.964,36.243,6.756,35.27,6.756z M2.058,1.494c-0.137,0-0.252,0.115-0.252,0.252
						V4.99c0,0.137,0.116,0.252,0.252,0.252h33.209c0.14,0,0.254-0.115,0.254-0.252V1.746c0-0.137-0.114-0.252-0.254-0.252H2.058z"
						/>
				</g>
			</g>
			<g>
				<path d="M12.962,19.207H5.208c-0.417,0-0.757-0.338-0.757-0.756s0.339-0.756,0.757-0.756h7.754c0.418,0,0.757,0.338,0.757,0.756
					S13.38,19.207,12.962,19.207z"/>
			</g>
			<g>
				<path d="M12.962,21.994H5.208c-0.417,0-0.757-0.338-0.757-0.756S4.79,20.48,5.208,20.48h7.754c0.418,0,0.757,0.34,0.757,0.758
					S13.38,21.994,12.962,21.994z"/>
			</g>
		</g>
	</g>
	<g>
		<g>
			<g>
				<circle fill="#01C5A7" cx="30.209" cy="21.984" r="10.083"/>
			</g>
			<g>
				<path fill="#FFFFFF" d="M30.523,17.31c0.283,0,0.357,0.037,0.443,0.418l1.395,6.525l1.517-6.686
					c0.088-0.333,0.147-0.333,0.444-0.247l0.789,0.247c0.283,0.088,0.32,0.16,0.234,0.494l-1.975,8.142
					c-0.098,0.432-0.135,0.491-0.566,0.491H32.09c-0.408,0-0.469-0.061-0.568-0.491l-1.319-5.638l-1.308,5.638
					c-0.1,0.432-0.16,0.491-0.565,0.491h-0.718c-0.432,0-0.469-0.061-0.565-0.491l-1.976-8.142
					c-0.086-0.332-0.049-0.406,0.234-0.494l0.791-0.247c0.295-0.086,0.357-0.086,0.443,0.247l1.518,6.686l1.394-6.525
					c0.086-0.381,0.159-0.418,0.444-0.418H30.523z"/>
				<path fill="#FFFFFF" d="M36.216,21.27c0.234,0.004,0.31,0.066,0.306,0.326l-0.015,0.764c-0.004,0.283-0.092,0.345-0.301,0.341
					l-12.019,0.002c-0.209-0.004-0.295-0.066-0.289-0.351l0.013-0.766c0.004-0.26,0.08-0.318,0.313-0.316H36.216z"/>
			</g>
		</g>
		<g>
			<g>
				<path fill="none" stroke="#000000" stroke-width="1.5" stroke-linecap="round" stroke-miterlimit="10" d="M32.932,31.826
					c-4.115,1.082-8.64-0.5-11.115-4.246c-2.842-4.297-2.009-9.958,1.744-13.275"/>
				<g>
					<path d="M31.714,33.592c-0.008-0.117,0.029-0.236,0.113-0.33l1.269-1.43l-1.435-1.264c-0.188-0.166-0.207-0.455-0.039-0.644
						c0.166-0.188,0.455-0.207,0.644-0.041l1.774,1.566c0.092,0.079,0.146,0.192,0.153,0.313l0,0
						c0.009,0.119-0.032,0.238-0.112,0.33l-1.572,1.771c-0.165,0.188-0.454,0.205-0.643,0.037
						C31.771,33.822,31.721,33.707,31.714,33.592z"/>
				</g>
			</g>
			<g>
				<path fill="none" stroke="#000000" stroke-width="1.5" stroke-linecap="round" stroke-miterlimit="10" d="M27.432,12.11
					c4.114-1.082,8.639,0.5,11.114,4.245c2.843,4.299,2.011,9.958-1.743,13.276"/>
				<g>
					<path d="M28.646,10.345c0.008,0.117-0.028,0.236-0.112,0.33l-1.269,1.429l1.435,1.263c0.188,0.167,0.207,0.456,0.038,0.644
						c-0.166,0.189-0.452,0.207-0.643,0.04l-1.775-1.565c-0.092-0.08-0.146-0.193-0.153-0.314l0,0
						c-0.008-0.121,0.033-0.24,0.112-0.331l1.572-1.771c0.166-0.189,0.455-0.206,0.644-0.039
						C28.591,10.114,28.643,10.228,28.646,10.345z"/>
				</g>
			</g>
		</g>
	</g>
</g>
</svg>
