<?xml version="1.0" encoding="utf-8"?>
<!-- Generator: Adobe Illustrator 16.0.3, SVG Export Plug-In . SVG Version: 6.00 Build 0)  -->
<!DOCTYPE svg PUBLIC "-//W3C//DTD SVG 1.1 Tiny//EN" "http://www.w3.org/Graphics/SVG/1.1/DTD/svg11-tiny.dtd">
<svg version="1.1" baseProfile="tiny" id="Layer_1" xmlns="http://www.w3.org/2000/svg" xmlns:xlink="http://www.w3.org/1999/xlink"
	 x="0px" y="0px" width="50px" height="36px" viewBox="0 0 50 36" xml:space="preserve">
<g>
	<g>
		<polyline fill="#FFFFFF" points="4.117,30.488 4.117,6.349 17.494,6.349 17.494,30.488 		"/>
		<g>
			
				<polyline fill="none" stroke="#232323" stroke-width="1.5" stroke-linecap="round" stroke-linejoin="round" stroke-miterlimit="10" points="
				4.563,30.438 4.563,6.349 17.494,6.349 			"/>
		</g>
		
			<line fill="none" stroke="#232323" stroke-width="1.5" stroke-linecap="round" stroke-linejoin="round" stroke-miterlimit="10" x1="8.988" y1="10.866" x2="8.988" y2="25.979"/>
		
			<line fill="none" stroke="#232323" stroke-width="1.5" stroke-linecap="round" stroke-linejoin="round" stroke-miterlimit="10" x1="13.385" y1="10.866" x2="13.385" y2="25.979"/>
		<g>
			
				<polyline fill="#E2E2E2" stroke="#232323" stroke-width="1.5" stroke-linecap="round" stroke-linejoin="round" stroke-miterlimit="10" points="
				17.939,30.438 17.939,1.009 36.97,1.009 36.97,30.438 			"/>
			
				<line fill="none" stroke="#232323" stroke-width="1.5" stroke-linecap="round" stroke-linejoin="round" stroke-miterlimit="10" x1="21.952" y1="6.359" x2="32.957" y2="6.359"/>
			
				<line fill="none" stroke="#232323" stroke-width="1.5" stroke-linecap="round" stroke-linejoin="round" stroke-miterlimit="10" x1="21.952" y1="11.71" x2="32.957" y2="11.71"/>
			
				<line fill="none" stroke="#232323" stroke-width="1.5" stroke-linecap="round" stroke-linejoin="round" stroke-miterlimit="10" x1="21.952" y1="17.062" x2="32.957" y2="17.062"/>
		</g>
		
			<line fill="none" stroke="#232323" stroke-width="1.5" stroke-linecap="round" stroke-linejoin="round" stroke-miterlimit="10" x1="1.888" y1="30.438" x2="39.646" y2="30.438"/>
	</g>
	<g>
		
			<circle fill="#06605D" stroke="#232323" stroke-width="1.5" stroke-linecap="round" stroke-linejoin="round" stroke-miterlimit="10" cx="37.386" cy="24.282" r="10.727"/>
	</g>
	<g>
		<path fill="#ED1C24" stroke="#333333" stroke-width="0.75" stroke-miterlimit="10" d="M40.402,24.855
			c0-1.812-1.481-3.294-3.294-3.294c-1.812,0-3.294,1.482-3.294,3.294v2.241h6.588V24.855z"/>
		<path fill="#FFFFFF" stroke="#333333" stroke-width="0.75" stroke-miterlimit="10" d="M41.135,28.924v-0.835
			c0-0.609-0.498-1.107-1.107-1.107h-5.813c-0.609,0-1.107,0.498-1.107,1.107v0.835H41.135z"/>
		<g>
			<path fill="#FFFFFF" d="M34.769,25.072c-0.11,0-0.201-0.09-0.201-0.202c0-1.387,1.128-2.514,2.515-2.514
				c0.111,0,0.201,0.09,0.201,0.201s-0.09,0.202-0.201,0.202c-1.165,0-2.111,0.946-2.111,2.11
				C34.971,24.982,34.881,25.072,34.769,25.072z"/>
			<path fill="#FFFFFF" d="M34.755,26.356c-0.111,0-0.201-0.09-0.201-0.201v-0.614c0-0.111,0.09-0.201,0.201-0.201
				c0.11,0,0.201,0.09,0.201,0.201v0.614C34.956,26.267,34.865,26.356,34.755,26.356z"/>
		</g>
		<g>
			<path fill="#FFD400" d="M30.152,25.011c0,0.196,0.16,0.356,0.356,0.356h1.029c0.196,0,0.356-0.16,0.356-0.356
				s-0.16-0.357-0.356-0.357h-1.029C30.313,24.653,30.152,24.814,30.152,25.011z"/>
			<path fill="#FFD400" d="M32.133,20.068c-0.139,0.138-0.139,0.365,0,0.504L32.86,21.3c0.14,0.14,0.366,0.14,0.505,0
				c0.139-0.139,0.139-0.365,0-0.505l-0.728-0.727C32.499,19.93,32.271,19.929,32.133,20.068z"/>
			<path fill="#FFD400" d="M37.028,17.974c-0.196,0-0.356,0.161-0.356,0.356v1.03c0,0.196,0.16,0.356,0.356,0.356
				s0.356-0.16,0.357-0.356v-1.029C37.385,18.135,37.225,17.974,37.028,17.974z"/>
			<path fill="#FFD400" d="M41.972,19.955c-0.14-0.14-0.366-0.139-0.505-0.001l-0.729,0.729c-0.138,0.139-0.138,0.365,0,0.505
				c0.139,0.139,0.366,0.139,0.505,0l0.729-0.728C42.109,20.321,42.109,20.094,41.972,19.955z"/>
			<path fill="#FFD400" d="M44.065,24.851c0-0.197-0.161-0.356-0.356-0.357H42.68c-0.196,0.001-0.357,0.161-0.357,0.357
				c0,0.195,0.161,0.356,0.357,0.356h1.028C43.904,25.207,44.065,25.047,44.065,24.851z"/>
		</g>
	</g>
</g>
</svg>
