<?xml version="1.0" encoding="utf-8"?>
<!-- Generator: Adobe Illustrator 16.0.3, SVG Export Plug-In . SVG Version: 6.00 Build 0)  -->
<!DOCTYPE svg PUBLIC "-//W3C//DTD SVG 1.1//EN" "http://www.w3.org/Graphics/SVG/1.1/DTD/svg11.dtd">
<svg version="1.1" id="Layer_1" xmlns="http://www.w3.org/2000/svg" xmlns:xlink="http://www.w3.org/1999/xlink" x="0px" y="0px"
	 width="100px" height="25px" viewBox="0 0 100 25" enable-background="new 0 0 100 25" xml:space="preserve">
<g>
	<path fill="#693C97" d="M13.935,11.706c-0.685,0-1.331,0.267-1.815,0.752c-0.772,0.772-1.8,1.198-2.895,1.198
		c-1.096,0-2.124-0.426-2.895-1.198c-0.805-0.805-1.266-1.859-1.266-2.896S5.524,7.471,6.33,6.666
		c0.773-0.773,1.801-1.199,2.895-1.199c1.093,0,2.121,0.426,2.895,1.199c0.484,0.484,1.129,0.752,1.815,0.752
		c0.687,0,1.331-0.268,1.816-0.752c1.001-1.001,1.001-2.63,0-3.632c-1.743-1.743-4.061-2.703-6.526-2.703s-4.784,0.96-6.527,2.703
		c-3.598,3.6-3.598,9.457,0,13.056c1.741,1.742,4.058,2.701,6.527,2.701c2.467,0,4.786-0.959,6.526-2.701
		c1.001-1,1.001-2.629,0-3.632C15.265,11.973,14.621,11.706,13.935,11.706z"/>
	<path fill="#693C97" d="M36.918,11.009c-0.113,0-0.206,0.093-0.206,0.206v1.723c0,0.113,0.093,0.206,0.206,0.206h0.716
		c0.113,0,0.206-0.093,0.206-0.206v-1.141v-0.582c0-0.113-0.093-0.206-0.206-0.206H36.918z"/>
	<polygon fill="none" points="46.706,19.994 50.017,18.357 50.059,7.213 46.794,8.364 	"/>
	<path fill="none" d="M32.766,15.912c-0.32,0.338-0.671,0.637-1.035,0.914l0.007,2.445l14.241,0.904L46.067,8.45L35.293,7.993v1.362
		C35.293,11.868,34.396,14.197,32.766,15.912z M39.553,11.369c0-0.113,0.093-0.205,0.206-0.205h0.019h0.697
		c0.113,0,0.205,0.092,0.205,0.205v0.582v1.142c0,0.114-0.092,0.206-0.205,0.206h-0.716c-0.113,0-0.206-0.092-0.206-0.206V11.369z"
		/>
	<path fill="none" d="M46.237,7.73c0.015,0,0.063,0.003,0.122,0.017l2.245-0.791l-5.296-0.195l0.272-0.522
		c0.44-0.84,0.57-1.518,0.575-1.546V4.69c0.179-0.97,0.149-1.757-0.087-2.338c-0.044-0.11-0.165-0.364-0.327-0.364
		c-0.064,0-0.21,0.031-0.453,0.245c-0.708,0.622-1.105,1.63-1.109,1.64c-0.368,0.927-0.472,1.796-0.493,2.362l-0.013,0.41
		l-0.366,0.013l-1.196-0.044l0.053-0.396c0.042-0.314,0.055-0.585,0.055-0.587c0.069-2.013-1.025-3.372-1.037-3.385
		c-0.291-0.326-0.517-0.442-0.63-0.442c-0.071,0-0.144,0.072-0.215,0.216c-0.411,0.821-0.371,1.939-0.371,1.951
		c0.023,0.868,0.217,1.606,0.375,2.074l0.168,0.498l-2.371-0.092l0,0c-0.027,0-0.071,0.007-0.087,0.011L35.293,6.68v0.587
		L46.237,7.73z M42.521,4.691c0.167-0.652,0.455-1.143,0.738-1.049c0,0,0.4,0.05-0.007,1.303c-0.142,0.436-0.4,1.058-0.674,1.02
		C42.267,5.921,42.356,5.344,42.521,4.691z M38.704,3.492c0.264-0.126,0.517,0.432,0.618,1.09s0.096,1.226-0.176,1.248
		c-0.272,0.022-0.505-0.618-0.567-1.067c-0.063-0.447-0.068-0.55-0.068-0.55S38.466,3.605,38.704,3.492z"/>
	<path fill="#693C97" d="M31.093,7.225c0.065-0.083,0.156-0.144,0.254-0.171l3.946-1.129v-2.5c0-1.416-1.152-2.568-2.566-2.568
		c-1.417,0-2.57,1.152-2.57,2.568v5.931c0,2.451-1.583,4.277-3.687,4.277c-2.102,0-3.688-1.826-3.688-4.277V3.425
		c0-1.439-1.097-2.568-2.499-2.568c-1.417,0-2.568,1.152-2.568,2.568v6.044c0,5.262,3.765,9.119,8.755,9.119
		c1.642,0,3.193-0.447,4.536-1.266l-0.024-9.786C30.981,7.424,31.021,7.313,31.093,7.225z"/>
	<path fill="#693C97" d="M50.335,6.294l-5.866-0.23c0.29-0.673,0.39-1.172,0.402-1.24c0.206-1.125,0.163-2.022-0.128-2.744
		c-0.361-0.89-1.143-1.085-1.933-0.392c-0.847,0.743-1.29,1.876-1.307,1.92c-0.348,0.874-0.48,1.702-0.526,2.312l-0.051-0.001
		c0.013-0.148,0.018-0.247,0.018-0.257c0.068-1.986-0.883-3.518-1.221-3.897c-0.405-0.455-0.801-0.686-1.172-0.686
		c-0.254,0-0.609,0.107-0.865,0.617c-0.496,0.992-0.448,2.253-0.446,2.3c0.018,0.688,0.134,1.304,0.263,1.787l-1.367-0.056
		c-0.091,0-0.203,0.015-0.284,0.038l-0.559,0.16V6.68l0.758-0.217c0.016-0.004,0.06-0.011,0.087-0.011l0,0l2.371,0.092l-0.168-0.498
		c-0.158-0.468-0.352-1.206-0.375-2.074c0-0.012-0.04-1.13,0.371-1.951c0.071-0.144,0.144-0.216,0.215-0.216
		c0.113,0,0.339,0.116,0.63,0.442c0.012,0.013,1.106,1.372,1.037,3.385c0,0.002-0.013,0.272-0.055,0.587l-0.053,0.396l1.196,0.044
		l0.366-0.013l0.013-0.41c0.021-0.566,0.125-1.436,0.493-2.362c0.004-0.01,0.401-1.018,1.109-1.64
		c0.243-0.214,0.389-0.245,0.453-0.245c0.162,0,0.283,0.254,0.327,0.364c0.236,0.581,0.266,1.368,0.087,2.338v0.002
		c-0.005,0.028-0.135,0.706-0.575,1.546l-0.272,0.522l5.296,0.195l-2.245,0.791c-0.059-0.014-0.107-0.017-0.122-0.017L35.293,7.267
		v0.727L46.067,8.45l-0.089,11.726l-14.241-0.904l-0.007-2.445c-0.233,0.18-0.476,0.344-0.725,0.496l0.006,2.189
		c0.001,0.246,0.194,0.453,0.443,0.471l14.804,0.939h0.038c0.114,0,0.245-0.029,0.341-0.076l3.811-1.891
		c0.173-0.086,0.294-0.281,0.294-0.473l0.044-11.718C50.787,6.511,50.59,6.304,50.335,6.294z M50.017,18.357l-3.311,1.637
		l0.088-11.63l3.265-1.151L50.017,18.357z"/>
	<path fill="#693C97" d="M31.708,7.841l3.585,0.152V7.267L33.509,7.19l1.784-0.511V5.925l-3.946,1.129
		c-0.098,0.027-0.188,0.088-0.254,0.171c-0.072,0.089-0.111,0.199-0.111,0.312l0.024,9.786c0.249-0.152,0.491-0.316,0.725-0.496
		L31.708,7.841z"/>
	<path fill="#693C97" d="M38.579,4.763c0.063,0.449,0.295,1.09,0.567,1.067c0.271-0.022,0.277-0.59,0.176-1.248
		s-0.354-1.216-0.618-1.09c-0.238,0.113-0.193,0.721-0.193,0.721S38.517,4.315,38.579,4.763z"/>
	<path fill="#693C97" d="M42.579,5.965c0.273,0.038,0.532-0.584,0.674-1.02c0.407-1.253,0.007-1.303,0.007-1.303
		c-0.283-0.094-0.571,0.396-0.738,1.049C42.356,5.344,42.267,5.921,42.579,5.965z"/>
	<path fill="#693C97" d="M39.759,13.299h0.716c0.113,0,0.205-0.092,0.205-0.206v-1.142v-0.582c0-0.113-0.092-0.205-0.205-0.205
		h-0.697h-0.019c-0.113,0-0.206,0.092-0.206,0.205v1.724C39.553,13.207,39.646,13.299,39.759,13.299z"/>
	<g>
		<path fill="#50B057" d="M75.704,6.42c-0.671-0.64-1.462-1.142-2.377-1.504c-0.915-0.361-1.905-0.541-2.974-0.532
			c-1.085,0.009-2.082,0.207-2.99,0.592c-0.911,0.387-1.699,0.91-2.364,1.568c-0.667,0.661-1.188,1.427-1.557,2.299
			c-0.374,0.871-0.553,1.809-0.546,2.805V11.7c0.008,0.999,0.205,1.933,0.591,2.798c0.384,0.867,0.912,1.619,1.579,2.262
			c0.671,0.639,1.462,1.141,2.377,1.502c0.915,0.363,1.907,0.541,2.975,0.531c1.083-0.008,2.082-0.205,2.989-0.592
			c0.91-0.385,1.699-0.908,2.364-1.568s1.185-1.426,1.557-2.295c0.372-0.873,0.554-1.81,0.546-2.811v-0.051
			c-0.01-0.999-0.205-1.931-0.592-2.797C76.898,7.815,76.37,7.062,75.704,6.42z M73.769,13.073c-0.16,0.458-0.395,0.86-0.7,1.204
			c-0.31,0.348-0.682,0.623-1.119,0.824c-0.437,0.201-0.938,0.305-1.506,0.311c-0.553,0.004-1.049-0.096-1.488-0.299
			c-0.442-0.205-0.827-0.48-1.157-0.83c-0.329-0.352-0.581-0.754-0.757-1.21c-0.178-0.452-0.266-0.939-0.271-1.455v-0.053
			c-0.004-0.517,0.073-1.002,0.235-1.462c0.16-0.455,0.393-0.857,0.699-1.205c0.309-0.346,0.68-0.62,1.118-0.821
			c0.436-0.2,0.938-0.305,1.508-0.31c0.531-0.006,1.024,0.096,1.474,0.297c0.448,0.204,0.839,0.48,1.168,0.831
			c0.33,0.351,0.583,0.753,0.758,1.207c0.178,0.455,0.267,0.94,0.27,1.457l0.003,0.053C74.003,12.127,73.927,12.615,73.769,13.073z"
			/>
		<path fill="#50B057" d="M82.708,7.851c0.263-0.174,0.65-0.262,1.171-0.262c0.536,0,1.159,0.113,1.864,0.338
			c0.41,0.131,0.941,0.354,1.458,0.592c0.012,0.006,0.027,0.013,0.04,0.02c0.271,0.187,0.597,0.298,0.95,0.298
			c0.925,0,1.675-0.75,1.675-1.675c0-0.633-0.354-1.176-0.872-1.461l0.01-0.02c-0.695-0.353-1.488-0.693-2.16-0.883
			c-0.975-0.276-1.936-0.412-2.882-0.412c-0.759,0-1.471,0.092-2.131,0.275c-0.657,0.183-1.231,0.458-1.725,0.824
			c-0.493,0.368-0.881,0.814-1.168,1.34c-0.29,0.525-0.432,1.407-0.432,2.09v0.051c0,0.65,0.134,1.201,0.401,1.653
			c0.271,0.448,0.617,0.828,1.047,1.139c0.425,0.309,0.903,0.559,1.433,0.75c0.528,0.192,1.053,0.356,1.572,0.49
			c0.407,0.116,0.797,0.225,1.169,0.324c0.37,0.1,0.699,0.205,0.987,0.313c0.289,0.107,0.516,0.238,0.683,0.389
			c0.169,0.15,0.251,0.324,0.251,0.525v0.049c0,0.301-0.145,0.545-0.429,0.727c-0.29,0.184-0.739,0.275-1.354,0.275
			c-0.704,0-1.463-0.133-2.269-0.4c-0.219-0.072-0.46-0.17-0.711-0.283c-0.252-0.115-0.514-0.246-0.774-0.385l-0.006,0.012
			c-0.191-0.076-0.399-0.121-0.619-0.121c-0.924,0-1.674,0.75-1.674,1.674c0,0.646,0.369,1.199,0.904,1.48l-0.001,0.002
			c0.013,0.006,0.026,0.012,0.039,0.018c0.04,0.02,0.079,0.039,0.121,0.057c0.232,0.115,0.466,0.229,0.703,0.326
			c0.307,0.125,0.617,0.234,0.933,0.328c1.104,0.324,2.187,0.488,3.242,0.488c0.8,0,1.546-0.088,2.241-0.264
			c0.697-0.176,1.304-0.438,1.822-0.789c0.521-0.35,0.925-0.795,1.212-1.338c0.287-0.541,0.432-1.455,0.432-2.205v-0.051
			c0-0.617-0.141-1.144-0.417-1.577c-0.278-0.433-0.632-0.801-1.059-1.103c-0.428-0.3-0.908-0.554-1.447-0.763
			c-0.538-0.21-1.066-0.388-1.587-0.539c-0.409-0.115-0.792-0.233-1.154-0.351C83.837,9.7,83.515,9.58,83.238,9.455
			C82.96,9.33,82.737,9.196,82.57,9.053c-0.168-0.141-0.25-0.303-0.25-0.487V8.514C82.32,8.25,82.449,8.027,82.708,7.851z"/>
		<path fill="#50B057" d="M100,16.217c0-0.898-0.729-1.625-1.626-1.625c-0.32,0-0.616,0.096-0.868,0.256l-0.004-0.006
			c-0.41,0.248-0.905,0.346-1.391,0.346c-0.84,0-1.147-0.26-1.147-1.148V8.167h3.141c0.013,0.001,0.024,0.004,0.037,0.004
			s0.024-0.003,0.037-0.004h0.071l0.004-0.007l0,0c0.869-0.059,1.559-0.775,1.559-1.659c0-0.885-0.689-1.601-1.559-1.659V4.83h-0.11
			c-0.001,0-0.001,0-0.002,0s-0.002,0-0.003,0h-3.175V2.627h-0.01c0.002-0.032,0.01-0.062,0.01-0.094
			c0-1.076-0.873-1.948-1.949-1.948s-1.949,0.872-1.949,1.948c0,0.032,0.008,0.062,0.01,0.094h-0.01V14.68
			c0,0.803,0.1,1.465,0.296,1.988c0.197,0.521,0.471,0.943,0.82,1.27c0.349,0.324,0.771,0.551,1.257,0.68
			c0.487,0.127,1.029,0.191,1.628,0.191c0.649,0,1.553-0.133,2.048-0.279c0.41-0.117,1.275-0.395,2.112-0.936
			C99.689,17.307,100,16.801,100,16.217z"/>
		<path fill="#50B057" d="M54.889,4.65H51.52h-1.385c-1.415,0.147-2.529,1.297-2.631,2.724v15.315h0.003
			c0.016,1.096,0.906,1.98,2.006,1.98c1.099,0,1.988-0.885,2.005-1.98h0.002v-0.023c0-0.002,0.001-0.004,0.001-0.006
			s-0.001-0.002-0.001-0.004v-4.184h3.369c3.87,0,7.007-1.584,7.007-7.018c0-2.439-0.622-3.742-1.654-4.87
			C58.956,5.179,57.035,4.65,54.889,4.65z M55.344,14.551H51.52V9.468c0.094-0.568,0.575-1.004,1.164-1.026h2.66
			c1.382,0,2.497,1.401,2.497,3.027C57.841,13.102,56.726,14.551,55.344,14.551z"/>
	</g>
</g>
</svg>
