<?xml version="1.0" encoding="utf-8"?>
<!-- Generator: Adobe Illustrator 16.0.3, SVG Export Plug-In . SVG Version: 6.00 Build 0)  -->
<!DOCTYPE svg PUBLIC "-//W3C//DTD SVG 1.1//EN" "http://www.w3.org/Graphics/SVG/1.1/DTD/svg11.dtd">
<svg version="1.1" id="Layer_1" xmlns="http://www.w3.org/2000/svg" xmlns:xlink="http://www.w3.org/1999/xlink" x="0px" y="0px"
	 width="90px" height="30px" viewBox="0 0 90 30" enable-background="new 0 0 90 30" xml:space="preserve">
<g>
	<g>
		<linearGradient id="SVGID_1_" gradientUnits="userSpaceOnUse" x1="84.6465" y1="10.248" x2="84.6465" y2="26.5819">
			<stop  offset="0" style="stop-color:#C3E072"/>
			<stop  offset="1" style="stop-color:#28DBB0"/>
		</linearGradient>
		<path fill="url(#SVGID_1_)" d="M85.972,29.416h-2.65V10.674h2.65V29.416z"/>
		<path opacity="0.8" fill="#28DBB0" d="M77.34,4.29c0,1.047-0.36,1.931-1.077,2.648c-0.717,0.719-1.603,1.077-2.648,1.077
			c-1.035,0-1.911-0.361-2.629-1.087c-0.719-0.725-1.078-1.604-1.078-2.639c0-1.034,0.359-1.911,1.078-2.628
			c0.718-0.719,1.594-1.078,2.629-1.078c1.034,0,1.913,0.359,2.637,1.078C76.978,2.379,77.34,3.256,77.34,4.29z"/>
		<path opacity="0.26" fill="#C3E072" d="M66.063,4.29c0,1.047-0.361,1.931-1.078,2.648c-0.717,0.719-1.602,1.077-2.648,1.077
			c-1.035,0-1.91-0.361-2.629-1.087C58.989,6.204,58.63,5.325,58.63,4.29c0-1.034,0.359-1.911,1.078-2.628
			c0.719-0.719,1.594-1.078,2.629-1.078s1.913,0.359,2.637,1.078C65.7,2.379,66.063,3.256,66.063,4.29z"/>
		<path opacity="0.26" fill="#D6DDBF" d="M54.934,4.29c0,1.047-0.36,1.931-1.077,2.648c-0.719,0.719-1.604,1.077-2.649,1.077
			c-1.034,0-1.911-0.361-2.629-1.087c-0.719-0.725-1.077-1.604-1.077-2.639c0-1.034,0.358-1.911,1.077-2.628
			c0.718-0.719,1.595-1.078,2.629-1.078s1.913,0.359,2.637,1.078C54.57,2.379,54.934,3.256,54.934,4.29z"/>
		<linearGradient id="SVGID_2_" gradientUnits="userSpaceOnUse" x1="84.8809" y1="0.4604" x2="84.8809" y2="6.9376">
			<stop  offset="0" style="stop-color:#C3E072"/>
			<stop  offset="1" style="stop-color:#28DBB0"/>
		</linearGradient>
		<path fill="url(#SVGID_2_)" d="M88.598,4.335c0,1.047-0.36,1.932-1.078,2.649s-1.602,1.077-2.647,1.077
			c-1.035,0-1.911-0.361-2.63-1.087c-0.718-0.726-1.077-1.604-1.077-2.64c0-1.034,0.359-1.91,1.077-2.628
			c0.719-0.719,1.595-1.078,2.63-1.078c1.033,0,1.912,0.359,2.637,1.078C88.234,2.425,88.598,3.301,88.598,4.335z"/>
		<path fill="#231F20" d="M11.983,18.457c-0.291,0.67-0.69,1.25-1.195,1.742c-0.493,0.506-1.074,0.902-1.744,1.184
			c-0.669,0.285-1.378,0.426-2.123,0.426c-0.759,0-1.475-0.141-2.145-0.426c-0.669-0.281-1.258-0.678-1.766-1.184
			c-0.506-0.492-0.902-1.072-1.185-1.742c-0.282-0.672-0.423-1.387-0.423-2.145c0-0.761,0.142-1.472,0.423-2.134
			c0.283-0.664,0.679-1.249,1.185-1.754c0.507-0.507,1.096-0.905,1.766-1.197c0.67-0.29,1.386-0.435,2.145-0.435
			c0.745,0,1.454,0.145,2.123,0.435c0.669,0.292,1.251,0.69,1.744,1.197c0.505,0.505,0.905,1.091,1.195,1.754
			c0.292,0.662,0.436,1.373,0.436,2.134C12.418,17.07,12.275,17.785,11.983,18.457z M10.018,14.981
			c-0.188-0.409-0.429-0.77-0.728-1.083c-0.313-0.313-0.674-0.559-1.084-0.737c-0.409-0.179-0.845-0.268-1.306-0.268
			c-0.477,0-0.92,0.088-1.331,0.268c-0.41,0.178-0.77,0.425-1.083,0.737c-0.314,0.313-0.556,0.674-0.727,1.083
			c-0.171,0.41-0.257,0.845-0.257,1.308c0,0.477,0.086,0.92,0.257,1.328c0.171,0.41,0.413,0.773,0.727,1.086
			C4.799,19,5.159,19.238,5.569,19.418c0.41,0.178,0.854,0.268,1.331,0.268c0.461,0,0.897-0.09,1.306-0.268
			c0.41-0.18,0.772-0.418,1.084-0.715c0.298-0.313,0.54-0.676,0.728-1.086c0.185-0.408,0.277-0.852,0.277-1.328
			C10.295,15.827,10.202,15.391,10.018,14.981z M16.575,15.819v13.476h-2.212V10.792h2.212v3.217h1.698v1.81H16.575z"/>
		<path fill="#231F20" d="M29.156,10.792v1.809h-1.408v8.448h3.218V10.792h2.211v2.815h1.721v1.81h-1.721v13.878h-2.189v-6.436
			H19.502v-1.811h1.408v-8.448h-1.408v-1.809H29.156z M25.537,21.049v-8.448h-2.415v8.448H25.537z"/>
		<path fill="#231F20" d="M50.652,28.021H36.976v-1.811h13.676V28.021z M49.849,10.724v1.81h-9.855v2.816h9.855v1.81h-9.855v3.018
			h9.855v1.811H37.782V10.724H49.849z"/>
		<path fill="#231F20" d="M63.603,18.457c-0.29,0.67-0.689,1.25-1.195,1.742c-0.492,0.506-1.074,0.902-1.744,1.184
			c-0.668,0.285-1.377,0.426-2.121,0.426c-0.761,0-1.477-0.141-2.146-0.426c-0.67-0.281-1.259-0.678-1.764-1.184
			c-0.507-0.492-0.902-1.072-1.186-1.742c-0.283-0.672-0.424-1.387-0.424-2.145c0-0.761,0.141-1.472,0.424-2.134
			c0.283-0.664,0.679-1.249,1.186-1.754c0.505-0.507,1.094-0.905,1.764-1.197c0.67-0.29,1.386-0.435,2.146-0.435
			c0.744,0,1.453,0.145,2.121,0.435c0.67,0.292,1.252,0.69,1.744,1.197c0.506,0.505,0.905,1.091,1.195,1.754
			c0.291,0.662,0.436,1.373,0.436,2.134C64.038,17.07,63.894,17.785,63.603,18.457z M61.636,14.981
			c-0.187-0.409-0.428-0.77-0.727-1.083c-0.313-0.313-0.674-0.559-1.082-0.737c-0.41-0.179-0.846-0.268-1.308-0.268
			c-0.478,0-0.921,0.088-1.331,0.268c-0.408,0.178-0.771,0.425-1.083,0.737c-0.312,0.313-0.555,0.674-0.726,1.083
			c-0.172,0.41-0.258,0.845-0.258,1.308c0,0.477,0.086,0.92,0.258,1.328c0.171,0.41,0.414,0.773,0.726,1.086
			c0.313,0.297,0.675,0.535,1.083,0.715c0.41,0.178,0.854,0.268,1.331,0.268c0.462,0,0.897-0.09,1.308-0.268
			c0.408-0.18,0.77-0.418,1.082-0.715c0.299-0.313,0.54-0.676,0.727-1.086c0.188-0.408,0.279-0.852,0.279-1.328
			C61.915,15.827,61.823,15.391,61.636,14.981z M68.194,15.819v13.476h-2.211V10.792h2.211v3.217h1.699v1.81H68.194z"/>
		<path fill="#231F20" d="M78.129,11.227c0.663,0.292,1.247,0.69,1.753,1.197c0.508,0.505,0.906,1.091,1.196,1.754
			c0.29,0.662,0.435,1.373,0.435,2.134c0,0.758-0.145,1.473-0.435,2.145c-0.29,0.67-0.688,1.25-1.196,1.742
			c-0.506,0.506-1.09,0.902-1.753,1.184c-0.664,0.285-1.374,0.426-2.134,0.426c-0.762,0-1.476-0.141-2.146-0.426
			c-0.67-0.281-1.251-0.678-1.743-1.184c-0.505-0.492-0.901-1.072-1.184-1.742c-0.284-0.672-0.423-1.387-0.423-2.145
			c0-0.761,0.139-1.472,0.423-2.134c0.282-0.664,0.679-1.249,1.184-1.754c0.492-0.507,1.073-0.905,1.743-1.197
			c0.671-0.29,1.385-0.435,2.146-0.435C76.755,10.792,77.465,10.937,78.129,11.227z M72.843,17.641
			c0.18,0.41,0.424,0.764,0.738,1.063c0.313,0.311,0.674,0.555,1.083,0.725c0.41,0.172,0.853,0.258,1.331,0.258
			c0.461,0,0.896-0.09,1.306-0.268c0.41-0.18,0.772-0.426,1.083-0.738c0.314-0.313,0.561-0.674,0.738-1.084
			c0.179-0.408,0.269-0.854,0.269-1.33c0-0.461-0.094-0.896-0.278-1.306c-0.188-0.41-0.438-0.771-0.748-1.083
			c-0.314-0.298-0.676-0.537-1.086-0.715c-0.41-0.179-0.846-0.268-1.306-0.268c-0.479,0-0.921,0.092-1.331,0.278
			c-0.408,0.187-0.771,0.429-1.084,0.727c-0.313,0.313-0.555,0.677-0.725,1.095c-0.173,0.417-0.258,0.857-0.258,1.32
			C72.575,16.789,72.664,17.23,72.843,17.641z"/>
	</g>
</g>
</svg>
