<?xml version="1.0" encoding="utf-8"?>
<!-- Generator: Adobe Illustrator 16.0.3, SVG Export Plug-In . SVG Version: 6.00 Build 0)  -->
<!DOCTYPE svg PUBLIC "-//W3C//DTD SVG 1.1//EN" "http://www.w3.org/Graphics/SVG/1.1/DTD/svg11.dtd">
<svg version="1.1" id="Layer_1" xmlns="http://www.w3.org/2000/svg" xmlns:xlink="http://www.w3.org/1999/xlink" x="0px" y="0px"
	 width="44px" height="37px" viewBox="0 0 44 37" enable-background="new 0 0 44 37" xml:space="preserve">
<g>
	<rect x="5.469" y="1.737" fill="#FFFFFF" width="21.771" height="29.938"/>
	<rect x="5.469" y="1.737" fill="#D1D1D1" width="21.771" height="5.745"/>
	
		<line fill="none" stroke="#232323" stroke-width="1.5" stroke-linecap="round" stroke-linejoin="round" stroke-miterlimit="10" x1="1.386" y1="31.675" x2="31.323" y2="31.675"/>
	
		<polyline fill="none" stroke="#232323" stroke-width="1.5" stroke-linecap="round" stroke-linejoin="round" stroke-miterlimit="10" points="
		5.469,31.221 5.469,1.737 27.24,1.737 27.24,31.675 	"/>
	
		<line fill="none" stroke="#232323" stroke-width="1.5" stroke-linecap="round" stroke-linejoin="round" stroke-miterlimit="10" x1="10.912" y1="12.636" x2="10.912" y2="26.554"/>
	
		<line fill="none" stroke="#232323" stroke-width="1.5" stroke-linecap="round" stroke-linejoin="round" stroke-miterlimit="10" x1="16.354" y1="12.636" x2="16.354" y2="26.554"/>
	
		<line fill="none" stroke="#232323" stroke-width="1.5" stroke-linecap="round" stroke-linejoin="round" stroke-miterlimit="10" x1="21.798" y1="12.636" x2="21.798" y2="26.554"/>
	
		<line fill="none" stroke="#232323" stroke-width="1.5" stroke-linecap="round" stroke-linejoin="round" stroke-miterlimit="10" x1="5.469" y1="7.18" x2="27.24" y2="7.18"/>
</g>
<g>
	<g>
		
			<path fill="#D1D1D1" stroke="#232323" stroke-width="1.5" stroke-linecap="round" stroke-linejoin="round" stroke-miterlimit="10" d="
			M37.229,32.004L26.651,21.45c0,0-3.397,0.908-5.618-1.309c0,0-2.529-2.583-1.368-5.663l2.874,2.869l2.98-0.982l0.048-0.049
			l0.74-2.746l-2.874-2.868c3.076-1.167,5.665,1.355,5.665,1.355c2.221,2.216,1.32,5.616,1.32,5.616l10.577,10.555
			c0,0,1.969,1.803,0.003,3.771C40.999,32.001,39.031,33.804,37.229,32.004z"/>
	</g>
</g>
</svg>
