<?xml version="1.0" encoding="utf-8"?>
<!-- Generator: Adobe Illustrator 16.0.3, SVG Export Plug-In . SVG Version: 6.00 Build 0)  -->
<!DOCTYPE svg PUBLIC "-//W3C//DTD SVG 1.1//EN" "http://www.w3.org/Graphics/SVG/1.1/DTD/svg11.dtd">
<svg version="1.1" id="Layer_1" xmlns="http://www.w3.org/2000/svg" xmlns:xlink="http://www.w3.org/1999/xlink" x="0px" y="0px"
	 width="24px" height="24px" viewBox="0 0 24 24" enable-background="new 0 0 24 24" xml:space="preserve">
<g>
	<path fill="#FFFFFF" stroke="#232323" stroke-linecap="round" stroke-linejoin="round" stroke-miterlimit="10" d="M20.49,2.97
		H3.669c-1.067,0-1.941,0.873-1.941,1.941v10.352c0,1.067,0.874,1.94,1.941,1.94h3.294v3.882h0.593l4.583-3.882h8.351
		c1.068,0,1.941-0.873,1.941-1.94V4.911C22.432,3.843,21.559,2.97,20.49,2.97z"/>
	<g>
		
			<circle fill="#FFFFFF" stroke="#232323" stroke-width="0.75" stroke-linecap="round" stroke-linejoin="round" stroke-miterlimit="10" cx="11.018" cy="12.412" r="1.96"/>
		<g>
			
				<path fill="#D1D1D1" stroke="#232323" stroke-width="0.75" stroke-linecap="round" stroke-linejoin="round" stroke-miterlimit="10" d="
				M15.571,14.023l-4.307-4.299c0,0-1.384,0.37-2.288-0.532c0,0-1.03-1.052-0.557-2.307l1.17,1.168l1.213-0.399l0.02-0.02
				l0.301-1.118l-1.17-1.168C11.207,4.873,12.261,5.9,12.261,5.9c0.904,0.902,0.538,2.287,0.538,2.287l4.307,4.298
				c0,0,0.802,0.734,0.002,1.536C17.107,14.021,16.306,14.756,15.571,14.023z"/>
		</g>
		
			<path fill="#01C5A7" stroke="#232323" stroke-width="0.75" stroke-linecap="round" stroke-linejoin="round" stroke-miterlimit="10" d="
			M13.457,12.411c0-0.201-0.027-0.395-0.074-0.582l0.741-0.539l-0.581-1.008l-0.838,0.371c-0.281-0.27-0.625-0.472-1.009-0.583
			L11.6,9.16h-1.164l-0.097,0.91c-0.384,0.111-0.728,0.313-1.009,0.583l-0.838-0.371L7.911,11.29l0.741,0.539
			c-0.046,0.188-0.073,0.381-0.073,0.582s0.027,0.396,0.073,0.582l-0.741,0.54l0.582,1.008l0.838-0.372
			c0.281,0.27,0.625,0.473,1.009,0.583l0.097,0.911H11.6l0.097-0.911c0.384-0.11,0.728-0.313,1.009-0.583l0.838,0.372l0.581-1.008
			l-0.741-0.54C13.43,12.807,13.457,12.612,13.457,12.411z M11.018,13.559c-0.634,0-1.148-0.514-1.148-1.147
			s0.514-1.147,1.148-1.147c0.633,0,1.147,0.514,1.147,1.147S11.651,13.559,11.018,13.559z"/>
	</g>
</g>
</svg>
