<?xml version="1.0" encoding="utf-8"?>
<!-- Generator: Adobe Illustrator 21.0.0, SVG Export Plug-In . SVG Version: 6.00 Build 0)  -->
<svg version="1.1" id="레이어_2" xmlns="http://www.w3.org/2000/svg" xmlns:xlink="http://www.w3.org/1999/xlink" x="0px"
	 y="0px" viewBox="0 0 183 36" style="enable-background:new 0 0 183 36;" xml:space="preserve">
<style type="text/css">
	.st0{fill:#E73845;}
	.st1{fill:url(#SVGID_1_);}
	.st2{fill:#FFFFFF;}
	.st3{fill:#313232;}
</style>
<g>
	<g>
		<circle class="st0" cx="47.3" cy="18.2" r="14"/>
		
			<linearGradient id="SVGID_1_" gradientUnits="userSpaceOnUse" x1="-939.8353" y1="494.0269" x2="-947.2047" y2="499.9378" gradientTransform="matrix(1 0 0 1 987.5801 -473.4385)">
			<stop  offset="0" style="stop-color:#F6F6F6"/>
			<stop  offset="0.4431" style="stop-color:#EDEDED"/>
			<stop  offset="1" style="stop-color:#DBDBDB"/>
		</linearGradient>
		<polygon class="st1" points="53.9,15.6 53.9,15.6 53.9,15.7 		"/>
		<g>
			<path class="st2" d="M40,14.9c-0.4-0.3-0.9-0.3-1.4-0.3c0.9-1,1.4-2,1.4-3.1c0-0.1,0-0.2,0-0.3c0-0.7-0.4-1.2-0.8-1.3
				c-0.5-0.2-1.4-0.1-2.8,1.3l-0.8,0.9c-0.2,0.3-1.1,1.6-1.3,3c-0.3,2.4-0.1,4.7,0.5,6.8c0.1,0.2,0.3,0.8,0.8,1
				c0.6,0.2,1.1,0,1.6-0.3l0.1-0.1l0.5-0.2l0.5-0.2l0.6-0.3c0.4-0.2,0.8-0.3,1.2-0.7c0.5-0.4,0.9-1,1.1-1.7c0.1-0.3,0.2-0.7,0.2-1.1
				c0-0.3,0.1-1-0.1-1.5C41.1,15.7,40.5,15.1,40,14.9z M35.6,16.6c0,0,0,0.3,0,0.3c0,0.1,0,0.1,0.1,0.2c0.1,0,0.1,0,0.2,0
				c0.5-0.4,1.3-0.8,2-0.6c0.5,0.2,0.8,0.7,1,1.5c0.4,1.8-0.9,2.6-1.6,3l0,0l-1,0.5c0,0-0.1,0-0.1,0c-0.1,0-0.1-0.1-0.1-0.2
				c-0.7-2.4-0.9-5-0.6-7.4c0-0.2,0.1-0.4,0.2-0.6l0.8-0.9l0.1-0.1c0.4-0.4,0.9-0.6,1.1-0.6c0.2,0.1,0.2,0.4,0.2,0.6
				c0,1.3-0.7,2.6-2.2,4C35.7,16.4,35.6,16.5,35.6,16.6z"/>
			<path class="st2" d="M51,7.5c-0.3-0.9-0.7-1.1-0.8-1.2c-1.2-0.4-2.4-0.4-3.5-0.2c-1.8,0.3-3.3,1.2-4.3,2.6
				c-1.1,1.4-1.5,3.2-1.2,5c0.3,1.8,1.2,3.3,2.6,4.2c1.7,1.1,3.9,1.5,6.2,1c1.4-0.3,2.5-0.8,3.4-1.6c0.4-0.3,0.5-0.8,0.5-1.1
				c0,0,0-0.2-0.2-1c-0.1-0.2-0.1-0.2-0.3-0.2c-0.1,0-0.2,0.1-0.2,0.1c-0.7,0.8-1.7,1.3-2.9,1.6c-3.2,0.6-5.7-0.9-6.4-3.9
				c-0.3-1.3,0-2.5,0.6-3.5c0.7-1,1.8-1.6,3.1-1.8c1-0.1,2.1,0,3,0.4C50.7,7.8,51.1,7.9,51,7.5z"/>
		</g>
	</g>
	<g>
		<path class="st3" d="M82.5,28H84c0.5,0,0.8-0.1,1.1-0.4c0.2-0.3,0.4-0.6,0.4-1.1V8.4h-2.9V28z"/>
		<path class="st3" d="M77.5,9.1h-1.5v4.5h-4.8v-3c0-0.4-0.1-0.8-0.4-1.1c-0.3-0.3-0.6-0.4-1.1-0.4h-1.5v11.1c0,0.7,0.2,1.3,0.6,1.7
			c0.4,0.4,0.9,0.6,1.6,0.6h4.6c0.6,0,1.1-0.1,1.6-0.3c0.5-0.2,0.9-0.6,1.2-1c0.3-0.4,0.6-0.9,0.8-1.5c0.2-0.6,0.3-1.3,0.3-2v-7.1
			c0-0.4-0.1-0.8-0.4-1.1C78.3,9.2,78,9.1,77.5,9.1z M76.1,18.8c0,0.6-0.1,1.1-0.4,1.4c-0.3,0.3-0.7,0.4-1.2,0.4h-2.6
			c-0.2,0-0.3-0.1-0.4-0.2c-0.1-0.1-0.2-0.3-0.2-0.6v-4.2h4.8V18.8z"/>
		<path class="st3" d="M99.7,18.8c-0.5-1-0.8-2.3-0.8-3.8v-4.7c0-0.4-0.1-0.7-0.3-0.9c-0.2-0.2-0.5-0.3-0.9-0.3H96v6.1
			c0,0.9-0.1,1.6-0.3,2.2c-0.2,0.6-0.5,1.2-0.9,1.7h-0.1c-0.4-0.5-0.7-1.1-0.9-1.8c-0.2-0.7-0.3-1.4-0.3-2.4v-4.7
			c0-0.4-0.1-0.7-0.3-0.9c-0.2-0.2-0.5-0.3-0.9-0.3h-1.7v6.1c0,1.5-0.3,2.7-0.8,3.6c-0.6,1-1.4,1.7-2.4,2.1l1.6,1.4
			c1.1-0.4,2.1-1.1,3-2.3h0.1c0.4,0.5,0.7,0.9,1.2,1.3c0.4,0.3,0.9,0.7,1.5,1c0.3-0.2,0.6-0.4,0.8-0.6c0.2-0.2,0.4-0.3,0.7-0.5
			c0.2-0.2,0.4-0.4,0.6-0.6c0.2-0.2,0.4-0.4,0.5-0.7h0.1c0.4,0.5,0.9,1,1.4,1.4c0.5,0.4,1.1,0.7,1.6,0.9l1.7-1.4
			C101.1,20.5,100.2,19.8,99.7,18.8z"/>
		<path class="st3" d="M103.2,28h1.5c0.5,0,0.8-0.1,1.1-0.4c0.2-0.3,0.4-0.6,0.4-1.1V8.4h-2.9V28z"/>
		<path class="st3" d="M115.8,9.1h-5.6v2h4.8c1.2,0,1.8,0.6,1.8,1.9v1.5h-7v2h6.9c-0.1,0.5-0.3,0.9-0.5,1.4c-0.4,0.7-1,1.4-1.7,1.9
			c-0.7,0.6-1.4,1-2.2,1.4c-0.8,0.4-1.6,0.7-2.3,0.8l1.6,1.4c1-0.2,2-0.6,2.9-1.1c1-0.5,1.9-1.1,2.6-1.8c0.8-0.7,1.4-1.6,1.9-2.5
			c0.5-0.9,0.7-1.9,0.7-3v-2.2C119.8,10.3,118.5,9.1,115.8,9.1z"/>
		<path class="st3" d="M126.1,8.4h-2.9V28h1.5c0.5,0,0.8-0.1,1.1-0.4c0.2-0.3,0.4-0.6,0.4-1.1V16.3h3.3v-2h-3.3V8.4z"/>
		<path class="st3" d="M134.9,19.4h10.8c0.3,0,0.5-0.1,0.7-0.2c0.2-0.2,0.2-0.4,0.2-0.6v-1.1h-10.2c-0.2,0-0.4-0.1-0.6-0.2
			c-0.1-0.1-0.2-0.3-0.2-0.6v-4.5c0-0.3,0.1-0.5,0.2-0.7c0.2-0.2,0.4-0.2,0.6-0.2h8.9c0.3,0,0.5-0.1,0.7-0.2
			c0.2-0.2,0.3-0.4,0.3-0.7V9.2h-11.5c-0.6,0-1.1,0.2-1.5,0.6c-0.4,0.4-0.6,1-0.6,1.7v5.7c0,0.7,0.2,1.3,0.6,1.7
			C133.8,19.2,134.3,19.4,134.9,19.4z"/>
		<path class="st3" d="M130.4,23.2v2h17.9c0.2,0,0.5-0.1,0.7-0.3c0.2-0.2,0.3-0.4,0.3-0.8v-0.9H130.4z"/>
	</g>
</g>
</svg>
