<?xml version="1.0" encoding="utf-8"?>
<!-- Generator: Adobe Illustrator 16.0.3, SVG Export Plug-In . SVG Version: 6.00 Build 0)  -->
<!DOCTYPE svg PUBLIC "-//W3C//DTD SVG 1.1//EN" "http://www.w3.org/Graphics/SVG/1.1/DTD/svg11.dtd">
<svg version="1.1" id="레이어_5" xmlns="http://www.w3.org/2000/svg" xmlns:xlink="http://www.w3.org/1999/xlink" x="0px"
	 y="0px" width="26px" height="25px" viewBox="0 0 26 25" enable-background="new 0 0 26 25" xml:space="preserve">
<g>
	<g>
		<path fill="#008375" d="M8.113,12.85c-0.01-0.065-0.029-0.13-0.055-0.188c-0.083-0.179-0.199-0.329-0.371-0.43
			c-0.269-0.156-0.593-0.155-0.86,0.006c-0.12,0.072-0.218,0.177-0.283,0.303c-0.021,0.042-0.039,0.086-0.053,0.133
			c-0.07,0.222-0.067,0.521,0.058,0.727c0.042,0.065,0.102,0.123,0.174,0.149c0.072,0.027,0.159,0.025,0.225-0.018
			c0.084-0.054,0.1-0.158,0.084-0.25c-0.02-0.121-0.035-0.236,0.008-0.352c0.014-0.037,0.034-0.074,0.063-0.101
			c0.017-0.016,0.037-0.03,0.06-0.041c0.045-0.022,0.098-0.032,0.148-0.024c0.088,0.016,0.16,0.083,0.199,0.163
			c0.039,0.081,0.049,0.171,0.054,0.261c0.019,0.39-0.074,0.789-0.173,1.164c-0.01,0.035-0.021,0.074-0.031,0.113
			c-0.008,0.029-0.023,0.066-0.004,0.096c0.008,0.013,0.021,0.021,0.034,0.025c0.058,0.023,0.104-0.012,0.144-0.049
			c0.227-0.23,0.373-0.525,0.472-0.83c0.037-0.113,0.07-0.227,0.091-0.346C8.125,13.203,8.142,13.02,8.113,12.85"/>
		<path fill="#008375" d="M9.741,11.056c0-0.058-0.051-0.097-0.106-0.094c-0.057,0.002-0.108,0.031-0.16,0.05
			c-1.001,0.38-2.129,0.453-3.184,0.301c-0.181-0.025-0.363-0.063-0.545-0.091c-0.113-0.018-0.225-0.043-0.34-0.051
			c-0.098-0.008-0.219-0.012-0.298,0.056c-0.104,0.09-0.097,0.261-0.038,0.374c0.071,0.134,0.195,0.235,0.325,0.313
			c0.125,0.075,0.275,0.154,0.424,0.145c0.402-0.025,0.805-0.064,1.206-0.117c0.683-0.089,1.398-0.172,2.04-0.437
			c0.21-0.088,0.417-0.195,0.597-0.335C9.694,11.145,9.741,11.104,9.741,11.056"/>
		<path fill="#D70036" d="M6.872,10.714c0,0.217,0.177,0.392,0.394,0.392c0.217,0,0.394-0.175,0.394-0.392
			c0-0.033-0.008-0.065-0.022-0.095c-0.033-0.072-0.071-0.107-0.067-0.192c0.005-0.116-0.144-0.117-0.223-0.117
			c-0.087,0-0.179,0.012-0.258,0.051c-0.063,0.032-0.116,0.08-0.155,0.139c-0.039,0.061-0.061,0.132-0.063,0.205
			C6.872,10.708,6.872,10.711,6.872,10.714"/>
	</g>
	<g>
		<g>
			<path fill="#231916" d="M10.577,11.656v-0.301h0.444v0.301h0.593v0.286h-0.311c0.07,0.085,0.125,0.186,0.166,0.302
				c0.042,0.116,0.064,0.243,0.065,0.38c-0.001,0.136-0.021,0.26-0.057,0.375s-0.086,0.214-0.152,0.296
				c-0.066,0.084-0.144,0.148-0.232,0.195c-0.088,0.047-0.187,0.07-0.295,0.07c-0.111,0.004-0.213-0.021-0.305-0.066
				c-0.09-0.049-0.167-0.113-0.23-0.197c-0.065-0.084-0.117-0.184-0.152-0.298c-0.034-0.114-0.051-0.239-0.051-0.375
				c0-0.138,0.02-0.265,0.062-0.38c0.041-0.117,0.097-0.217,0.167-0.302H9.995v-0.286H10.577z M10.798,11.948
				c-0.088,0-0.163,0.063-0.223,0.187c-0.061,0.125-0.09,0.288-0.087,0.49c-0.002,0.198,0.025,0.355,0.085,0.473
				c0.06,0.119,0.133,0.178,0.221,0.178c0.09,0,0.164-0.059,0.223-0.176c0.06-0.118,0.089-0.275,0.089-0.475
				c0-0.213-0.029-0.379-0.087-0.498C10.96,12.007,10.887,11.948,10.798,11.948z M12.328,12.514v1.714H11.9v-2.874h0.428v0.873
				h0.412v0.286H12.328z"/>
			<path fill="#231916" d="M13.436,13.117h0.721c0.047,0,0.092,0,0.135,0c0.044,0,0.087-0.004,0.128-0.006
				c0.042-0.006,0.084-0.014,0.127-0.024c0.04-0.013,0.084-0.03,0.131-0.056v-1.676h0.43v0.873h0.412v0.286h-0.412v1.714h-0.43
				v-0.912c-0.076,0.035-0.162,0.058-0.257,0.068c-0.093,0.012-0.185,0.018-0.272,0.018h-0.949c-0.094,0-0.173-0.038-0.237-0.114
				c-0.062-0.078-0.093-0.17-0.093-0.278v-1.527h0.429V13c0,0.038,0.011,0.066,0.035,0.088S13.389,13.117,13.436,13.117z"/>
			<path fill="#231916" d="M16.425,12.514h-0.749v-0.286h0.857c0.015-0.057,0.025-0.115,0.033-0.171
				c0.01-0.058,0.015-0.115,0.015-0.171V11.8h-0.905v-0.286h1.35v0.279c0,0.218-0.034,0.423-0.106,0.617
				c-0.069,0.193-0.167,0.365-0.289,0.516c-0.123,0.15-0.269,0.273-0.438,0.371c-0.166,0.096-0.351,0.156-0.545,0.18v-0.287
				c0.178-0.053,0.332-0.141,0.463-0.264C16.241,12.803,16.348,12.666,16.425,12.514z M17.883,12.514v1.714h-0.429v-2.874h0.429
				v0.873h0.412v0.286H17.883z"/>
			<path fill="#231916" d="M18.406,13.529h2.568v0.285h-2.568V13.529z M18.727,11.514h1.937V11.8h-1.509v0.787
				c0,0.038,0.013,0.068,0.035,0.087c0.022,0.02,0.061,0.031,0.108,0.031h1.364v0.286h-1.602c-0.097,0-0.176-0.04-0.238-0.117
				c-0.063-0.077-0.096-0.169-0.096-0.278V11.514z"/>
		</g>
	</g>
</g>
</svg>
