<?xml version="1.0" encoding="utf-8"?>
<!-- Generator: Adobe Illustrator 16.0.3, SVG Export Plug-In . SVG Version: 6.00 Build 0)  -->
<!DOCTYPE svg PUBLIC "-//W3C//DTD SVG 1.1//EN" "http://www.w3.org/Graphics/SVG/1.1/DTD/svg11.dtd">
<svg version="1.1" id="레이어_5" xmlns="http://www.w3.org/2000/svg" xmlns:xlink="http://www.w3.org/1999/xlink" x="0px"
	 y="0px" width="26px" height="25px" viewBox="0 0 26 25" enable-background="new 0 0 26 25" xml:space="preserve">
<g>
	<g>
		<polygon fill="#231916" points="12.452,11.378 11.998,11.378 11.998,14.203 12.452,14.203 12.452,12.397 12.872,12.397 
			12.872,12.144 12.452,12.144 		"/>
		<path fill="#231916" d="M10.917,13.336c-0.195,0.002-0.354-0.313-0.354-0.698c-0.001-0.386,0.156-0.699,0.353-0.7
			c0.195,0,0.354,0.313,0.354,0.699C11.271,13.021,11.113,13.336,10.917,13.336 M11.14,11.31h-0.453v0.264H10.07v0.253h0.422
			c-0.229,0.168-0.38,0.467-0.38,0.81c0,0.527,0.358,0.953,0.803,0.953c0.442,0,0.802-0.426,0.802-0.953
			c0-0.343-0.151-0.642-0.38-0.81h0.424v-0.253h-0.62L11.14,11.31L11.14,11.31z"/>
		<path fill="#231916" d="M15.658,12.144h-0.419v-0.766h-0.454v1.708c-0.074,0.074-0.188,0.152-0.346,0.15h-0.721
			c-0.107,0-0.193-0.086-0.193-0.191v-1.539h-0.449l0.002,1.539c0,0.246,0.2,0.445,0.449,0.445h0.781c0,0,0.275,0.014,0.477-0.17
			v0.883h0.454v-1.806h0.419V12.144z"/>
		<path fill="#231916" d="M16.921,11.568c0.197-0.001,0.356,0.25,0.358,0.562c0.003,0.312-0.154,0.566-0.352,0.567
			c-0.193,0.001-0.354-0.25-0.355-0.563C16.57,11.823,16.729,11.568,16.921,11.568 M17.711,12.13c0-0.451-0.357-0.819-0.801-0.819
			c-0.444,0-0.803,0.368-0.803,0.819c0,0.284,0.141,0.534,0.354,0.681h-0.83v0.264h0.348v0.679c0,0.248,0.201,0.445,0.451,0.445
			l1.527,0.002v-0.256h-1.338c-0.105,0-0.192-0.086-0.192-0.191l0.001-0.679h1.74v-0.264h-0.813
			C17.57,12.664,17.711,12.414,17.711,12.13"/>
		<path fill="#231916" d="M18.928,12.86c-0.111,0.001-0.203-0.204-0.203-0.459c-0.002-0.256,0.086-0.462,0.197-0.462
			c0.11-0.002,0.202,0.205,0.204,0.46C19.128,12.652,19.039,12.86,18.928,12.86 M19.575,12.399c0-0.233-0.103-0.441-0.259-0.572
			H19.6v-0.253h-0.447V11.31h-0.453v0.264h-0.45v0.253h0.285c-0.157,0.131-0.259,0.339-0.259,0.572c0,0.396,0.291,0.716,0.648,0.716
			C19.285,13.115,19.575,12.795,19.575,12.399"/>
		<path fill="#231916" d="M20.049,14.031c-0.195,0.002-0.354-0.252-0.355-0.563c0-0.313,0.156-0.565,0.352-0.565
			c0.196-0.001,0.355,0.251,0.355,0.563S20.243,14.031,20.049,14.031 M20.414,12.197v0.556c-0.064-0.036-0.135-0.061-0.207-0.078
			v-0.479L20.414,12.197z M20.841,13.453V11.38h-0.427v0.563h-0.207v-0.566h-0.432v1.327c-0.313,0.112-0.537,0.414-0.537,0.771
			c0,0.453,0.359,0.816,0.803,0.816c0.441,0,0.802-0.363,0.802-0.816C20.843,13.469,20.843,13.461,20.841,13.453"/>
	</g>
	<path fill="#009591" d="M8.246,12.85c-0.01-0.065-0.029-0.129-0.055-0.187c-0.083-0.18-0.197-0.329-0.371-0.43
		c-0.269-0.157-0.594-0.156-0.86,0.005c-0.12,0.073-0.219,0.177-0.283,0.303c-0.022,0.042-0.039,0.088-0.054,0.133
		c-0.069,0.222-0.067,0.521,0.059,0.725c0.042,0.067,0.101,0.125,0.173,0.151c0.072,0.027,0.16,0.025,0.226-0.018
		c0.083-0.056,0.099-0.158,0.083-0.252c-0.02-0.117-0.035-0.234,0.008-0.35c0.014-0.037,0.034-0.072,0.063-0.101
		c0.018-0.016,0.038-0.029,0.06-0.041c0.045-0.022,0.098-0.031,0.148-0.023c0.088,0.014,0.161,0.083,0.199,0.162
		c0.04,0.081,0.05,0.171,0.054,0.261c0.019,0.388-0.074,0.791-0.174,1.162c-0.01,0.037-0.02,0.076-0.031,0.113
		c-0.008,0.031-0.023,0.068-0.004,0.096c0.008,0.015,0.021,0.021,0.035,0.027c0.058,0.023,0.105-0.014,0.143-0.051
		c0.227-0.229,0.373-0.525,0.474-0.828c0.036-0.113,0.069-0.229,0.091-0.346C8.259,13.203,8.275,13.02,8.246,12.85"/>
	<path fill="#009591" d="M9.874,11.057c0-0.058-0.051-0.097-0.106-0.095c-0.056,0.001-0.108,0.03-0.16,0.05
		c-1,0.38-2.129,0.452-3.184,0.3c-0.181-0.025-0.363-0.062-0.544-0.09c-0.113-0.019-0.226-0.043-0.339-0.052
		c-0.098-0.007-0.22-0.011-0.299,0.057c-0.104,0.09-0.097,0.261-0.037,0.373c0.07,0.135,0.194,0.235,0.324,0.314
		c0.125,0.074,0.275,0.154,0.425,0.145c0.402-0.025,0.804-0.065,1.206-0.118c0.683-0.089,1.399-0.171,2.04-0.437
		c0.21-0.086,0.417-0.195,0.598-0.335C9.827,11.145,9.874,11.104,9.874,11.057"/>
	<path fill="#ED1651" d="M7.005,10.714c0,0.217,0.177,0.393,0.394,0.393c0.217,0,0.394-0.176,0.394-0.393
		c0-0.033-0.007-0.065-0.021-0.095c-0.033-0.071-0.071-0.106-0.068-0.192c0.005-0.116-0.143-0.117-0.223-0.117
		c-0.086,0-0.179,0.012-0.258,0.051C7.16,10.393,7.107,10.442,7.069,10.5c-0.04,0.061-0.062,0.132-0.063,0.205
		C7.005,10.708,7.005,10.71,7.005,10.714"/>
</g>
</svg>
