<?xml version="1.0" encoding="utf-8"?>
<!-- Generator: Adobe Illustrator 21.0.0, SVG Export Plug-In . SVG Version: 6.00 Build 0)  -->
<svg version="1.1" id="레이어_6" xmlns="http://www.w3.org/2000/svg" xmlns:xlink="http://www.w3.org/1999/xlink" x="0px"
	 y="0px" viewBox="0 0 183 36" style="enable-background:new 0 0 183 36;" xml:space="preserve">
<style type="text/css">
	.st0{fill:#FFFFFF;}
</style>
<g>
	<path class="st0" d="M18.7,2c-4.9,0-8.8,4-8.8,8.8l0,0v23.5h2.9V10.8c0-3.3,2.6-5.9,5.9-5.9h145.1c3.3,0,5.9,2.6,5.9,5.9v23.5h2.9
		V10.8c0-4.9-4-8.8-8.8-8.8H18.7z"/>
	<g>
		<g>
			<path class="st0" d="M37,28.2c0,0.2-0.1,0.3-0.4,0.3h-2.2c-0.3,0-0.3-0.1-0.3-0.3v-5.9c0-0.3-0.2-0.4-0.5-0.4h-5.7
				c-0.3,0-0.4,0.1-0.4,0.4v5.9c0,0.2-0.1,0.3-0.4,0.3h-2.2c-0.2,0-0.3-0.1-0.3-0.3V13.4c0-0.2,0.1-0.4,0.3-0.4h2.2
				c0.2,0,0.4,0.1,0.4,0.4v5.7c0,0.3,0.1,0.4,0.4,0.4h5.7c0.3,0,0.5-0.1,0.5-0.4v-5.7c0-0.2,0.1-0.4,0.3-0.4h2.2
				c0.2,0,0.4,0.1,0.4,0.4V28.2z"/>
			<path class="st0" d="M42.3,28.7c-1.6,0-2.5-1.3-2.5-2.4v-9.2c0-0.3,0.1-0.4,0.4-0.4h2.1c0.2,0,0.4,0.1,0.4,0.4V26
				c0,0.3,0.1,0.4,0.4,0.4h3.8c0.3,0,0.4-0.1,0.4-0.4v-8.9c0-0.3,0.1-0.4,0.4-0.4h2.1c0.2,0,0.4,0.1,0.4,0.4v13.4
				c0,0.3-0.1,0.7-0.3,1l-1.4,2.3c-0.1,0.2-0.3,0.3-0.5,0.3h-0.3c-0.3,0-0.4-0.1-0.4-0.4v-5.9c0-0.3-0.1-0.4-0.4-0.3l-4,1.1
				C42.7,28.7,42.5,28.7,42.3,28.7z"/>
			<path class="st0" d="M55.4,28.7c-1.3,0-2.4-1.1-2.4-2.4v-9.2c0-0.3,0.1-0.4,0.4-0.4h2.1c0.2,0,0.3,0.1,0.3,0.4V26
				c0,0.3,0.1,0.4,0.4,0.4H60c0.2,0,0.4-0.1,0.4-0.4v-8.9c0-0.3,0.1-0.4,0.3-0.4h2.1c0.2,0,0.4,0.1,0.4,0.4v11.1
				c0,0.2-0.1,0.3-0.4,0.3h-2.1c-0.3,0-0.3-0.1-0.3-0.3v-0.3c0-0.3-0.2-0.4-0.4-0.3l-4,1.1C55.8,28.7,55.6,28.7,55.4,28.7z"/>
			<path class="st0" d="M76.4,19v9.2c0,0.2-0.1,0.3-0.4,0.3h-2.1c-0.2,0-0.3-0.1-0.3-0.3v-8.9c0-0.3-0.2-0.4-0.4-0.4h-3.8
				c-0.3,0-0.4,0.1-0.4,0.4v8.9c0,0.2-0.1,0.3-0.3,0.3h-2.1c-0.3,0-0.4-0.1-0.4-0.3V17.1c0-0.3,0.1-0.4,0.4-0.4h2.1
				c0.2,0,0.3,0.1,0.3,0.4v0.4c0,0.2,0.1,0.3,0.4,0.2l4-1.1c0.2,0,0.4-0.1,0.6-0.1C75.3,16.5,76.4,17.7,76.4,19z"/>
			<path class="st0" d="M78.8,26.3V21c0-1.1,0.5-2,1.5-2.5l2.2-1.3c0.5-0.3,0.9-0.4,1.5-0.4h1.9c0.3,0,0.4-0.1,0.4-0.4V12
				c0-0.2,0.1-0.4,0.3-0.4h2.1c0.3,0,0.4,0.2,0.4,0.4v16.2c0,0.2-0.1,0.3-0.4,0.3h-2.1c-0.2,0-0.3-0.1-0.3-0.3v-0.3
				c0-0.3-0.1-0.4-0.4-0.3l-4.1,1.1c-0.2,0.1-0.4,0.1-0.6,0.1C80.1,28.7,78.8,27.7,78.8,26.3z M86.3,26v-6.7c0-0.3-0.1-0.4-0.4-0.4
				H82c-0.3,0-0.4,0.1-0.4,0.4V26c0,0.3,0.1,0.4,0.4,0.4h3.9C86.2,26.3,86.3,26.2,86.3,26z"/>
			<path class="st0" d="M93.9,28.7c-1.3,0-2.4-1.1-2.4-2.4V21c0-1.1,0.5-2,1.5-2.5l2.2-1.3c0.5-0.3,0.9-0.4,1.4-0.4h4.8
				c0.2,0,0.4,0.1,0.4,0.4v11.1c0,0.2-0.1,0.3-0.4,0.3h-2.1c-0.2,0-0.3-0.1-0.3-0.3v-0.3c0-0.3-0.1-0.4-0.4-0.3l-4,1.1
				C94.3,28.7,94.1,28.7,93.9,28.7z M99,26v-6.7c0-0.3-0.1-0.4-0.4-0.4h-3.9c-0.3,0-0.4,0.1-0.4,0.4V26c0,0.3,0.1,0.4,0.4,0.4h3.9
				C98.9,26.3,99,26.2,99,26z"/>
			<path class="st0" d="M107.4,13.7c0,0.3-0.1,0.3-0.4,0.3H105c-0.3,0-0.4-0.1-0.4-0.3V12c0-0.2,0.1-0.4,0.4-0.4h2.1
				c0.2,0,0.4,0.2,0.4,0.4V13.7z M107.4,28.2c0,0.2-0.1,0.3-0.4,0.3H105c-0.3,0-0.4-0.1-0.4-0.3V17.1c0-0.3,0.1-0.4,0.4-0.4h2.1
				c0.2,0,0.4,0.1,0.4,0.4V28.2z"/>
		</g>
		<g>
			<path class="st0" d="M113.3,25.5v-8c0-1.2,0.5-2.1,1.5-2.7l2.5-1.4c0.4-0.3,1-0.4,1.5-0.4h5.2c0.2,0,0.4,0.1,0.4,0.4V15
				c0,0.2-0.1,0.3-0.4,0.3h-7.3c-0.3,0-0.4,0.1-0.4,0.4v10.1c0,0.3,0.1,0.4,0.4,0.4h7.5c0.2,0,0.4,0.1,0.4,0.3
				c0,0.2-0.1,0.4-0.3,0.5l-1.8,1c-0.5,0.3-1,0.4-1.5,0.4h-4.5C114.9,28.5,113.3,27.4,113.3,25.5z"/>
			<path class="st0" d="M128.7,28.7c-1.3,0-2.4-1.1-2.4-2.4V21c0-1.1,0.5-2,1.5-2.5l2.2-1.3c0.5-0.3,0.9-0.4,1.4-0.4h4.8
				c0.2,0,0.4,0.1,0.4,0.4v11.1c0,0.2-0.1,0.3-0.4,0.3h-2.1c-0.2,0-0.3-0.1-0.3-0.3v-0.3c0-0.3-0.2-0.4-0.4-0.3l-4,1.1
				C129.1,28.7,128.9,28.7,128.7,28.7z M133.8,26v-6.7c0-0.3-0.2-0.4-0.4-0.4h-3.9c-0.3,0-0.4,0.1-0.4,0.4V26c0,0.3,0.1,0.4,0.4,0.4
				h3.9C133.7,26.3,133.8,26.2,133.8,26z"/>
			<path class="st0" d="M147.2,18.6c0,0.2-0.1,0.3-0.4,0.3h-4.1c-0.3,0-0.4,0.1-0.4,0.4v8.9c0,0.2-0.2,0.3-0.4,0.3h-2.1
				c-0.2,0-0.3-0.1-0.3-0.3V17.1c0-0.3,0.1-0.4,0.3-0.4h2.1c0.2,0,0.4,0.1,0.4,0.4v0.3c0,0.2,0.1,0.3,0.4,0.3c0.1,0,0.1,0,0.2,0
				l1.2-0.8c0.4-0.2,0.9-0.4,1.4-0.4h1.2c0.2,0,0.4,0.1,0.4,0.4V18.6z"/>
			<path class="st0" d="M147.6,26.3V21c0-1.1,0.5-2,1.5-2.5l2.2-1.3c0.5-0.3,0.9-0.4,1.5-0.4h1.9c0.3,0,0.4-0.1,0.4-0.4V12
				c0-0.2,0.1-0.4,0.3-0.4h2.1c0.3,0,0.4,0.2,0.4,0.4v16.2c0,0.2-0.1,0.3-0.4,0.3h-2.1c-0.2,0-0.3-0.1-0.3-0.3v-0.3
				c0-0.3-0.1-0.4-0.4-0.3l-4.1,1.1c-0.2,0.1-0.4,0.1-0.6,0.1C148.9,28.7,147.6,27.7,147.6,26.3z M155.1,26v-6.7
				c0-0.3-0.1-0.4-0.4-0.4h-3.9c-0.3,0-0.4,0.1-0.4,0.4V26c0,0.3,0.1,0.4,0.4,0.4h3.9C155,26.3,155.1,26.2,155.1,26z"/>
		</g>
	</g>
</g>
</svg>
