<?xml version="1.0" encoding="utf-8"?>
<!-- Generator: Adobe Illustrator 21.0.0, SVG Export Plug-In . SVG Version: 6.00 Build 0)  -->
<svg version="1.1" id="레이어_1" xmlns="http://www.w3.org/2000/svg" xmlns:xlink="http://www.w3.org/1999/xlink" x="0px"
	 y="0px" viewBox="0 0 183 36" style="enable-background:new 0 0 183 36;" xml:space="preserve">
<style type="text/css">
	.st0{fill:#F8B500;}
	.st1{fill:#7C7366;}
</style>
<g>
	<g>
		<path class="st0" d="M45.5,18.6l-0.3-0.2c-1.1-1.1-2.7-1.6-4.8-1.5c-1.8,0.1-3.2,0.8-4.2,1.5c0,0,0,0,0,0c0-0.6,0.1-1.2,0.1-1.7
			c0.1-0.6,0.1-1.2,0.1-1.8c0-0.6-0.1-1.1-0.3-1.6c0-0.1-0.2-0.2-0.3-0.2c-0.6,0-1.7,0.4-2,0.6c0,0-0.1,0.3-0.1,0.3
			c0,0.6-0.1,2.4-0.3,2.6c0,0-0.1,0.2-0.1,0.2c-0.2,2.5-0.2,4.7,0,6.6c0,0.2,0.4,0.5,0.7,0.6c0.3,0.1,1.3-0.1,1.8-0.4l0.2,0
			c0.2,0,0.3-0.2,0.3-0.4c0,0,0-0.5,0-0.5c0.4-1.6,2-3.6,4-3.9c1.1-0.2,2,0.1,2.6,0.8c0.1,0.1,0.3,1.3-0.4,2.7c-0.5,1-1.6,1.9-3,2.4
			c-1.3,0.5-2.8,0.7-4.6,0.6c-0.1,0-1.7-1.2-1.7-1.2c-1.4-1-3.2-2.3-4.9-2.9c-0.3-0.1-0.8-0.5-1.1-0.8L27,20.3
			c-0.9-0.7-2.7-1.9-4.2-2.9c0,0-0.6-0.4-0.8-0.5c0-0.1,0-0.2,0-0.2c0,0,0.9-0.6,0.9-0.6c1.3-0.7,1.8-1.1,2-1.3c0,0,0.2-0.1,0.2-0.1
			c0,0,3.1-1.8,3.1-1.8c3-1.6,6.4-3.5,8.2-5.4c0,0,0.1-0.3,0.1-0.3l0-0.2c0.1-0.4,0.1-0.7,0-1c0-0.1-0.1-0.2-0.2-0.2
			c-1.4-0.1-3.2,0.7-4.8,2.2c-0.4,0.3-0.7,0.5-1,0.7l-0.2,0.1c-1.8,1-5.9,3.5-8,4.9c0.1-2.3,0.6-5.5,1.1-8.2l-0.1-0.3
			c0,0-0.2-0.4-0.2-0.4l-0.2-0.3l0,0c-0.4-0.2-0.8-0.1-1-0.1l-0.4,0.2l-0.6,0.2c-0.1,0-0.2,0.1-0.2,0.2c-1,2.5-1.9,6.5-2.1,9.7
			c-2-1.3-3.9-2.2-4.8-2.7l0,0l-0.1,0c-0.3,0-0.7-0.3-1.1-0.5c0,0-0.8-0.5-0.8-0.5l-1.2-0.8c0,0-0.3-0.1-0.3-0.1
			c-0.5,0.1-1.5,0.7-1.8,1.2c0,0.1-0.1,0.1-0.1,0.2c0,0.1,0,0.2,0.1,0.3l0.1,0.2l0.1,0.1c0.6,0.6,2,1.5,3.4,2.3l1.6,0.9l2.5,1.4
			c0,0,0.4,0.3,0.4,0.3l0.3,0.2c0,0,0,0,0,0c-0.7,0.4-4.5,3-4.5,3l-2.4,1.6c-0.2,0.2-1.2,0.6-1.4,0.7c-0.5,0.2-0.9,0.5-1.1,0.9
			l-0.1,0.1l0.1,0.1l0.2,0.1c0,0,0.2,0.2,0.2,0.2l0.3,0.2l0.2,0c0.4,0,1-0.2,2.2-0.7c1.1-0.5,3.9-2.2,5.2-2.9l0.5-0.3
			c0.2,0,0.5-0.2,0.7-0.3c0.2-0.2,0.8-0.5,1.1-0.7c0,0,0.2-0.1,0.4-0.2c0,0.1,0,0.1,0,0.1c0,3.8,0.3,6.5,0.7,8.6l0,0l0,0.1
			c0.2,0.3,0.4,1.2,0.6,2l0.5,1.6c0,0,0.1,0.1,0.1,0.1c0.3,0.2,1.1,0.5,1.6,0.4l0.1,0l0.1-0.2c0-0.2,0.1-0.5,0.1-0.7
			c0-0.3,0-0.6,0-1l0-0.6c-0.2-2.6-0.3-6.4-0.3-8.9v-0.2c0.5,0.3,2.4,1.5,2.4,1.5c3.3,2.2,8.4,5.4,11.4,6.3c0.2,0,0.3,0,0.4-0.1
			c0,0,0.5-0.3,0.5-0.3l0.1,0c0.2-0.1,0.3-0.4,0.3-0.7c2.6-0.1,6.1-1.1,8-3.5c0.7-0.9,1.1-2.1,1.1-3C46.1,19.6,45.9,18.9,45.5,18.6"
			/>
		<path class="st1" d="M127.2,15.9h-6.5v-5.3h6.5V15.9z M129.5,8.5h-11.1v9.4h11.1V8.5z"/>
		<polygon class="st1" points="107.6,16.3 107.6,19.3 114.4,19.3 114.4,26.9 112.1,26.9 112.1,21.3 98.3,21.3 98.3,19.3 105.2,19.3 
			105.2,16.3 96.8,16.3 96.8,14.3 112,14.3 112,10.2 98.5,10.2 98.5,8.2 114.3,8.2 114.3,14.3 116,14.3 116,16.3 		"/>
		<polygon class="st1" points="135.3,26.9 120.5,26.9 120.5,20 122.9,20 122.9,24.8 135.3,24.8 		"/>
		<rect x="132.8" y="8.1" class="st1" width="2.3" height="12.3"/>
		<polygon class="st1" points="54.9,8.2 57.9,8.2 57.9,16.6 67.9,8.2 72.1,8.2 61.5,16.7 73,26.9 68.8,26.9 57.9,16.9 57.9,26.9 
			54.9,26.9 		"/>
		<path class="st1" d="M75.1,8.3h9.2c4.4,0,6.7,1.5,6.7,4.6c0,2.3-1.6,3.8-3.7,4.2v0.1c3,0.4,4.4,2.3,4.4,4.5c0,2.8-2,5.2-7.1,5.2
			h-9.5V8.3z M78.1,16.2h6.1c2.2,0,3.9-0.9,3.9-2.8c0-1.7-0.8-2.9-4.3-2.9h-5.7V16.2z M78.1,24.8h5.9c3.7,0,4.6-1.4,4.6-3.2
			c0-2.1-1.5-3.3-4.8-3.3h-5.7V24.8z"/>
		<polygon class="st1" points="137.5,8.6 137.5,10.6 145.9,10.6 145.9,13.4 137.5,13.4 137.5,15.4 145.9,15.4 145.9,20.8 
			148.3,20.8 148.3,8.6 		"/>
		<rect x="157.2" y="23.6" class="st1" width="17.9" height="2"/>
		<polygon class="st1" points="161.4,10.6 173.2,10.6 173.2,8.6 159.1,8.6 159.1,19.4 173.2,19.4 173.2,17.4 161.4,17.4 		"/>
		<polygon class="st1" points="151.1,26.9 153.5,26.9 153.5,14.9 155.9,14.9 155.9,12.9 153.5,12.9 153.5,8.2 151.1,8.2 		"/>
	</g>
</g>
</svg>
