<?xml version="1.0" encoding="utf-8"?>
<!-- Generator: Adobe Illustrator 21.0.0, SVG Export Plug-In . SVG Version: 6.00 Build 0)  -->
<svg version="1.1" id="레이어_4" xmlns="http://www.w3.org/2000/svg" xmlns:xlink="http://www.w3.org/1999/xlink" x="0px"
	 y="0px" viewBox="0 0 183 36" style="enable-background:new 0 0 183 36;" xml:space="preserve">
<style type="text/css">
	.st0{fill:#FFFFFF;}
</style>
<g>
	<path class="st0" d="M180.1,10c-1.3-7.3-23.3-9.6-49.3-5.1c-10.9,1.9-20.7,4.7-28.4,7.8c1.2,0,2.1,0.3,2.6,0.8
		c0.4,0.4,0.6,1,0.6,1.7V16h-2.5v-0.6c0-0.5-0.3-0.9-0.9-0.9c-0.5,0-0.8,0.2-0.9,0.6c0,0.1,0,0.3,0,0.5c0.3,1.1,4,1.8,4.5,3.9
		c0.1,0.3,0.1,0.8,0,1.6c-0.2,1.7-1.7,2.3-3.5,2.3c-2.6,0-3.6-1.2-3.6-2.9v-0.8h2.7v1c0,0.6,0.4,0.9,1,0.9c0.5,0,0.8-0.2,0.9-0.6
		c0-0.2,0.1-0.5,0-0.7c-0.5-1.3-4-1.9-4.5-3.9c-0.1-0.5-0.1-0.9,0-1.3c0-0.3,0.1-0.5,0.2-0.7c-8.5,4-13.5,8.3-12.8,12.1
		c1.3,7.3,23.3,9.6,49.3,5.1c11.4-2,21.6-5,29.4-8.3c-0.1,0-0.2,0-0.3,0c-1.8,0-3.4-0.7-3.5-2.5c0-0.3,0-0.5,0-0.7v-4.2
		c0-0.2,0-0.5,0-0.7c0.2-1.8,1.6-2.5,3.5-2.5c1.5,0,3.3,0.4,3.5,2.5c0,0.3,0,0.5,0,0.6l0,0v0.4h-2.6v-0.6l0,0c0,0,0-0.2,0-0.4
		s-0.2-0.7-1-0.7c-0.7,0-0.9,0.5-1,0.7c0,0.1,0,0.3,0,0.5v4.5c0,0.2,0,0.3,0,0.4s0.1,0.7,1,0.7c0.8,0,1-0.6,1-0.7s0-0.3,0-0.4v-1.4
		h-1v-1.5h3.6V20c0,0.2,0,0.3,0,0.7c0,0.5-0.2,0.9-0.4,1.2C176,18,180.8,13.7,180.1,10 M112.9,23l-1.3-8.8l0,0l-1.3,8.8h-2.7l1.8-10
		h4.5l1.8,10H112.9z M126.1,23l-0.1-8.7l0,0l-1.6,8.7h-2.6l-1.6-8.7l0,0l-0.1,8.7h-2.6l0.2-10h4.1l1.2,7.4h0.1l1.2-7.4h4.1l0.2,10
		H126.1z M138.1,21.1c-0.3,1.9-2.2,2.3-3.5,2.3c-2.2,0-3.6-1-3.6-2.9v-0.8h2.7v1c0,0.5,0.4,0.9,1,0.9c0.5,0,0.8-0.2,0.9-0.6
		c0-0.2,0.1-0.5,0-0.7c-0.5-1.2-4-1.8-4.4-3.9c-0.1-0.5-0.1-0.8,0-1.3c0.3-1.8,2.1-2.2,3.5-2.2c1.3,0,2.2,0.3,2.7,0.8
		c0.4,0.4,0.6,1,0.6,1.7V16h-2.5v-0.6c0-0.5-0.3-0.9-0.9-0.9c-0.5,0-0.8,0.2-0.9,0.6c0,0.1,0,0.3,0,0.5c0.3,1.1,4,1.8,4.4,3.8
		C138.1,19.7,138.2,20.3,138.1,21.1 M147.4,20.2c0,0.2,0,0.6,0,0.7c-0.2,1.6-1.3,2.5-3.5,2.5s-3.3-0.8-3.5-2.5c0-0.1,0-0.5,0-0.7V13
		h2.6v7.4c0,0.2,0,0.3,0,0.4c0,0.2,0.2,0.7,0.9,0.7s0.9-0.5,0.9-0.7c0-0.1,0-0.2,0-0.4V13h2.6V20.2z M158.5,22.9h-3.6l-2.4-7.9l0,0
		l0.1,7.9h-2.5V13h3.7l2.2,7.6l0,0V13h2.5V22.9z"/>
	<rect x="53.8" y="23.6" class="st0" width="14.1" height="2.1"/>
	<rect x="56.5" y="17.8" class="st0" width="10.2" height="2.1"/>
	<rect x="56.5" y="8.9" class="st0" width="10.2" height="2.1"/>
	<polygon class="st0" points="55.1,8.9 55.1,19.9 57.6,19.9 57.6,10.9 57.6,10.9 57.6,8.9 	"/>
	<polygon class="st0" points="14.6,8.3 14.6,18.4 17.1,18.4 17.1,14.4 19.2,14.4 19.2,12.3 17.1,12.3 17.1,8.3 	"/>
	<path class="st0" d="M5.4,19.3h11.7v8.3H5.4V19.3z M14.7,21.3H7.8v4.2h6.9C14.7,25.5,14.7,21.3,14.7,21.3z"/>
	<polygon class="st0" points="34,8.3 34,18.4 31.5,18.4 31.5,14.4 28.3,14.4 28.3,12.3 31.5,12.3 31.5,8.3 	"/>
	<path class="st0" d="M27.8,28.1c-3.6,0-6.5-2.1-6.5-4.7s2.9-4.7,6.5-4.7s6.5,2.1,6.5,4.7S31.4,28.1,27.8,28.1 M31.9,23.4
		c0-1.4-1.8-2.6-4-2.6s-4,1.2-4,2.6s1.8,2.6,4,2.6S31.9,24.8,31.9,23.4"/>
	<path class="st0" d="M8.8,8.7c0,0-0.3,5.5,4.1,7.7l-1.3,1.8c0,0-3.2-2.1-4-4.5c-0.7,2.3-4,4.5-4,4.5l-1.3-1.8
		c4.4-2.3,4.1-7.7,4.1-7.7H8.8z"/>
	<path class="st0" d="M24.1,13.7C23.4,16,20.4,18,20.4,18l-1.3-1.8c4.2-2.1,3.8-7.6,3.8-7.6h2.3c0,0-0.3,5.5,3.8,7.6L27.9,18
		C27.9,18,24.9,16,24.1,13.7"/>
	<path class="st0" d="M36.9,8.9v2h6.2c0,0,0.4,9-6.9,11.7l1,2c0,0,8.6-2.2,8.1-15.6L36.9,8.9L36.9,8.9z"/>
	<rect x="47.8" y="8.3" class="st0" width="2.4" height="19.2"/>
	<rect x="49.1" y="14.1" class="st0" width="3.4" height="2.1"/>
	<rect x="37" y="14.2" class="st0" width="6" height="2"/>
</g>
</svg>
