<?xml version="1.0" encoding="utf-8"?>
<!-- Generator: Adobe Illustrator 21.0.0, SVG Export Plug-In . SVG Version: 6.00 Build 0)  -->
<svg version="1.1" id="레이어_3" xmlns="http://www.w3.org/2000/svg" xmlns:xlink="http://www.w3.org/1999/xlink" x="0px"
	 y="0px" viewBox="0 0 183 36" style="enable-background:new 0 0 183 36;" xml:space="preserve">
<style type="text/css">
	.st0{clip-path:url(#SVGID_2_);fill:url(#SVGID_3_);}
	.st1{fill:#FFFFFF;}
</style>
<g>
	<g>
		<g>
			<defs>
				<path id="SVGID_1_" d="M48.5,29.8c-1.5-0.2-3.3-0.6-4.9-2c-1.5-1.3-2.4-3-2.8-4.5c-0.4-1.6-0.6-3.4,0.1-3.2c0.2,0,0.6,1,1,1.8
					c0.4,0.7,0.8,1.2,1.1,1.4c0.2,0.1,0.7-1,1.4-1.7c0.4-0.4,0.9-0.5,1,0.6c0.1,1.3-0.1,2.9,0.2,2.9c0.4,0,1.2-0.3,3-0.4
					c0.7-0.1,1.1,0.1,0.4,1c-0.3,0.5-0.7,1.1-1.8,1.8c1.5,1.4,3.3,1.3,3.4,1.9c0,0.3-0.7,0.5-1.6,0.5C48.9,29.9,48.7,29.9,48.5,29.8
					 M53.6,17c-1.4-0.3-1.7-1.6-1.7-1.6c-0.1-0.4-0.1-1,0-1.7c0.2-1.5,0.6-2.2,1.1-3.4c0.6-1.6-0.9-2.5-0.6-3.1
					c0.3-0.8,1.4,0.2,2.6,0.3c1,0.1,1.7,0,2.5,0.1c1.1,0.1,2.3,0.5,2.9,1.2c0.5,0.6-0.3,1.4-1.2,0.9c-0.7-0.3-1.6-0.1-1.1,0.6
					c0.6,0.7,0.9,0.7,1.6,0.9c1.7,0.5,1.8,2.1,0.6,3c-1.3,1-2.7,0.6-3.3-1.4c-0.3-1-1-1.5-1.7-1.2s-0.3,1.5,0.2,2.7
					c0.9,2.3-0.9,2.6-1.6,2.6C53.7,17,53.6,17,53.6,17 M52.6,30.3c0-0.3,0.4-0.4,0.4-0.4c4.1-0.8,2.9-3.5,1.4-4.8
					c-0.6-0.6-6.3-5.5-6.3-5.5c-5.4-4.6-5-8.3-5-8.3c0.3-4.5,4.2-5.6,7.1-5.3c0.3,0,0.5,0.2,0.5,0.5c-0.1,0.3-0.5,0.3-0.5,0.3
					c-0.9,0.1-1.8,0.2-2.4,0.6c-2.4,1.6-1.7,4.3,1.5,7.4c0.4,0.4,0.8,0.8,1.3,1.2c0,0,0.6,0.6,1.9,1.8c2.4,2.2,3.8,3.5,3.8,3.5
					c4.3,3.6,2.8,6.9,1.2,8c-1.3,0.9-2.6,1.3-4.5,1.4l0,0C52.8,30.6,52.6,30.5,52.6,30.3 M50.9,4.5c-7.6,0.3-13.4,6.8-13.1,14.3
					c0.3,7.6,6.8,13.4,14.3,13.1c7.6-0.3,13.4-6.8,13.1-14.3C65,10.2,58.9,4.5,51.6,4.4C51.4,4.4,51.2,4.5,50.9,4.5"/>
			</defs>
			<clipPath id="SVGID_2_">
				<use xlink:href="#SVGID_1_"  style="overflow:visible;"/>
			</clipPath>
			
				<radialGradient id="SVGID_3_" cx="-324.0157" cy="-281.894" r="0.9693" gradientTransform="matrix(29.6803 0 0 -29.6803 9670.5986 -8352.1387)" gradientUnits="userSpaceOnUse">
				<stop  offset="0" style="stop-color:#21ACDC"/>
				<stop  offset="0.2191" style="stop-color:#1588C2"/>
				<stop  offset="0.2835" style="stop-color:#1076B5"/>
				<stop  offset="0.3714" style="stop-color:#0B64A8"/>
				<stop  offset="0.4649" style="stop-color:#0859A0"/>
				<stop  offset="0.573" style="stop-color:#07569E"/>
				<stop  offset="1" style="stop-color:#07569E"/>
			</radialGradient>
			<rect x="37.5" y="4.4" class="st0" width="28.1" height="27.8"/>
		</g>
	</g>
	<g>
		<path class="st1" d="M75.2,11.7c0-0.6,0-1-0.4-1.3C74.5,10,74.7,9.8,75,9.8h3.2v2.5c0,2.5,2.4,3.9,4.6,4.6L82,18.4
			c-0.2,0.4-1.2,0.3-2.8-0.7c-0.9-0.6-1.8-1.3-2.4-2.1c-0.7,1-1.6,1.8-2.6,2.5c-1.1,0.7-2.6,1.5-2.9,1l-0.9-1.6c2.5-1,4.6-2.6,4.6-5
			v-0.8H75.2z M87.5,24.8v2.1H76.8c-2.3,0-3.2-0.6-3.2-2.5v-2.7c0-0.4-0.1-0.7-0.4-1c-0.2-0.3-0.1-0.5,0.2-0.5h3.2V24
			c0,0.6,0.2,0.8,0.8,0.8H87.5z M84.2,21.1v-9.8c0-0.7-0.1-1-0.5-1.4c-0.2-0.3-0.1-0.5,0.2-0.5h3.2v11.7H84.2z"/>
		<path class="st1" d="M93.7,10.9c0-0.7,0-1-0.4-1.4C93.1,9.2,93.2,9,93.5,9h3.2v2h4.3v2.1h-2c0.6,0.7,0.9,1.5,0.9,2.4
			c0,2.4-1.7,4.2-4.9,4.2c-3.1,0-4.9-1.8-4.9-4.2c0-1,0.3-1.8,0.9-2.4h-2V11h4.6v-0.1H93.7z M105.7,24.8v2.1H95.1
			c-2.3,0-3.2-0.6-3.2-2.5v-2c0-0.4-0.1-0.7-0.4-1c-0.2-0.3-0.1-0.5,0.2-0.5h3.2V24c0,0.6,0.2,0.7,0.8,0.7L105.7,24.8L105.7,24.8z
			 M95.1,17.6c1.3,0,2-1,2-2.2c0-1.3-0.7-2.3-2-2.3s-2,1-2,2.3C93,16.6,93.8,17.6,95.1,17.6 M102.5,21.4v-10c0-0.7-0.1-1-0.4-1.4
			c-0.2-0.3-0.1-0.5,0.2-0.5h3.2v4.4h2.1V16h-2.1v5.4H102.5z"/>
		<path class="st1" d="M118.1,13.5c0,3.7-1.2,6.5-3.6,8.9c-2.6,2.6-3.9,2.8-4.3,2.4l-1.2-1.5c2.7-1.6,4.6-3.4,5.5-5.9h-6v-2.1h6.5
			c0.1-0.7,0.1-1.4,0.1-2.1v-0.9h-6.2v-2.1h8.7c0.3,0,0.5,0.2,0.5,0.4V13.5z M120.8,27.1V11.4c0-0.7-0.1-1-0.4-1.4
			c-0.2-0.3-0.1-0.5,0.2-0.5h3.2v6.1h2.4v2.2h-2.4v9.4h-3V27.1z"/>
		<path class="st1" d="M144.7,25.5h-17.9v-2.1h17.9V25.5z M128.5,10.3h14v2.1h-10.7v4.3c0,0.7,0.2,1.2,1.1,1.2h9.6V20h-10.3
			c-2.2,0-3.5-0.7-3.5-2.6v-5.1c0-0.7-0.1-1-0.5-1.4C128.1,10.6,128.2,10.3,128.5,10.3"/>
	</g>
</g>
</svg>
