<?xml version="1.0" encoding="utf-8"?>
<!-- Generator: Adobe Illustrator 16.0.3, SVG Export Plug-In . SVG Version: 6.00 Build 0)  -->
<!DOCTYPE svg PUBLIC "-//W3C//DTD SVG 1.1//EN" "http://www.w3.org/Graphics/SVG/1.1/DTD/svg11.dtd">
<svg version="1.1" id="레이어_5" xmlns="http://www.w3.org/2000/svg" xmlns:xlink="http://www.w3.org/1999/xlink" x="0px"
	 y="0px" width="26px" height="25px" viewBox="0 0 26 25" enable-background="new 0 0 26 25" xml:space="preserve">
<g>
	<g>
		<circle fill="#FFFFFF" cx="7.292" cy="12.646" r="1.793"/>
		<g>
			<defs>
				<circle id="SVGID_1_" cx="7.294" cy="12.646" r="1.709"/>
			</defs>
			<use xlink:href="#SVGID_1_"  overflow="visible" fill="#007BC6"/>
			<clipPath id="SVGID_2_">
				<use xlink:href="#SVGID_1_"  overflow="visible"/>
			</clipPath>
		</g>
		<g>
			<defs>
				<circle id="SVGID_3_" cx="7.294" cy="12.646" r="1.708"/>
			</defs>
			<clipPath id="SVGID_4_">
				<use xlink:href="#SVGID_3_"  overflow="visible"/>
			</clipPath>
			<g clip-path="url(#SVGID_4_)">
				<g>
					<path fill="#007BC6" d="M7.309,13.47c0.752,0,1.395,0.21,1.671,0.508c0.092-0.212,0.143-0.447,0.143-0.691
						c0-0.981-0.813-1.774-1.813-1.774c-1,0-1.813,0.794-1.813,1.775c0,0.244,0.051,0.479,0.143,0.69
						C5.915,13.68,6.559,13.47,7.309,13.47z"/>
					<path fill="#027DC7" d="M7.309,13.472c0.75,0,1.391,0.208,1.667,0.504c0.091-0.21,0.142-0.443,0.142-0.686
						c0-0.974-0.81-1.763-1.809-1.763c-0.998,0-1.808,0.791-1.808,1.764c0,0.242,0.051,0.475,0.142,0.685
						C5.918,13.68,6.561,13.472,7.309,13.472z"/>
					<path fill="#037FC9" d="M7.309,13.474c0.748,0,1.388,0.206,1.662,0.5c0.092-0.209,0.142-0.44,0.142-0.681
						c0-0.966-0.808-1.751-1.804-1.751c-0.995,0-1.804,0.786-1.804,1.752c0,0.24,0.052,0.471,0.143,0.68
						C5.922,13.68,6.563,13.474,7.309,13.474z"/>
					<path fill="#0581CA" d="M7.308,13.476c0.746,0,1.384,0.204,1.658,0.495c0.091-0.207,0.142-0.437,0.142-0.675
						c0-0.958-0.806-1.739-1.8-1.739c-0.992,0-1.799,0.782-1.799,1.74c0,0.238,0.051,0.467,0.142,0.674
						C5.925,13.68,6.564,13.476,7.308,13.476z"/>
					<path fill="#0784CB" d="M7.308,13.478c0.744,0,1.38,0.203,1.654,0.491c0.091-0.205,0.142-0.433,0.142-0.67
						c0-0.949-0.805-1.727-1.795-1.727c-0.99,0-1.794,0.778-1.794,1.729c0,0.236,0.05,0.463,0.141,0.668
						C5.928,13.681,6.566,13.478,7.308,13.478z"/>
					<path fill="#0986CD" d="M7.308,13.479c0.743,0,1.376,0.201,1.649,0.487c0.091-0.203,0.141-0.429,0.141-0.664
						c0-0.941-0.802-1.715-1.791-1.715c-0.987,0-1.789,0.774-1.789,1.716c0,0.235,0.05,0.46,0.141,0.663
						C5.932,13.681,6.568,13.479,7.308,13.479z"/>
					<path fill="#0A88CE" d="M7.308,13.481c0.74,0,1.373,0.2,1.646,0.483c0.09-0.202,0.14-0.426,0.14-0.658
						c0-0.934-0.8-1.704-1.786-1.704c-0.984,0-1.785,0.771-1.785,1.704c0,0.232,0.051,0.456,0.141,0.658
						C5.936,13.682,6.569,13.481,7.308,13.481z"/>
					<path fill="#0C8ACF" d="M7.307,13.483c0.738,0,1.37,0.198,1.641,0.479c0.091-0.2,0.14-0.422,0.14-0.652
						c0-0.926-0.797-1.692-1.781-1.692c-0.982,0-1.78,0.767-1.78,1.692c0,0.231,0.05,0.452,0.14,0.652
						C5.938,13.682,6.571,13.483,7.307,13.483z"/>
					<path fill="#0E8CD1" d="M7.307,13.485c0.737,0,1.366,0.196,1.637,0.475c0.09-0.198,0.14-0.418,0.14-0.647
						c0-0.918-0.796-1.68-1.777-1.68c-0.979,0-1.775,0.763-1.775,1.681c0,0.229,0.05,0.448,0.14,0.646
						C5.942,13.682,6.572,13.485,7.307,13.485z"/>
					<path fill="#108ED2" d="M7.307,13.487c0.735,0,1.363,0.194,1.632,0.471c0.09-0.196,0.14-0.415,0.14-0.642
						c0-0.91-0.794-1.668-1.772-1.668c-0.977,0-1.771,0.759-1.771,1.668c0,0.228,0.049,0.445,0.139,0.642
						C5.945,13.682,6.575,13.487,7.307,13.487z"/>
					<path fill="#1190D3" d="M7.307,13.489c0.732,0,1.359,0.192,1.628,0.466c0.09-0.194,0.14-0.41,0.14-0.636
						c0-0.902-0.792-1.656-1.768-1.656c-0.974,0-1.767,0.755-1.767,1.657c0,0.225,0.051,0.44,0.14,0.635
						C5.948,13.682,6.576,13.489,7.307,13.489z"/>
					<path fill="#1392D5" d="M7.306,13.49c0.731,0,1.356,0.191,1.624,0.463c0.09-0.193,0.139-0.407,0.139-0.631
						c0-0.894-0.79-1.644-1.763-1.644c-0.971,0-1.761,0.751-1.761,1.645c0,0.224,0.05,0.437,0.139,0.63
						C5.952,13.682,6.578,13.49,7.306,13.49z"/>
					<path fill="#1595D6" d="M7.306,13.493c0.729,0,1.352,0.189,1.619,0.458c0.09-0.191,0.139-0.404,0.139-0.625
						c0-0.886-0.788-1.633-1.758-1.633c-0.969,0-1.757,0.747-1.757,1.633c0,0.222,0.049,0.434,0.139,0.625
						C5.955,13.683,6.58,13.493,7.306,13.493z"/>
					<path fill="#1797D7" d="M7.306,13.495c0.727,0,1.348,0.188,1.615,0.454c0.089-0.189,0.139-0.4,0.139-0.619
						c0-0.879-0.786-1.621-1.754-1.621c-0.966,0-1.752,0.743-1.752,1.621c0,0.22,0.049,0.43,0.138,0.619
						C5.959,13.683,6.581,13.495,7.306,13.495z"/>
					<path fill="#1899D9" d="M7.306,13.497c0.725,0,1.345,0.186,1.611,0.45c0.089-0.188,0.138-0.396,0.138-0.614
						c0-0.87-0.783-1.609-1.749-1.609c-0.964,0-1.748,0.739-1.748,1.609c0,0.218,0.05,0.426,0.139,0.614
						C5.962,13.683,6.583,13.497,7.306,13.497z"/>
					<path fill="#1A9BDA" d="M7.305,13.498c0.723,0,1.341,0.185,1.606,0.446C9,13.758,9.05,13.552,9.05,13.336
						c0-0.862-0.781-1.597-1.745-1.597c-0.961,0-1.743,0.735-1.743,1.597c0,0.216,0.049,0.422,0.138,0.608
						C5.965,13.683,6.584,13.498,7.305,13.498z"/>
					<path fill="#1C9DDB" d="M7.305,13.5c0.721,0,1.338,0.184,1.603,0.442c0.088-0.185,0.137-0.39,0.137-0.603
						c0-0.854-0.779-1.586-1.74-1.586c-0.958,0-1.738,0.732-1.738,1.586c0,0.214,0.049,0.418,0.137,0.603
						C5.969,13.684,6.586,13.5,7.305,13.5z"/>
					<path fill="#1E9FDC" d="M7.305,13.502c0.72,0,1.335,0.182,1.599,0.438c0.088-0.182,0.137-0.385,0.137-0.597
						c0-0.846-0.777-1.573-1.735-1.573c-0.956,0-1.733,0.728-1.733,1.574c0,0.211,0.049,0.414,0.137,0.596
						C5.972,13.684,6.588,13.502,7.305,13.502z"/>
					<path fill="#1FA1DE" d="M7.305,13.504c0.717,0,1.331,0.18,1.594,0.434c0.088-0.181,0.137-0.382,0.137-0.592
						c0-0.838-0.775-1.561-1.73-1.561c-0.954,0-1.729,0.723-1.729,1.562c0,0.21,0.048,0.41,0.136,0.591
						C5.976,13.684,6.59,13.504,7.305,13.504z"/>
					<path fill="#21A3DF" d="M7.304,13.506c0.715,0,1.328,0.178,1.589,0.43c0.089-0.179,0.137-0.378,0.137-0.586
						c0-0.831-0.772-1.55-1.726-1.55c-0.951,0-1.724,0.72-1.724,1.55c0,0.208,0.049,0.407,0.136,0.586
						C5.979,13.684,6.592,13.506,7.304,13.506z"/>
					<path fill="#23A6E0" d="M7.304,13.508c0.713,0,1.324,0.176,1.585,0.426c0.087-0.178,0.136-0.375,0.136-0.58
						c0-0.823-0.771-1.539-1.721-1.539c-0.948,0-1.72,0.716-1.72,1.539c0,0.205,0.048,0.402,0.136,0.58
						C5.982,13.684,6.593,13.508,7.304,13.508z"/>
					<path fill="#25A8E2" d="M7.304,13.51c0.712,0,1.32,0.174,1.581,0.422c0.088-0.176,0.136-0.371,0.136-0.575
						c0-0.815-0.769-1.526-1.717-1.526c-0.945,0-1.715,0.712-1.715,1.526c0,0.204,0.048,0.399,0.136,0.575
						C5.985,13.684,6.595,13.51,7.304,13.51z"/>
					<path fill="#26AAE3" d="M7.304,13.512c0.709,0,1.317,0.173,1.576,0.417c0.088-0.174,0.136-0.367,0.136-0.569
						c0-0.807-0.767-1.514-1.712-1.514c-0.943,0-1.71,0.708-1.71,1.514c0,0.203,0.048,0.396,0.135,0.569
						C5.989,13.685,6.597,13.512,7.304,13.512z"/>
					<path fill="#28ACE4" d="M7.303,13.514c0.708,0,1.313,0.171,1.572,0.413c0.087-0.172,0.135-0.363,0.135-0.563
						c0-0.799-0.765-1.503-1.708-1.503c-0.94,0-1.706,0.704-1.706,1.503c0,0.2,0.048,0.392,0.135,0.563
						C5.992,13.685,6.599,13.514,7.303,13.514z"/>
					<path fill="#2AAEE6" d="M7.303,13.516c0.706,0,1.31,0.17,1.568,0.409c0.087-0.171,0.135-0.36,0.135-0.559
						c0-0.791-0.763-1.491-1.703-1.491c-0.938,0-1.701,0.7-1.701,1.491c0,0.198,0.048,0.388,0.135,0.559
						C5.996,13.686,6.6,13.516,7.303,13.516z"/>
					<path fill="#2CB0E7" d="M7.303,13.518c0.704,0,1.307,0.168,1.563,0.405c0.087-0.169,0.135-0.357,0.135-0.553
						c0-0.783-0.761-1.479-1.699-1.479c-0.935,0-1.696,0.696-1.696,1.479c0,0.195,0.048,0.384,0.134,0.553
						C5.999,13.686,6.602,13.518,7.303,13.518z"/>
					<path fill="#2DB2E8" d="M7.303,13.52c0.702,0,1.303,0.166,1.56,0.4c0.086-0.166,0.134-0.353,0.134-0.547
						c0-0.775-0.758-1.468-1.694-1.468c-0.933,0-1.692,0.693-1.692,1.468c0,0.194,0.047,0.381,0.134,0.547
						C6.002,13.686,6.603,13.52,7.303,13.52z"/>
					<path fill="#2FB4EA" d="M7.302,13.521c0.7,0,1.299,0.164,1.555,0.396c0.087-0.165,0.134-0.35,0.134-0.542
						c0-0.767-0.756-1.455-1.689-1.455c-0.93,0-1.687,0.688-1.687,1.455c0,0.192,0.048,0.377,0.134,0.542
						C6.006,13.686,6.605,13.521,7.302,13.521z"/>
					<path fill="#31B7EB" d="M7.302,13.523c0.698,0,1.295,0.162,1.551,0.393c0.086-0.164,0.133-0.346,0.133-0.536
						c0-0.759-0.754-1.444-1.684-1.444c-0.927,0-1.683,0.685-1.683,1.444c0,0.19,0.047,0.372,0.133,0.536
						C6.009,13.686,6.606,13.523,7.302,13.523z"/>
					<path fill="#33B9EC" d="M7.302,13.525c0.696,0,1.292,0.16,1.547,0.389c0.086-0.162,0.133-0.343,0.133-0.531
						c0-0.751-0.752-1.432-1.68-1.432c-0.924,0-1.678,0.681-1.678,1.432c0,0.188,0.047,0.369,0.133,0.531
						C6.012,13.686,6.608,13.525,7.302,13.525z"/>
					<path fill="#34BBEE" d="M7.302,13.527c0.694,0,1.289,0.159,1.542,0.384c0.086-0.16,0.133-0.338,0.133-0.525
						c0-0.743-0.75-1.419-1.675-1.419c-0.922,0-1.673,0.677-1.673,1.419c0,0.188,0.047,0.365,0.133,0.525
						C6.016,13.687,6.61,13.527,7.302,13.527z"/>
					<path fill="#36BDEF" d="M7.301,13.529c0.692,0,1.285,0.157,1.538,0.38c0.086-0.158,0.133-0.335,0.133-0.52
						c0-0.735-0.748-1.408-1.671-1.408c-0.919,0-1.668,0.673-1.668,1.408c0,0.185,0.047,0.361,0.132,0.52
						C6.019,13.687,6.612,13.529,7.301,13.529z"/>
					<path fill="#3CBFF0" d="M7.302,13.534c0.691,0,1.283,0.156,1.536,0.377c0.086-0.157,0.133-0.333,0.133-0.517
						c0-0.73-0.747-1.399-1.668-1.399c-0.918,0-1.667,0.669-1.667,1.399c0,0.184,0.047,0.359,0.132,0.517
						C6.021,13.69,6.613,13.534,7.302,13.534z"/>
					<path fill="#43C1F0" d="M7.301,13.538c0.691,0,1.282,0.155,1.534,0.375c0.085-0.156,0.132-0.331,0.132-0.513
						c0-0.726-0.746-1.391-1.667-1.391c-0.917,0-1.664,0.665-1.664,1.391c0,0.182,0.047,0.356,0.132,0.513
						C6.022,13.693,6.614,13.538,7.301,13.538z"/>
					<path fill="#49C3F1" d="M7.301,13.542c0.689,0,1.28,0.154,1.532,0.373c0.085-0.155,0.132-0.329,0.132-0.51
						c0-0.721-0.745-1.382-1.664-1.382c-0.916,0-1.662,0.662-1.662,1.382c0,0.181,0.047,0.354,0.132,0.51
						C6.024,13.696,6.614,13.542,7.301,13.542z"/>
					<path fill="#50C6F1" d="M7.301,13.547c0.688,0,1.278,0.153,1.53,0.37c0.085-0.154,0.132-0.326,0.132-0.506
						c0-0.717-0.745-1.374-1.662-1.374c-0.915,0-1.66,0.657-1.66,1.373c0,0.181,0.047,0.353,0.132,0.507
						C6.026,13.7,6.615,13.547,7.301,13.547z"/>
					<path fill="#56C8F2" d="M7.302,13.551c0.688,0,1.276,0.152,1.528,0.368c0.084-0.153,0.132-0.324,0.132-0.503
						c0-0.711-0.743-1.365-1.66-1.365c-0.914,0-1.657,0.653-1.657,1.365c0,0.179,0.046,0.35,0.131,0.503
						C6.028,13.703,6.617,13.552,7.302,13.551z"/>
					<path fill="#5DCAF2" d="M7.301,13.556c0.687,0,1.275,0.151,1.525,0.365c0.085-0.152,0.132-0.322,0.132-0.499
						c0-0.708-0.742-1.357-1.657-1.357c-0.912,0-1.655,0.649-1.655,1.357c0,0.177,0.046,0.347,0.131,0.499
						C6.029,13.707,6.617,13.556,7.301,13.556z"/>
					<path fill="#63CCF3" d="M7.301,13.56c0.685,0,1.272,0.15,1.523,0.362c0.085-0.15,0.132-0.319,0.132-0.495
						c0-0.703-0.741-1.348-1.655-1.348c-0.911,0-1.653,0.646-1.653,1.347c0,0.177,0.047,0.346,0.131,0.496
						C6.031,13.71,6.618,13.56,7.301,13.56z"/>
					<path fill="#6ACEF3" d="M7.302,13.564c0.685,0,1.271,0.148,1.521,0.359c0.085-0.149,0.132-0.316,0.132-0.492
						c0-0.697-0.74-1.339-1.652-1.339c-0.91,0-1.651,0.642-1.651,1.339c0,0.176,0.046,0.343,0.131,0.492
						C6.033,13.713,6.62,13.564,7.302,13.564z"/>
					<path fill="#70D0F4" d="M7.302,13.568c0.684,0,1.27,0.148,1.519,0.357c0.084-0.148,0.131-0.314,0.131-0.488
						c0-0.692-0.739-1.33-1.65-1.33c-0.909,0-1.648,0.638-1.648,1.33c0,0.174,0.047,0.34,0.131,0.488
						C6.035,13.717,6.621,13.568,7.302,13.568z"/>
					<path fill="#77D2F4" d="M7.302,13.572c0.683,0,1.268,0.147,1.517,0.355c0.084-0.147,0.131-0.313,0.131-0.484
						c0-0.689-0.738-1.322-1.647-1.322c-0.907,0-1.646,0.633-1.646,1.321c0,0.173,0.046,0.338,0.131,0.485
						C6.036,13.72,6.621,13.573,7.302,13.572z"/>
					<path fill="#7DD4F5" d="M7.302,13.576c0.682,0,1.266,0.146,1.515,0.354c0.084-0.147,0.13-0.311,0.13-0.482
						c0-0.683-0.737-1.313-1.645-1.313c-0.907,0-1.645,0.63-1.645,1.313c0,0.172,0.046,0.335,0.13,0.482
						C6.037,13.723,6.622,13.577,7.302,13.576z"/>
					<path fill="#84D7F5" d="M7.302,13.581c0.681,0,1.264,0.146,1.513,0.351c0.084-0.146,0.131-0.309,0.131-0.479
						c0-0.679-0.736-1.305-1.644-1.305c-0.905,0-1.642,0.626-1.642,1.305c0,0.17,0.046,0.333,0.13,0.479
						C6.04,13.727,6.623,13.582,7.302,13.581z"/>
					<path fill="#8AD9F6" d="M7.302,13.586c0.68,0,1.263,0.145,1.511,0.348c0.084-0.145,0.131-0.306,0.131-0.475
						c0-0.674-0.735-1.296-1.642-1.296c-0.904,0-1.639,0.622-1.639,1.295c0,0.17,0.046,0.331,0.129,0.476
						C6.042,13.73,6.625,13.586,7.302,13.586z"/>
					<path fill="#91DBF6" d="M7.302,13.59c0.679,0,1.261,0.144,1.509,0.346c0.083-0.145,0.13-0.304,0.13-0.472
						c0-0.669-0.734-1.288-1.639-1.288c-0.903,0-1.638,0.619-1.638,1.287c0,0.169,0.046,0.328,0.13,0.473
						C6.043,13.733,6.625,13.59,7.302,13.59z"/>
					<path fill="#97DDF7" d="M7.302,13.594c0.678,0,1.258,0.143,1.506,0.344c0.083-0.144,0.13-0.302,0.13-0.469
						c0-0.664-0.733-1.279-1.636-1.279c-0.902,0-1.635,0.615-1.635,1.279c0,0.167,0.046,0.325,0.129,0.469
						C6.044,13.736,6.626,13.595,7.302,13.594z"/>
					<path fill="#9EDFF7" d="M7.302,13.599c0.677,0,1.257,0.142,1.504,0.341c0.084-0.143,0.13-0.3,0.13-0.465
						c0-0.66-0.732-1.271-1.634-1.271c-0.9,0-1.633,0.61-1.633,1.27c0,0.166,0.046,0.323,0.129,0.466
						C6.046,13.74,6.627,13.6,7.302,13.599z"/>
					<path fill="#A4E1F8" d="M7.302,13.604c0.676,0,1.255,0.14,1.502,0.338c0.083-0.142,0.13-0.298,0.13-0.462
						c0-0.654-0.73-1.261-1.632-1.261c-0.899,0-1.631,0.607-1.631,1.261c0,0.164,0.046,0.32,0.129,0.462
						C6.048,13.743,6.628,13.604,7.302,13.604z"/>
					<path fill="#ABE3F8" d="M7.302,13.607c0.675,0,1.253,0.139,1.5,0.336c0.083-0.141,0.13-0.295,0.13-0.459
						c0-0.65-0.73-1.252-1.63-1.252c-0.898,0-1.628,0.603-1.628,1.252c0,0.164,0.046,0.318,0.128,0.459
						C6.05,13.746,6.629,13.608,7.302,13.607z"/>
					<path fill="#B1E5F9" d="M7.302,13.612c0.674,0,1.252,0.138,1.498,0.333c0.083-0.14,0.129-0.293,0.129-0.455
						c0-0.646-0.729-1.244-1.627-1.244c-0.897,0-1.626,0.599-1.626,1.244c0,0.162,0.046,0.315,0.128,0.455
						C6.052,13.75,6.63,13.612,7.302,13.612z"/>
					<path fill="#B8E8F9" d="M7.302,13.616c0.673,0,1.25,0.138,1.496,0.331c0.083-0.139,0.129-0.291,0.129-0.451
						c0-0.641-0.728-1.236-1.625-1.236c-0.896,0-1.624,0.595-1.624,1.234c0,0.162,0.045,0.314,0.128,0.453
						C6.053,13.754,6.631,13.617,7.302,13.616z"/>
					<path fill="#BEEAFA" d="M7.302,13.62c0.671,0,1.248,0.137,1.494,0.329c0.082-0.137,0.129-0.289,0.129-0.448
						c0-0.637-0.728-1.227-1.623-1.227s-1.622,0.59-1.622,1.226c0,0.16,0.045,0.313,0.128,0.449
						C6.055,13.757,6.632,13.621,7.302,13.62z"/>
					<path fill="#C5ECFA" d="M7.302,13.625c0.671,0,1.246,0.135,1.492,0.326c0.083-0.137,0.129-0.287,0.129-0.445
						c0-0.631-0.726-1.218-1.621-1.218c-0.894,0-1.619,0.587-1.619,1.217c0,0.159,0.045,0.31,0.128,0.446
						C6.057,13.76,6.633,13.626,7.302,13.625z"/>
					<path fill="#CBEEFB" d="M7.302,13.629c0.67,0,1.244,0.135,1.489,0.324c0.082-0.135,0.128-0.285,0.128-0.441
						c0-0.627-0.725-1.21-1.618-1.21c-0.893,0-1.617,0.583-1.617,1.209c0,0.157,0.045,0.308,0.127,0.442
						C6.058,13.764,6.634,13.63,7.302,13.629z"/>
					<path fill="#D2F0FB" d="M7.302,13.634c0.669,0,1.243,0.133,1.488,0.32c0.083-0.134,0.128-0.281,0.128-0.438
						c0-0.622-0.724-1.201-1.616-1.201c-0.891,0-1.614,0.579-1.614,1.2c0,0.157,0.045,0.305,0.127,0.438
						C6.06,13.767,6.635,13.634,7.302,13.634z"/>
					<path fill="#D8F2FC" d="M7.302,13.638c0.667,0,1.241,0.133,1.485,0.318c0.083-0.133,0.128-0.279,0.128-0.434
						c0-0.618-0.723-1.193-1.613-1.193c-0.89,0-1.613,0.575-1.613,1.192c0,0.155,0.045,0.302,0.127,0.435
						C6.062,13.771,6.636,13.639,7.302,13.638z"/>
					<path fill="#DFF4FC" d="M7.302,13.643c0.667,0,1.24,0.131,1.483,0.315c0.082-0.132,0.128-0.277,0.128-0.431
						c0-0.612-0.722-1.184-1.611-1.184c-0.888,0-1.61,0.571-1.61,1.183c0,0.154,0.046,0.3,0.127,0.432
						C6.063,13.773,6.637,13.643,7.302,13.643z"/>
					<path fill="#E5F6FD" d="M7.302,13.646c0.666,0,1.238,0.13,1.481,0.313c0.082-0.131,0.128-0.275,0.128-0.427
						c0-0.608-0.721-1.176-1.609-1.176c-0.888,0-1.608,0.567-1.608,1.174c0,0.153,0.045,0.298,0.127,0.429
						C6.065,13.776,6.638,13.647,7.302,13.646z"/>
					<path fill="#ECF9FD" d="M7.302,13.65c0.666,0,1.236,0.13,1.479,0.312c0.082-0.13,0.128-0.273,0.128-0.424
						c0-0.604-0.72-1.167-1.607-1.167c-0.886,0-1.605,0.563-1.605,1.166c0,0.151,0.045,0.295,0.126,0.425
						C6.066,13.78,6.638,13.651,7.302,13.65z"/>
					<path fill="#F2FBFE" d="M7.302,13.655c0.664,0,1.234,0.128,1.477,0.309c0.082-0.129,0.128-0.271,0.128-0.421
						c0-0.598-0.719-1.158-1.604-1.158s-1.604,0.56-1.604,1.157c0,0.15,0.045,0.293,0.127,0.422
						C6.068,13.783,6.639,13.656,7.302,13.655z"/>
					<path fill="#F9FDFE" d="M7.302,13.659c0.664,0,1.232,0.128,1.475,0.307c0.082-0.128,0.127-0.269,0.127-0.418
						c0-0.593-0.718-1.148-1.603-1.148c-0.883,0-1.601,0.555-1.601,1.147c0,0.15,0.045,0.291,0.126,0.419
						C6.07,13.787,6.64,13.66,7.302,13.659z"/>
					<path fill="#FFFFFF" d="M7.302,13.664c0.662,0,1.23,0.126,1.473,0.304c0.081-0.127,0.127-0.267,0.127-0.414
						c0-0.589-0.717-1.141-1.6-1.141s-1.599,0.552-1.599,1.14c0,0.148,0.045,0.288,0.126,0.415
						C6.072,13.79,6.641,13.665,7.302,13.664z"/>
				</g>
			</g>
		</g>
		<path fill="#007BC6" d="M7.293,13.077c-0.579,0-1.117,0.099-1.561,0.266c0.267,0.597,0.865,1.012,1.562,1.012
			c0.695,0,1.293-0.416,1.561-1.012C8.411,13.176,7.873,13.077,7.293,13.077z"/>
	</g>
	<g>
		<g>
			<polygon fill="#FFFFFF" points="9.551,13.157 10.681,13.157 10.681,14.131 11.124,14.131 11.124,13.157 12.253,13.157 
				12.253,12.882 9.551,12.882 			"/>
			<path fill="#FFFFFF" d="M10.212,12.423c0.088,0.067,0.191,0.121,0.309,0.16c0.117,0.04,0.245,0.06,0.381,0.06
				c0.134,0,0.261-0.02,0.378-0.06c0.117-0.039,0.222-0.093,0.31-0.16c0.088-0.07,0.159-0.152,0.211-0.245
				c0.052-0.092,0.078-0.192,0.078-0.299c0-0.104-0.026-0.202-0.078-0.296c-0.052-0.092-0.123-0.174-0.211-0.244
				c-0.088-0.067-0.192-0.122-0.31-0.162c-0.116-0.041-0.244-0.061-0.378-0.061c-0.136,0-0.264,0.021-0.381,0.061
				c-0.117,0.04-0.221,0.095-0.309,0.163c-0.089,0.069-0.159,0.151-0.209,0.244c-0.051,0.093-0.077,0.191-0.077,0.295
				c0,0.106,0.026,0.207,0.077,0.299C10.053,12.271,10.124,12.353,10.212,12.423z M10.369,11.879c0-0.063,0.015-0.126,0.042-0.186
				c0.028-0.06,0.066-0.111,0.114-0.154c0.048-0.046,0.104-0.083,0.169-0.108c0.064-0.026,0.135-0.04,0.208-0.04
				c0.072,0,0.142,0.014,0.205,0.04c0.064,0.025,0.121,0.063,0.17,0.108c0.047,0.043,0.086,0.096,0.115,0.155
				c0.029,0.059,0.044,0.121,0.044,0.185c0,0.066-0.015,0.13-0.044,0.189c-0.029,0.059-0.067,0.111-0.116,0.155
				c-0.048,0.046-0.104,0.081-0.168,0.106c-0.131,0.051-0.288,0.049-0.414,0c-0.063-0.025-0.12-0.061-0.169-0.106
				c-0.048-0.044-0.086-0.097-0.114-0.155C10.383,12.009,10.369,11.945,10.369,11.879z"/>
			<path fill="#FFFFFF" d="M14.656,11.168h-0.344l0.021,0.026c0.008,0.011,0.014,0.021,0.016,0.035
				c0.01,0.042,0.016,0.108,0.016,0.197v1.371c0,0.086-0.051,0.143-0.154,0.176c-0.033,0.01-0.088,0.018-0.16,0.021h-0.937
				c-0.05,0-0.066-0.011-0.071-0.018c-0.01-0.014-0.015-0.034-0.015-0.063v-0.546h0.81c0.049,0,0.08-0.01,0.1-0.03
				c0.018-0.019,0.027-0.048,0.027-0.087v-0.88c0-0.038-0.01-0.067-0.029-0.087s-0.053-0.029-0.102-0.029H12.57v0.275h0.954v0.563
				h-0.985l0.029,0.061c0.012,0.034,0.018,0.077,0.018,0.127v0.789c0,0.05,0.017,0.093,0.051,0.128
				c0.047,0.048,0.121,0.073,0.223,0.073h1.106l0.176-0.007c0.104-0.011,0.178-0.03,0.225-0.058v0.893h0.441v-2.812
				C14.807,11.234,14.781,11.171,14.656,11.168z"/>
			<path fill="#FFFFFF" d="M15.84,12.357c0.084,0.066,0.184,0.118,0.295,0.156s0.234,0.058,0.361,0.058
				c0.125,0,0.246-0.02,0.357-0.058s0.211-0.09,0.295-0.156c0.084-0.065,0.152-0.144,0.201-0.23
				c0.051-0.089,0.076-0.184,0.076-0.283s-0.025-0.194-0.076-0.283c-0.049-0.087-0.117-0.165-0.201-0.23s-0.184-0.118-0.295-0.156
				c-0.111-0.039-0.232-0.058-0.357-0.058c-0.127,0-0.248,0.02-0.361,0.058c-0.111,0.038-0.211,0.091-0.295,0.156
				s-0.15,0.144-0.199,0.23c-0.049,0.089-0.074,0.184-0.074,0.283s0.025,0.194,0.074,0.282
				C15.688,12.214,15.756,12.292,15.84,12.357z M16.012,11.844c0-0.061,0.014-0.118,0.037-0.173
				c0.025-0.055,0.061-0.104,0.104-0.146c0.045-0.039,0.096-0.072,0.156-0.097c0.059-0.025,0.121-0.038,0.188-0.038
				s0.129,0.013,0.186,0.038c0.059,0.024,0.109,0.058,0.154,0.097c0.043,0.042,0.078,0.091,0.105,0.146
				c0.025,0.055,0.039,0.113,0.039,0.173c0,0.062-0.014,0.121-0.039,0.176c-0.027,0.055-0.063,0.104-0.105,0.146
				c-0.045,0.039-0.096,0.071-0.154,0.096c-0.115,0.048-0.256,0.048-0.373,0c-0.061-0.024-0.111-0.057-0.156-0.096
				c-0.043-0.041-0.078-0.09-0.104-0.146C16.025,11.966,16.012,11.906,16.012,11.844z"/>
			<path fill="#FFFFFF" d="M15.145,13.06h0.371c0.029,0.004,0.051,0.018,0.066,0.044c0.006,0.011,0.01,0.027,0.012,0.048
				c0,0.023,0,0.047,0,0.07l0.002,0.677c0.004,0.054,0.021,0.096,0.051,0.127c0.045,0.049,0.121,0.073,0.223,0.073h1.615v-0.275
				h-1.365c-0.043,0-0.061-0.01-0.066-0.018c-0.01-0.014-0.016-0.035-0.016-0.063v-0.56c0-0.029-0.006-0.058-0.016-0.085
				c-0.004-0.014-0.012-0.026-0.02-0.038h1.846v-0.274h-2.703V13.06z"/>
			<path fill="#FFFFFF" d="M20.162,13.047c-0.08-0.059-0.178-0.107-0.287-0.144c-0.107-0.035-0.225-0.054-0.346-0.054
				c-0.123,0-0.24,0.019-0.35,0.054c-0.109,0.036-0.205,0.085-0.287,0.144c-0.082,0.062-0.148,0.134-0.193,0.215
				c-0.047,0.082-0.07,0.17-0.07,0.261c0,0.093,0.023,0.182,0.07,0.264c0.045,0.081,0.111,0.153,0.193,0.215
				c0.082,0.06,0.178,0.106,0.287,0.142s0.227,0.053,0.35,0.053c0.121,0,0.238-0.018,0.346-0.053
				c0.109-0.035,0.207-0.082,0.287-0.142c0.082-0.062,0.148-0.134,0.195-0.215c0.049-0.082,0.072-0.171,0.072-0.264
				c0-0.091-0.023-0.179-0.072-0.261C20.311,13.181,20.246,13.108,20.162,13.047z M19.988,13.522c0,0.056-0.012,0.107-0.037,0.154
				c-0.025,0.048-0.059,0.091-0.1,0.128c-0.043,0.035-0.092,0.063-0.146,0.084c-0.111,0.042-0.248,0.041-0.355,0
				c-0.055-0.021-0.104-0.049-0.145-0.084c-0.043-0.037-0.076-0.08-0.1-0.128c-0.023-0.047-0.035-0.099-0.035-0.154
				c0-0.053,0.012-0.104,0.035-0.151s0.057-0.091,0.1-0.127c0.041-0.036,0.09-0.064,0.145-0.087c0.057-0.021,0.115-0.032,0.18-0.032
				c0.063,0,0.121,0.011,0.176,0.032c0.055,0.022,0.104,0.051,0.146,0.086c0.041,0.037,0.074,0.08,0.1,0.128
				S19.988,13.47,19.988,13.522z"/>
			<path fill="#FFFFFF" d="M20.404,11.195c-0.018-0.019-0.051-0.027-0.1-0.027h-0.313l0.018,0.025
				c0.01,0.013,0.014,0.024,0.016,0.037c0.01,0.039,0.016,0.104,0.016,0.189v0.323h-0.139v-0.462c0-0.039-0.008-0.067-0.025-0.086
				c-0.02-0.019-0.053-0.027-0.102-0.027h-0.311l0.018,0.025c0.008,0.013,0.014,0.024,0.016,0.037
				c0.01,0.039,0.016,0.104,0.016,0.189v1.355h0.389v-0.74h0.139v0.74h0.389v-1.494C20.43,11.242,20.422,11.214,20.404,11.195z"/>
			<path fill="#FFFFFF" d="M18.938,12.765c0.088-0.035,0.164-0.084,0.23-0.146c0.064-0.06,0.117-0.132,0.156-0.214
				c0.037-0.083,0.057-0.172,0.057-0.264c0-0.093-0.02-0.181-0.057-0.263c-0.039-0.08-0.09-0.151-0.154-0.213h0.248v-0.275h-0.537
				v-0.174c0-0.079-0.043-0.12-0.125-0.12h-0.379l0.033,0.028c0.01,0.008,0.012,0.014,0.014,0.019
				c0.01,0.026,0.016,0.067,0.016,0.121v0.126h-0.537v0.275h0.244c-0.064,0.061-0.115,0.133-0.152,0.213
				c-0.037,0.082-0.055,0.17-0.055,0.263c0,0.092,0.018,0.181,0.055,0.264c0.037,0.082,0.09,0.154,0.154,0.214
				c0.066,0.062,0.143,0.11,0.23,0.146s0.182,0.053,0.281,0.053C18.756,12.817,18.85,12.8,18.938,12.765z M18.447,11.861
				c0.061-0.079,0.131-0.118,0.213-0.118s0.15,0.039,0.211,0.118c0.063,0.08,0.092,0.176,0.092,0.283
				c0,0.11-0.029,0.206-0.092,0.284c-0.059,0.078-0.129,0.117-0.211,0.117s-0.152-0.039-0.213-0.117s-0.092-0.174-0.092-0.284
				C18.355,12.037,18.387,11.941,18.447,11.861z"/>
		</g>
	</g>
</g>
</svg>
