<?xml version="1.0" encoding="utf-8"?>
<!-- Generator: Adobe Illustrator 21.0.0, SVG Export Plug-In . SVG Version: 6.00 Build 0)  -->
<svg version="1.1" id="레이어_5" xmlns="http://www.w3.org/2000/svg" xmlns:xlink="http://www.w3.org/1999/xlink" x="0px"
	 y="0px" viewBox="0 0 183 36" style="enable-background:new 0 0 183 36;" xml:space="preserve">
<style type="text/css">
	.st0{fill:#0062AC;}
	.st1{fill:#FFFFFF;}
</style>
<g>
	<g>
		<g>
			<g>
				<path class="st0" d="M50.5,6.4c-6.5,0-11.8,5.3-11.8,11.8c0,1,0.1,2,0.4,2.9h0.1c0.3,0,0.5-0.1,0.6-0.4c0-0.2,0-0.4-0.2-0.4
					c-0.3,0-0.3-0.1-0.4-0.2c0-0.1-0.1-0.2,0-0.2c0-0.2,0.2-0.3,0.4-0.3c0.1,0,0.2,0,0.2-0.1c0.1-0.2,0-0.5,0.1-0.6s0.4,0.1,0.6-0.1
					c0.1-0.2,0.2-0.6-0.2-0.6c-0.5-0.1-0.5-0.6-0.1-0.7c0.3,0,0.4,0.1,0.4,0.4c0,0.1,0,0.1,0,0.2l0.1,0.1c0.2,0,0.5,0,0.6-0.2
					c0-0.1,0-0.2,0-0.3c0,0,0-0.2-0.1-0.2c-0.2-0.1-0.4,0.1-0.5-0.2c0-0.1-0.1-0.1-0.1-0.2s0.1-0.2,0.1-0.3c0.1-0.1,0.2-0.1,0.3-0.1
					c0.2,0.1,0.2,0.2,0.2,0.4c0,0.1,0,0.1,0,0.2c0.1,0.1,0.2,0.1,0.3,0.1s0.2-0.1,0.3-0.2C42,17.1,42,17,42,16.9
					c0-0.4-0.3-0.2-0.5-0.3c-0.2-0.1-0.2-0.4-0.1-0.6c0.1-0.1,0.2-0.1,0.3-0.1S42,16,42,16.1s0,0.2,0,0.2c0,0.1,0,0.1,0,0.2
					c0.1,0.1,0.2,0.1,0.3,0.1s0.2,0,0.3-0.2c0.1-0.1,0.1-0.2,0.1-0.3c0-0.1,0-0.3-0.1-0.3c0,0-0.1,0-0.2,0c-0.2,0-0.4,0-0.5-0.2
					c0-0.1,0-0.2,0-0.3c0.1-0.2,0.5-0.3,0.7,0c0.1,0.1,0,0.4,0.1,0.5l0,0c0.1,0.1,0.4,0.1,0.5,0c0.4-0.1,0.1-0.5,0.3-0.7
					c0.2-0.1,0.5,0.1,0.7-0.1v-0.1c0-0.2,0-0.3,0.1-0.5c0.1-0.1,0.2-0.1,0.3-0.1s0.2,0,0.3,0.1s0,0.2,0,0.2c0,0.3,0.1,0.5,0.4,0.4
					c0.4,0,0.4-0.6,0.1-0.7c-0.1,0-0.2,0-0.3,0s-0.2-0.1-0.2-0.2c0-0.1,0-0.2,0-0.3c0-0.3,0.4-0.4,0.6-0.2c0.3,0.2,0,0.6,0.3,0.7
					c0.1,0,0.2,0,0.3,0c0.4-0.1,0.1-0.5,0.3-0.7c0.1-0.1,0.3-0.1,0.5-0.1c0.1,0,0.1,0,0.1,0.1s0,0.2,0,0.2c0,0.2,0.1,0.4,0.3,0.4
					s0.3,0,0.4-0.2c0.1-0.1,0.1-0.2,0.1-0.3c0-0.4-0.2-0.3-0.5-0.3c-0.1,0-0.1,0-0.2-0.1C47,13.2,47,13.1,47,13s0.1-0.2,0.2-0.3
					c0.1-0.1,0.2-0.1,0.3-0.1s0.2,0.1,0.3,0.2c0,0.2,0,0.3,0.1,0.5c0.1,0.1,0.5,0.1,0.6,0c0.1-0.2,0-0.4,0.2-0.6
					c0.1-0.1,0.1-0.1,0.2-0.1c0.3,0,0.4,0.1,0.4,0.4c0,0.1,0,0.2,0,0.2c0.1,0.2,0.4,0.2,0.5,0.1c0.1,0,0.1-0.1,0.2-0.1
					c0.1-0.2-0.1-0.4,0.2-0.6c0.1,0,0.1-0.1,0.2-0.1h0.1c0.1,0,0.1,0,0.2,0.1c0.2,0.1,0.1,0.4,0.2,0.6c0,0.1,0.1,0.1,0.2,0.1
					c0.1,0,0.5,0,0.5-0.1s0-0.1,0-0.2c0-0.3,0.1-0.4,0.4-0.4c0.1,0,0.2,0,0.2,0.1c0.2,0.2,0.1,0.5,0.2,0.6c0.1,0.2,0.4,0.2,0.6,0
					c0.2-0.2,0.1-0.3,0.1-0.5c0-0.1,0.2-0.2,0.3-0.2s0.2,0,0.3,0.1s0.2,0.2,0.2,0.3s0,0.2-0.1,0.3c0,0.1-0.1,0.1-0.2,0.1
					c-0.3,0-0.5-0.1-0.5,0.3c0,0.1,0,0.2,0.1,0.3s0.2,0.2,0.4,0.2s0.3-0.2,0.3-0.4c0-0.1,0-0.2,0-0.2c0-0.1,0.1-0.1,0.1-0.1
					c0.2,0,0.4,0,0.5,0.1c0.2,0.2-0.1,0.6,0.3,0.7c0.1,0,0.2,0,0.3,0c0.4-0.1,0-0.5,0.3-0.7c0.2-0.1,0.6-0.1,0.6,0.2
					c0,0.1,0,0.2,0,0.3s-0.1,0.1-0.2,0.2c-0.1,0-0.2,0-0.3,0c-0.3,0.1-0.4,0.7,0.1,0.7c0.3,0,0.4-0.1,0.4-0.4c0-0.1,0-0.2,0-0.2
					c0.1-0.1,0.2-0.1,0.3-0.1s0.2,0,0.3,0.1c0.2,0.1,0.1,0.3,0.1,0.5c0,0.1,0,0.1,0,0.1c0.1,0.2,0.5,0,0.7,0.1s-0.1,0.5,0.3,0.7
					c0.1,0.1,0.4,0.1,0.5,0l0,0c0.1-0.1,0-0.3,0.1-0.5s0.5-0.2,0.7,0c0,0.1,0,0.2,0,0.3c-0.1,0.2-0.2,0.2-0.5,0.2
					c-0.1,0-0.1,0-0.2,0c-0.1,0-0.1,0.2-0.1,0.3s0,0.2,0.1,0.3c0.1,0.1,0.2,0.2,0.3,0.2s0.3,0,0.3-0.1s0-0.1,0-0.2s0-0.2,0-0.2
					c0-0.1,0.2-0.2,0.3-0.2s0.2,0,0.3,0.1c0.1,0.2,0.1,0.5-0.1,0.6c-0.3,0.1-0.5-0.1-0.5,0.3c0,0.1,0,0.2,0.1,0.3
					c0.1,0.1,0.2,0.2,0.3,0.2s0.3,0,0.3-0.1c0,0,0-0.1,0-0.2c0-0.2,0-0.3,0.2-0.4c0.1,0,0.2,0,0.3,0.1s0.1,0.2,0.1,0.3
					c0,0.1,0,0.1-0.1,0.2c-0.2,0.2-0.4,0-0.5,0.2c-0.1,0-0.1,0.2-0.1,0.2c0,0.1,0,0.2,0,0.3c0.1,0.2,0.3,0.3,0.6,0.2l0.1-0.1
					c0-0.1,0-0.1,0-0.2c0-0.3,0.1-0.5,0.4-0.4c0.4,0.1,0.4,0.6-0.1,0.7c-0.4,0.1-0.3,0.5-0.2,0.6c0.2,0.2,0.4,0,0.6,0.1
					c0.2,0.2,0,0.5,0.1,0.6s0.1,0.1,0.2,0.1c0.2,0,0.4,0.1,0.4,0.3v0.2c0,0-0.1,0.1-0.4,0.2c-0.2,0-0.3,0.2-0.2,0.4
					c0,0.3,0.3,0.4,0.6,0.4h0.1c0.2-0.9,0.4-1.9,0.4-2.9C62.3,11.7,57,6.4,50.5,6.4z M39.5,18.8c-0.2,0-0.3-0.1-0.3-0.3
					c0-0.2,0.1-0.3,0.3-0.3s0.3,0.1,0.3,0.3C39.8,18.6,39.6,18.8,39.5,18.8z M40.1,16.4c-0.1,0-0.2-0.1-0.2-0.2S40,16,40.1,16
					c0.1,0,0.2,0.1,0.2,0.2C40.3,16.4,40.2,16.4,40.1,16.4z M40.9,15.7c-0.1,0-0.2-0.1-0.2-0.2c0-0.1,0.1-0.2,0.2-0.2
					c0.1,0,0.2,0.1,0.2,0.2C41.1,15.7,41,15.7,40.9,15.7z M41.6,15c-0.1,0-0.2-0.1-0.2-0.2c0-0.1,0.1-0.2,0.2-0.2
					c0.1,0,0.2,0.1,0.2,0.2C41.9,14.9,41.8,15,41.6,15z M42.4,14.3c-0.1,0-0.2-0.1-0.2-0.2c0-0.1,0.1-0.2,0.2-0.2
					c0.1,0,0.2,0.1,0.2,0.2C42.6,14.2,42.5,14.3,42.4,14.3z M43.1,13.2c0.1,0,0.2,0.1,0.2,0.2c0,0.1-0.1,0.2-0.2,0.2
					c-0.1,0-0.2-0.1-0.2-0.2C42.9,13.2,43,13.2,43.1,13.2z M43.1,15.2c-0.2,0-0.4-0.2-0.4-0.4s0.2-0.3,0.4-0.3s0.4,0.2,0.4,0.3
					C43.5,15,43.3,15.2,43.1,15.2z M43.8,14.4c-0.2,0-0.4-0.2-0.4-0.4s0.2-0.4,0.4-0.4s0.4,0.2,0.4,0.4S44,14.4,43.8,14.4z
					 M44.6,13.6c-0.2,0-0.3-0.1-0.3-0.3s0.1-0.3,0.3-0.3s0.3,0.1,0.3,0.3C44.9,13.5,44.8,13.6,44.6,13.6z M45.3,12.9
					c-0.1,0-0.3-0.1-0.3-0.3s0.1-0.3,0.3-0.3c0.1,0,0.3,0.1,0.3,0.3C45.6,12.7,45.5,12.9,45.3,12.9z M46.1,11.7
					c0.1,0,0.2,0.1,0.2,0.2c0,0.1-0.1,0.2-0.2,0.2c-0.1,0-0.2-0.1-0.2-0.2C45.9,11.7,46,11.7,46.1,11.7z M46.1,13.7
					c-0.2,0-0.4-0.2-0.4-0.3c0-0.2,0.2-0.4,0.4-0.4s0.4,0.2,0.4,0.4C46.4,13.5,46.3,13.7,46.1,13.7z M46.8,12.9
					c-0.2,0-0.3-0.1-0.3-0.3s0.1-0.3,0.3-0.3s0.3,0.1,0.3,0.3C47.1,12.8,47,12.9,46.8,12.9z M47.6,12.1c-0.1,0-0.3-0.1-0.3-0.3
					c0-0.1,0.1-0.3,0.3-0.3s0.3,0.1,0.3,0.3C47.8,12,47.7,12.1,47.6,12.1z M48.3,11c0.1,0,0.1,0.1,0.1,0.1c0,0.1-0.1,0.1-0.1,0.1
					c-0.1,0-0.1-0.1-0.1-0.1S48.2,11,48.3,11z M48.3,12.9c-0.2,0-0.4-0.2-0.4-0.4s0.2-0.4,0.4-0.4s0.3,0.2,0.3,0.4
					C48.7,12.8,48.5,12.9,48.3,12.9z M49,12.1c-0.2,0-0.3-0.1-0.3-0.3s0.1-0.3,0.3-0.3s0.3,0.1,0.3,0.3S49.2,12.1,49,12.1z M49.8,11
					c0.1,0,0.2,0.1,0.2,0.2c0,0.1-0.1,0.2-0.2,0.2c-0.1,0-0.2-0.1-0.2-0.2C49.6,11,49.7,11,49.8,11z M49.8,12.9
					c-0.2,0-0.4-0.2-0.4-0.4s0.2-0.4,0.4-0.4s0.4,0.2,0.4,0.4C50.1,12.8,50,12.9,49.8,12.9z M50.5,12.1L50.5,12.1
					c-0.2,0-0.3-0.1-0.3-0.3s0.1-0.3,0.3-0.3l0,0c0.1,0,0.3,0.1,0.3,0.3S50.7,12.1,50.5,12.1z M51.3,11c0.1,0,0.2,0.1,0.2,0.2
					c0,0.1-0.1,0.2-0.2,0.2c-0.1,0-0.2-0.1-0.2-0.2C51.1,11,51.2,11,51.3,11z M51.3,12.9c-0.2,0-0.4-0.2-0.4-0.4s0.2-0.4,0.4-0.4
					s0.4,0.2,0.4,0.4C51.6,12.8,51.5,12.9,51.3,12.9z M52.8,11c0.1,0,0.1,0.1,0.1,0.1c0,0.1-0.1,0.1-0.1,0.1c-0.1,0-0.1-0.1-0.1-0.1
					C52.6,11.1,52.7,11,52.8,11z M52,12.1c-0.2,0-0.3-0.1-0.3-0.3s0.1-0.3,0.3-0.3s0.3,0.1,0.3,0.3S52.2,12.1,52,12.1z M52.8,12.9
					c-0.2,0-0.3-0.2-0.3-0.4s0.1-0.4,0.3-0.4s0.4,0.2,0.4,0.4C53.1,12.8,53,12.9,52.8,12.9z M53.5,12.1c-0.2,0-0.3-0.1-0.3-0.3
					c0-0.1,0.1-0.3,0.3-0.3c0.1,0,0.3,0.1,0.3,0.3S53.6,12.1,53.5,12.1z M54.2,12.9c-0.2,0-0.3-0.1-0.3-0.3s0.1-0.3,0.3-0.3
					s0.3,0.1,0.3,0.3C54.6,12.8,54.4,12.9,54.2,12.9z M55,11.7c0.1,0,0.2,0.1,0.2,0.2c0,0.1-0.1,0.2-0.2,0.2c-0.1,0-0.2-0.1-0.2-0.2
					C54.8,11.7,54.9,11.7,55,11.7z M55,13.7c-0.2,0-0.4-0.2-0.4-0.3c0-0.2,0.2-0.4,0.4-0.4s0.4,0.2,0.4,0.4
					C55.3,13.5,55.2,13.7,55,13.7z M55.7,12.9c-0.1,0-0.3-0.1-0.3-0.3s0.1-0.3,0.3-0.3c0.1,0,0.3,0.1,0.3,0.3
					C56,12.7,55.9,12.9,55.7,12.9z M56.5,13.6c-0.2,0-0.3-0.1-0.3-0.3s0.1-0.3,0.3-0.3s0.3,0.1,0.3,0.3S56.6,13.6,56.5,13.6z
					 M57.2,14.4c-0.2,0-0.4-0.2-0.4-0.4s0.2-0.4,0.4-0.4s0.4,0.2,0.4,0.4C57.6,14.2,57.4,14.4,57.2,14.4z M57.9,13.2
					c0.1,0,0.2,0.1,0.2,0.2c0,0.1-0.1,0.2-0.2,0.2c-0.1,0-0.2-0.1-0.2-0.2C57.8,13.2,57.9,13.2,57.9,13.2z M57.9,15.2
					c-0.2,0-0.4-0.2-0.4-0.4s0.2-0.3,0.4-0.3s0.4,0.2,0.4,0.3C58.3,15,58.1,15.2,57.9,15.2z M58.7,14.3c-0.1,0-0.2-0.1-0.2-0.2
					c0-0.1,0.1-0.2,0.2-0.2c0.1,0,0.2,0.1,0.2,0.2S58.8,14.3,58.7,14.3z M59.4,15c-0.1,0-0.2-0.1-0.2-0.2c0-0.1,0.1-0.2,0.2-0.2
					c0.1,0,0.2,0.1,0.2,0.2C59.7,14.9,59.5,15,59.4,15z M60.2,15.7c-0.1,0-0.2-0.1-0.2-0.2c0-0.1,0.1-0.2,0.2-0.2
					c0.1,0,0.2,0.1,0.2,0.2C60.4,15.7,60.3,15.7,60.2,15.7z M60.9,16.4c-0.1,0-0.2-0.1-0.2-0.2s0.1-0.2,0.2-0.2
					c0.1,0,0.2,0.1,0.2,0.2C61.1,16.4,61,16.4,60.9,16.4z M61.6,18.8c-0.2,0-0.3-0.1-0.3-0.3c0-0.2,0.1-0.3,0.3-0.3s0.3,0.1,0.3,0.3
					C61.9,18.6,61.7,18.8,61.6,18.8z"/>
				<path class="st0" d="M50.5,21.2c-6.5,0-10.6,1.7-10.8,1.8l0,0l0,0c1.8,4.1,6,7,10.8,7s9-2.9,10.8-7l0,0l0,0
					C61,22.8,57,21.2,50.5,21.2z"/>
				<path class="st0" d="M62,21.1L62,21.1L62,21.1z"/>
			</g>
			<g>
				<path class="st0" d="M40.1,20.3c-0.2,0-0.3-0.2-0.3-0.3c0-0.2,0.1-0.3,0.3-0.3s0.3,0.2,0.3,0.3C40.5,20.1,40.3,20.3,40.1,20.3z"
					/>
				<ellipse class="st0" cx="40.1" cy="21.4" rx="0.2" ry="0.2"/>
				<path class="st0" d="M40.9,19.5c-0.2,0-0.3-0.1-0.3-0.3c0-0.2,0.1-0.3,0.3-0.3s0.3,0.1,0.3,0.3S41.1,19.5,40.9,19.5z"/>
				<ellipse class="st0" cx="40.9" cy="20.6" rx="0.1" ry="0.1"/>
				<path class="st0" d="M41.6,18.8c-0.2,0-0.3-0.1-0.3-0.3c0-0.2,0.1-0.3,0.3-0.3s0.3,0.1,0.3,0.3C41.9,18.6,41.8,18.8,41.6,18.8z"
					/>
				<ellipse class="st0" cx="41.6" cy="19.9" rx="0.1" ry="0.1"/>
				<path class="st0" d="M42.4,18c-0.2,0-0.3-0.1-0.3-0.3c0-0.1,0.1-0.3,0.3-0.3s0.3,0.1,0.3,0.3S42.5,18,42.4,18z"/>
				<ellipse class="st0" cx="42.4" cy="19.2" rx="0.1" ry="0.1"/>
				<path class="st0" d="M43.1,17.3c-0.2,0-0.3-0.2-0.3-0.3c0-0.2,0.1-0.3,0.3-0.3s0.3,0.2,0.3,0.3C43.4,17.2,43.3,17.3,43.1,17.3z"
					/>
				<ellipse class="st0" cx="43.1" cy="18.5" rx="0.1" ry="0.1"/>
				<path class="st0" d="M43.8,16.6c-0.2,0-0.3-0.2-0.3-0.3c0-0.2,0.2-0.4,0.3-0.4c0.2,0,0.3,0.2,0.3,0.4
					C44.2,16.4,44,16.6,43.8,16.6z"/>
				<path class="st0" d="M44,17.7c0,0.1-0.1,0.2-0.2,0.2c-0.1,0-0.2-0.1-0.2-0.2s0.1-0.2,0.2-0.2S44,17.6,44,17.7z"/>
				<path class="st0" d="M44.6,15.9c-0.2,0-0.4-0.1-0.4-0.4c0-0.2,0.2-0.4,0.4-0.4s0.4,0.1,0.4,0.4C45,15.7,44.8,15.9,44.6,15.9z"/>
				<path class="st0" d="M44.8,17c0,0.1-0.1,0.2-0.2,0.2c-0.1,0-0.2-0.1-0.2-0.2s0.1-0.2,0.2-0.2S44.8,16.9,44.8,17z"/>
				<path class="st0" d="M45.1,16.3c0-0.2,0.1-0.3,0.3-0.3s0.3,0.1,0.3,0.3c0,0.1-0.1,0.3-0.3,0.3C45.2,16.5,45.1,16.4,45.1,16.3z"
					/>
				<path class="st0" d="M46.1,15.8c-0.2,0-0.3-0.1-0.3-0.3s0.1-0.3,0.3-0.3s0.3,0.1,0.3,0.3C46.4,15.7,46.3,15.8,46.1,15.8z"/>
				<path class="st0" d="M46.2,16.9L46.1,17C46,17,46,16.9,46,16.9c0-0.1,0.1-0.1,0.1-0.1C46.1,16.8,46.2,16.9,46.2,16.9z"/>
				<path class="st0" d="M46.8,15.2c-0.2,0-0.4-0.2-0.4-0.4s0.2-0.3,0.4-0.3s0.4,0.2,0.4,0.3C47.2,15,47,15.2,46.8,15.2z"/>
				<path class="st0" d="M47,16.3c0,0.1-0.1,0.2-0.2,0.2c-0.1,0-0.2-0.1-0.2-0.2s0.1-0.2,0.2-0.2C46.9,16.1,47,16.2,47,16.3z"/>
				<path class="st0" d="M47.3,15.5c0-0.2,0.1-0.3,0.3-0.3s0.3,0.1,0.3,0.3s-0.1,0.3-0.3,0.3C47.4,15.8,47.3,15.7,47.3,15.5z"/>
				<path class="st0" d="M48.3,15.1c-0.2,0-0.3-0.2-0.3-0.4s0.1-0.3,0.3-0.3s0.3,0.2,0.3,0.3C48.6,15,48.5,15.1,48.3,15.1z"/>
				<path class="st0" d="M48.4,16.2c0,0.1-0.1,0.1-0.1,0.1c-0.1,0-0.1,0-0.1-0.1s0.1-0.1,0.1-0.1C48.3,16.1,48.4,16.2,48.4,16.2z"/>
				<path class="st0" d="M49,14.5c-0.2,0-0.4-0.2-0.4-0.4s0.2-0.4,0.4-0.4s0.4,0.2,0.4,0.4S49.3,14.5,49,14.5z"/>
				<path class="st0" d="M49.3,15.5c0,0.2-0.1,0.3-0.3,0.3c-0.1,0-0.3-0.1-0.3-0.3s0.1-0.3,0.3-0.3C49.2,15.3,49.3,15.4,49.3,15.5z"
					/>
				<path class="st0" d="M49.8,15.1c-0.2,0-0.3-0.2-0.3-0.3c0-0.2,0.1-0.3,0.3-0.3s0.3,0.1,0.3,0.3S50,15.1,49.8,15.1z"/>
				<path class="st0" d="M49.9,16.1C49.9,16.2,49.8,16.2,49.9,16.1c-0.1,0.1-0.2,0-0.2,0S49.7,16,49.9,16.1
					C49.8,16,49.9,16.1,49.9,16.1z"/>
				<path class="st0" d="M60.6,19.9c0-0.2,0.2-0.3,0.3-0.3c0.2,0,0.3,0.2,0.3,0.3c0,0.2-0.1,0.3-0.3,0.3
					C60.7,20.3,60.6,20.1,60.6,19.9z M60.9,21.3c0.1,0,0.2,0.1,0.2,0.2s-0.1,0.2-0.2,0.2c-0.1,0-0.2-0.1-0.2-0.2
					C60.8,21.3,60.8,21.3,60.9,21.3z M59.9,19.2c0-0.2,0.1-0.3,0.3-0.3s0.3,0.1,0.3,0.3c0,0.2-0.1,0.3-0.3,0.3S59.9,19.4,59.9,19.2z
					 M60.2,20.5c0.1,0,0.1,0.1,0.1,0.1c0,0.1,0,0.1-0.1,0.1s-0.1-0.1-0.1-0.1C60,20.6,60.1,20.5,60.2,20.5z M59.1,18.5
					c0-0.2,0.1-0.3,0.3-0.3s0.3,0.1,0.3,0.3c0,0.2-0.1,0.3-0.3,0.3C59.3,18.8,59.1,18.6,59.1,18.5z M59.4,19.8c0.1,0,0.1,0,0.1,0.1
					s0,0.1-0.1,0.1s-0.1,0-0.1-0.1C59.3,19.8,59.4,19.8,59.4,19.8z M58.4,17.7c0-0.1,0.1-0.3,0.3-0.3s0.3,0.1,0.3,0.3
					c0,0.2-0.1,0.3-0.3,0.3S58.4,17.9,58.4,17.7z M58.7,19.1C58.7,19.1,58.8,19.2,58.7,19.1c0.1,0.1,0,0.2,0,0.2
					C58.7,19.3,58.6,19.3,58.7,19.1C58.6,19.2,58.7,19.1,58.7,19.1z M57.6,17c0-0.2,0.1-0.3,0.3-0.3s0.3,0.2,0.3,0.3
					c0,0.2-0.1,0.3-0.3,0.3C57.8,17.3,57.6,17.2,57.6,17z M57.9,18.3c0.1,0,0.1,0.1,0.1,0.1c0,0.1-0.1,0.1-0.1,0.1
					c-0.1,0-0.1-0.1-0.1-0.1C57.8,18.4,57.9,18.3,57.9,18.3z M56.9,16.3c0-0.2,0.2-0.4,0.3-0.4c0.2,0,0.3,0.2,0.3,0.4
					c0,0.2-0.2,0.3-0.3,0.3C57,16.6,56.9,16.4,56.9,16.3z M57.2,17.5c0.1,0,0.2,0.1,0.2,0.2s-0.1,0.2-0.2,0.2
					c-0.1,0-0.2-0.1-0.2-0.2S57.1,17.5,57.2,17.5z M56.1,15.5c0-0.2,0.2-0.4,0.4-0.4s0.4,0.1,0.4,0.4c0,0.2-0.2,0.4-0.4,0.4
					S56.1,15.7,56.1,15.5z M56.5,16.8c0.1,0,0.2,0.1,0.2,0.2s-0.1,0.2-0.2,0.2c-0.1,0-0.2-0.1-0.2-0.2
					C56.2,16.9,56.3,16.8,56.5,16.8z M55.7,16.5c-0.2,0-0.3-0.1-0.3-0.3c0-0.2,0.1-0.3,0.3-0.3S56,16,56,16.2
					C56,16.4,55.9,16.5,55.7,16.5z M54.7,15.5c0-0.2,0.1-0.3,0.3-0.3s0.3,0.1,0.3,0.3s-0.1,0.3-0.3,0.3S54.7,15.7,54.7,15.5z
					 M55,16.8c0.1,0,0.1,0.1,0.1,0.1L55,17c-0.1,0-0.1-0.1-0.1-0.1S54.9,16.8,55,16.8z M53.9,14.8c0-0.2,0.2-0.3,0.4-0.3
					s0.4,0.2,0.4,0.3c0,0.2-0.2,0.4-0.4,0.4C54,15.2,53.9,15,53.9,14.8z M54.2,16.1c0.1,0,0.2,0.1,0.2,0.2s-0.1,0.2-0.2,0.2
					c-0.1,0-0.2-0.1-0.2-0.2C54.1,16.2,54.1,16.1,54.2,16.1z M53.5,15.8c-0.2,0-0.3-0.1-0.3-0.3s0.1-0.3,0.3-0.3s0.3,0.1,0.3,0.3
					S53.7,15.8,53.5,15.8z M52.4,14.8c0-0.2,0.1-0.3,0.3-0.3s0.3,0.2,0.3,0.3c0,0.2-0.1,0.4-0.3,0.4C52.6,15.1,52.4,15,52.4,14.8z
					 M52.8,16.1c0.1,0,0.1,0.1,0.1,0.1c0,0.1-0.1,0.1-0.1,0.1c-0.1,0-0.1,0-0.1-0.1C52.7,16.2,52.7,16.1,52.8,16.1z M51.6,14.1
					c0-0.2,0.2-0.4,0.4-0.4s0.4,0.2,0.4,0.4s-0.2,0.4-0.4,0.4S51.6,14.3,51.6,14.1z M52,15.3c0.1,0,0.3,0.1,0.3,0.3
					s-0.1,0.3-0.3,0.3s-0.3-0.1-0.3-0.3C51.8,15.4,51.9,15.3,52,15.3z M51,14.8c0-0.2,0.1-0.3,0.3-0.3s0.3,0.1,0.3,0.3
					s-0.1,0.3-0.3,0.3S51,15,51,14.8z M51.3,16C51.3,16,51.4,16.1,51.3,16c0.1,0.1,0,0.2,0,0.2C51.2,16.2,51.2,16.2,51.3,16
					C51.2,16.1,51.2,16,51.3,16z"/>
				<ellipse class="st0" cx="58.7" cy="19.2" rx="0.1" ry="0.1"/>
				<path class="st0" d="M55.1,16.9L55,17c-0.1,0-0.1-0.1-0.1-0.1c0-0.1,0.1-0.1,0.1-0.1C55.1,16.8,55.1,16.9,55.1,16.9z"/>
				<ellipse class="st0" cx="60.9" cy="21.4" rx="0.2" ry="0.2"/>
				<ellipse class="st0" cx="60.2" cy="20.6" rx="0.1" ry="0.1"/>
				<ellipse class="st0" cx="59.4" cy="19.9" rx="0.1" ry="0.1"/>
				<path class="st0" d="M57.4,17.7c0,0.1-0.1,0.2-0.2,0.2c-0.1,0-0.2-0.1-0.2-0.2s0.1-0.2,0.2-0.2C57.3,17.5,57.4,17.6,57.4,17.7z"
					/>
				<path class="st0" d="M56.7,17c0,0.1-0.1,0.2-0.2,0.2c-0.1,0-0.2-0.1-0.2-0.2s0.1-0.2,0.2-0.2C56.6,16.8,56.7,16.9,56.7,17z"/>
				<path class="st0" d="M51.6,14.1c0-0.2,0.2-0.4,0.4-0.4s0.4,0.2,0.4,0.4s-0.2,0.4-0.4,0.4S51.6,14.3,51.6,14.1z"/>
				<path class="st0" d="M50.1,14.1c0-0.2,0.2-0.4,0.4-0.4s0.4,0.2,0.4,0.4s-0.2,0.4-0.4,0.4S50.1,14.3,50.1,14.1z"/>
				<path class="st0" d="M51,14.8c0-0.2,0.1-0.3,0.3-0.3s0.3,0.1,0.3,0.3s-0.1,0.3-0.3,0.3S51,15,51,14.8z"/>
				<path class="st0" d="M52.4,14.8c0-0.2,0.1-0.3,0.3-0.3s0.3,0.2,0.3,0.3c0,0.2-0.1,0.4-0.3,0.4C52.6,15.1,52.4,15,52.4,14.8z"/>
				<path class="st0" d="M53.9,14.8c0-0.2,0.2-0.3,0.4-0.3s0.4,0.2,0.4,0.3c0,0.2-0.2,0.4-0.4,0.4C54,15.2,53.9,15,53.9,14.8z"/>
				<path class="st0" d="M56.1,15.5c0-0.2,0.2-0.4,0.4-0.4s0.4,0.1,0.4,0.4c0,0.2-0.2,0.4-0.4,0.4S56.1,15.7,56.1,15.5z"/>
				<path class="st0" d="M54.7,15.5c0-0.2,0.1-0.3,0.3-0.3s0.3,0.1,0.3,0.3s-0.1,0.3-0.3,0.3S54.7,15.7,54.7,15.5z"/>
				<path class="st0" d="M53.2,15.5c0-0.2,0.1-0.3,0.3-0.3s0.3,0.1,0.3,0.3s-0.1,0.3-0.3,0.3S53.2,15.7,53.2,15.5z"/>
				<path class="st0" d="M52.3,15.5c0,0.2-0.1,0.3-0.3,0.3s-0.3-0.1-0.3-0.3s0.1-0.3,0.3-0.3C52.2,15.3,52.3,15.4,52.3,15.5z"/>
				<path class="st0" d="M51.4,16.1C51.4,16.2,51.3,16.2,51.4,16.1c-0.1,0.1-0.2,0-0.2,0S51.2,16,51.4,16.1
					C51.3,16,51.4,16.1,51.4,16.1z"/>
				<path class="st0" d="M52.9,16.2c0,0.1-0.1,0.1-0.1,0.1c-0.1,0-0.1,0-0.1-0.1s0.1-0.1,0.1-0.1C52.8,16.1,52.9,16.2,52.9,16.2z"/>
				<path class="st0" d="M54.4,16.3c0,0.1-0.1,0.2-0.2,0.2c-0.1,0-0.2-0.1-0.2-0.2s0.1-0.2,0.2-0.2C54.3,16.1,54.4,16.2,54.4,16.3z"
					/>
				<path class="st0" d="M55.4,16.3c0-0.2,0.1-0.3,0.3-0.3s0.3,0.1,0.3,0.3c0,0.1-0.1,0.3-0.3,0.3C55.6,16.5,55.4,16.4,55.4,16.3z"
					/>
				<path class="st0" d="M56.9,16.3c0-0.2,0.2-0.4,0.3-0.4c0.2,0,0.3,0.2,0.3,0.4c0,0.2-0.2,0.3-0.3,0.3
					C57,16.6,56.9,16.4,56.9,16.3z"/>
				<path class="st0" d="M57.6,17c0-0.2,0.1-0.3,0.3-0.3s0.3,0.2,0.3,0.3c0,0.2-0.1,0.3-0.3,0.3C57.8,17.3,57.6,17.2,57.6,17z"/>
				<path class="st0" d="M60.6,19.9c0-0.2,0.2-0.3,0.3-0.3c0.2,0,0.3,0.2,0.3,0.3c0,0.2-0.1,0.3-0.3,0.3
					C60.7,20.3,60.6,20.1,60.6,19.9z"/>
				<path class="st0" d="M58.4,17.7c0-0.1,0.1-0.3,0.3-0.3s0.3,0.1,0.3,0.3c0,0.2-0.1,0.3-0.3,0.3S58.4,17.9,58.4,17.7z"/>
				<path class="st0" d="M59.9,19.2c0-0.2,0.1-0.3,0.3-0.3s0.3,0.1,0.3,0.3c0,0.2-0.1,0.3-0.3,0.3S59.9,19.4,59.9,19.2z"/>
				<path class="st0" d="M59.1,18.5c0-0.2,0.1-0.3,0.3-0.3s0.3,0.1,0.3,0.3c0,0.2-0.1,0.3-0.3,0.3C59.3,18.8,59.1,18.6,59.1,18.5z"
					/>
				<ellipse class="st0" cx="57.9" cy="18.5" rx="0.1" ry="0.1"/>
				<ellipse class="st0" cx="50.5" cy="15.5" rx="0.2" ry="0.2"/>
				<path class="st0" d="M39.5,22.4l0.1-0.1c0.1-0.2-0.1-0.4-0.3-0.4l0,0C39.4,22,39.4,22.2,39.5,22.4L39.5,22.4z"/>
				<path class="st0" d="M61.7,21.9c-0.2,0-0.4,0.2-0.3,0.4c0,0,0,0.1,0.1,0.1l0,0C61.6,22.2,61.7,22,61.7,21.9L61.7,21.9z"/>
			</g>
		</g>
	</g>
	<g>
		<g>
			<polygon class="st1" points="66.1,21.6 73.9,21.6 73.9,28.3 77,28.3 77,21.6 84.7,21.6 84.7,19.7 66.1,19.7 			"/>
			<path class="st1" d="M70.7,16.5c0.6,0.5,1.3,0.8,2.1,1.1c0.8,0.3,1.7,0.4,2.6,0.4s1.8-0.1,2.6-0.4c0.8-0.3,1.5-0.6,2.1-1.1
				s1.1-1,1.4-1.7c0.4-0.6,0.5-1.3,0.5-2.1c0-0.7-0.2-1.4-0.5-2C81.1,10.1,80.7,9.5,80,9c-0.6-0.5-1.3-0.8-2.1-1.1
				c-0.8-0.3-1.7-0.4-2.6-0.4s-1.8,0.1-2.6,0.4c-0.8,0.3-1.5,0.7-2.1,1.1c-0.6,0.5-1.1,1-1.4,1.7c-0.3,0.6-0.5,1.3-0.5,2
				s0.2,1.4,0.5,2.1C69.6,15.5,70.1,16,70.7,16.5z M71.8,12.8c0-0.4,0.1-0.9,0.3-1.3c0.2-0.4,0.5-0.8,0.8-1.1s0.7-0.6,1.2-0.7
				c0.4-0.2,0.9-0.3,1.4-0.3s1,0.1,1.4,0.3s0.8,0.4,1.2,0.7c0.3,0.3,0.6,0.7,0.8,1.1c0.2,0.4,0.3,0.8,0.3,1.3s-0.1,0.9-0.3,1.3
				c-0.2,0.4-0.5,0.8-0.8,1.1s-0.7,0.6-1.2,0.7c-0.9,0.4-2,0.3-2.8,0c-0.4-0.2-0.8-0.4-1.2-0.7c-0.3-0.3-0.6-0.7-0.8-1.1
				S71.8,13.2,71.8,12.8z"/>
			<path class="st1" d="M101.3,7.9h-2.4L99,8.1c0.1,0.1,0.1,0.2,0.1,0.2c0.1,0.3,0.1,0.7,0.1,1.4v9.4c0,0.6-0.3,1-1.1,1.2
				c-0.2,0.1-0.6,0.1-1.1,0.2h-6.5c-0.3,0-0.5-0.1-0.5-0.1c-0.1-0.1-0.1-0.2-0.1-0.4v-3.8h5.6c0.3,0,0.6-0.1,0.7-0.2
				s0.2-0.3,0.2-0.6V9.3c0-0.3-0.1-0.5-0.2-0.6s-0.4-0.2-0.7-0.2h-8.7v1.9h6.6v3.9h-6.8l0.2,0.4c0.1,0.2,0.1,0.5,0.1,0.9V21
				c0,0.3,0.1,0.6,0.4,0.9s0.8,0.5,1.5,0.5h7.6h1.2c0.7-0.1,1.2-0.2,1.5-0.4v6.1h3V8.7C102.3,8.3,102.1,7.9,101.3,7.9z"/>
			<path class="st1" d="M121.5,8.7c0-0.4-0.2-0.8-1-0.8h-2.3l0.2,0.4c0.1,0.3,0.1,0.8,0.1,1.4v18.4h3V16.2h2.9v-1.9h-2.9
				C121.5,14.3,121.5,8.7,121.5,8.7z"/>
			<path class="st1" d="M115.3,8.5H106v1.9h6.8c0.1,0,0.1,0,0.1,0.1c0,0,0,0,0,0.2c-0.1,1.2-0.3,2.3-0.7,3.4h-6.1V16h5.2
				c-1.3,2.2-3.3,4-6.1,5.4l-0.1,0.1l0.8,1.3h0.1c6.7-2.3,10.2-6.8,10.2-13.3C116.1,8.9,116,8.5,115.3,8.5z"/>
			<path class="st1" d="M127.3,9.5c0.1,0.3,0.2,0.6,0.2,1v6.9c0,0.4,0.1,0.8,0.4,1.1c0.4,0.4,0.9,0.6,1.7,0.6h12v-1.9h-10.5
				c-0.4,0-0.6-0.2-0.6-0.5V11h11V9H127l0.1,0.2C127.2,9.3,127.3,9.4,127.3,9.5z"/>
			<rect x="125.2" y="24" class="st1" width="18.6" height="1.9"/>
		</g>
	</g>
</g>
</svg>
