<?xml version="1.0" encoding="utf-8"?>
<!-- Generator: Adobe Illustrator 16.0.3, SVG Export Plug-In . SVG Version: 6.00 Build 0)  -->
<!DOCTYPE svg PUBLIC "-//W3C//DTD SVG 1.1//EN" "http://www.w3.org/Graphics/SVG/1.1/DTD/svg11.dtd">
<svg version="1.1" id="Layer_1" xmlns="http://www.w3.org/2000/svg" xmlns:xlink="http://www.w3.org/1999/xlink" x="0px" y="0px"
	 width="20px" height="17px" viewBox="0 0 20 17" enable-background="new 0 0 20 17" xml:space="preserve">
<g>
	
		<line fill="none" stroke="#232323" stroke-width="0.5" stroke-linecap="round" stroke-linejoin="round" stroke-miterlimit="10" x1="3.4" y1="15.1" x2="16.6" y2="15.1"/>
	
		<polyline fill="none" stroke="#232323" stroke-width="0.5" stroke-linecap="round" stroke-linejoin="round" stroke-miterlimit="10" points="
		5.201,14.899 5.201,1.9 14.801,1.9 14.801,6.98 	"/>
	
		<line fill="none" stroke="#01C5A7" stroke-width="0.5" stroke-linecap="round" stroke-linejoin="round" stroke-miterlimit="10" x1="7.601" y1="6.705" x2="7.601" y2="12.842"/>
	
		<line fill="none" stroke="#01C5A7" stroke-width="0.5" stroke-linecap="round" stroke-linejoin="round" stroke-miterlimit="10" x1="10.001" y1="6.705" x2="10.001" y2="12.842"/>
	
		<line fill="none" stroke="#01C5A7" stroke-width="0.5" stroke-linecap="round" stroke-linejoin="round" stroke-miterlimit="10" x1="12.4" y1="6.705" x2="12.4" y2="7.799"/>
	
		<line fill="none" stroke="#232323" stroke-width="0.5" stroke-linecap="round" stroke-linejoin="round" stroke-miterlimit="10" x1="5.201" y1="4.3" x2="14.801" y2="4.3"/>
	<g>
		
			<path fill="none" stroke="#232323" stroke-width="0.5" stroke-linecap="round" stroke-linejoin="round" stroke-miterlimit="10" d="
			M16.223,10.435c0,2.235-0.984,2.698-2.199,2.698c-1.217,0-2.201-0.463-2.201-2.698c0-2.233,0.984-3.302,2.201-3.302
			C15.238,7.133,16.223,8.201,16.223,10.435z"/>
		
			<line fill="none" stroke="#232323" stroke-width="0.5" stroke-linecap="round" stroke-linejoin="round" stroke-miterlimit="10" x1="14.023" y1="10.965" x2="14.023" y2="14.899"/>
	</g>
</g>
</svg>
