<?xml version="1.0" encoding="utf-8"?>
<!-- Generator: Adobe Illustrator 16.0.3, SVG Export Plug-In . SVG Version: 6.00 Build 0)  -->
<!DOCTYPE svg PUBLIC "-//W3C//DTD SVG 1.1//EN" "http://www.w3.org/Graphics/SVG/1.1/DTD/svg11.dtd">
<svg version="1.1" id="Layer_1" xmlns="http://www.w3.org/2000/svg" xmlns:xlink="http://www.w3.org/1999/xlink" x="0px" y="0px"
	 width="20px" height="17px" viewBox="0 0 20 17" enable-background="new 0 0 20 17" xml:space="preserve">
<g>
	<g>
		<path fill="#22DDB9" d="M10.202,11.373c-0.396,0-0.767-0.071-1.114-0.213c-0.348-0.143-0.648-0.342-0.903-0.598
			c-0.255-0.254-0.458-0.558-0.608-0.906c-0.149-0.352-0.225-0.73-0.225-1.141V8.5c0-0.4,0.074-0.775,0.221-1.125
			c0.147-0.35,0.35-0.656,0.607-0.916c0.259-0.26,0.565-0.465,0.921-0.611C9.456,5.7,9.844,5.626,10.265,5.626
			c0.285,0,0.543,0.028,0.773,0.083c0.231,0.055,0.444,0.135,0.636,0.236c0.191,0.104,0.365,0.225,0.521,0.367
			c0.154,0.143,0.293,0.299,0.414,0.467l-0.941,0.568c-0.09,0.059-0.542-0.035-0.73-0.15c-0.19-0.115-0.42-0.174-0.688-0.174
			c-0.194,0-0.372,0.039-0.533,0.115c-0.16,0.076-0.299,0.18-0.414,0.311C9.186,7.582,9.096,7.736,9.029,7.916
			C8.963,8.094,8.931,8.283,8.931,8.484V8.5c0,0.205,0.032,0.398,0.099,0.579C9.096,9.262,9.186,9.418,9.302,9.55
			c0.115,0.132,0.254,0.235,0.414,0.312c0.161,0.076,0.339,0.115,0.533,0.115c0.143,0,0.272-0.017,0.392-0.047
			c0.118-0.033,0.227-0.078,0.323-0.14s0.188-0.132,0.274-0.213c0.088-0.082,0.393-0.19,0.492-0.104l0.918,0.653
			c-0.131,0.179-0.275,0.345-0.431,0.497s-0.331,0.284-0.528,0.395c-0.197,0.111-0.418,0.197-0.664,0.262
			C10.782,11.342,10.507,11.373,10.202,11.373z"/>
	</g>
	
		<circle fill="none" stroke="#FFFFFF" stroke-linecap="round" stroke-linejoin="round" stroke-miterlimit="10" cx="10" cy="8.5" r="6.6"/>
</g>
</svg>
