<?xml version="1.0" encoding="utf-8"?>
<!-- Generator: Adobe Illustrator 16.0.3, SVG Export Plug-In . SVG Version: 6.00 Build 0)  -->
<!DOCTYPE svg PUBLIC "-//W3C//DTD SVG 1.1//EN" "http://www.w3.org/Graphics/SVG/1.1/DTD/svg11.dtd">
<svg version="1.1" id="Layer_1" xmlns="http://www.w3.org/2000/svg" xmlns:xlink="http://www.w3.org/1999/xlink" x="0px" y="0px"
	 width="20px" height="17px" viewBox="0 0 20 17" enable-background="new 0 0 20 17" xml:space="preserve">
<g>
	<path fill="none" stroke="#232323" stroke-width="0.5" stroke-linecap="round" stroke-linejoin="round" stroke-miterlimit="10" d="
		M16.875,1.384H3.616c-0.856,0-1.557,0.7-1.557,1.557v8.304c0,0.856,0.701,1.557,1.557,1.557h1.038v3.114H5.13l3.676-3.114h8.069
		c0.856,0,1.558-0.7,1.558-1.557V2.941C18.433,2.084,17.731,1.384,16.875,1.384z"/>
	<g>
		<g>
			
				<path fill="#D1D1D1" stroke="#232323" stroke-width="0.5" stroke-linecap="round" stroke-linejoin="round" stroke-miterlimit="10" d="
				M13.164,10.251L9.708,6.803c0,0-1.109,0.297-1.835-0.427c0,0-0.826-0.844-0.446-1.85l0.939,0.937l0.973-0.321l0.017-0.016
				l0.241-0.896L8.657,3.292c1.005-0.381,1.851,0.443,1.851,0.443c0.726,0.724,0.432,1.834,0.432,1.834l3.455,3.448
				c0,0,0.644,0.589,0.001,1.231C14.396,10.249,13.753,10.839,13.164,10.251z"/>
		</g>
		
			<path fill="#01C5A7" stroke="#232323" stroke-width="0.5" stroke-linecap="round" stroke-linejoin="round" stroke-miterlimit="10" d="
			M11.467,8.958c0-0.161-0.021-0.317-0.059-0.467l0.595-0.434L11.536,7.25l-0.672,0.298c-0.225-0.216-0.501-0.379-0.81-0.468
			L9.978,6.35H9.044L8.967,7.08c-0.309,0.089-0.584,0.252-0.81,0.468L7.485,7.25L7.019,8.058l0.594,0.434
			C7.576,8.641,7.555,8.797,7.555,8.958s0.021,0.317,0.058,0.467L7.019,9.858l0.467,0.808l0.672-0.298
			c0.225,0.216,0.501,0.379,0.81,0.468l0.077,0.73h0.934l0.077-0.73c0.309-0.089,0.585-0.252,0.81-0.468l0.672,0.298l0.467-0.808
			l-0.595-0.434C11.445,9.275,11.467,9.119,11.467,8.958z M9.511,9.879c-0.509,0-0.921-0.412-0.921-0.921s0.412-0.921,0.921-0.921
			s0.921,0.412,0.921,0.921S10.02,9.879,9.511,9.879z"/>
	</g>
</g>
</svg>
