<?xml version="1.0" encoding="utf-8"?>
<!-- Generator: Adobe Illustrator 16.0.3, SVG Export Plug-In . SVG Version: 6.00 Build 0)  -->
<!DOCTYPE svg PUBLIC "-//W3C//DTD SVG 1.1//EN" "http://www.w3.org/Graphics/SVG/1.1/DTD/svg11.dtd">
<svg version="1.1" id="Layer_1" xmlns="http://www.w3.org/2000/svg" xmlns:xlink="http://www.w3.org/1999/xlink" x="0px" y="0px"
	 width="20px" height="17px" viewBox="0 0 20 17" enable-background="new 0 0 20 17" xml:space="preserve">
<g>
	<g>
		
			<line fill="none" stroke="#22DDB9" stroke-linecap="round" stroke-linejoin="round" stroke-miterlimit="10" x1="8.223" y1="10.4" x2="11.911" y2="6.645"/>
		<circle fill="#22DDB9" cx="8.423" cy="6.821" r="0.757"/>
		<circle fill="#22DDB9" cx="11.71" cy="10.177" r="0.757"/>
	</g>
	<path fill="none" stroke="#FFFFFF" stroke-linecap="round" stroke-linejoin="round" stroke-miterlimit="10" d="M15.893,10.803
		c0-0.912,0.738-1.65,1.65-1.65V7.434c-0.912,0-1.65-0.738-1.65-1.649c0-0.912,0.738-1.65,1.65-1.65V1.899H2.457v2.234
		c0.911,0,1.65,0.738,1.65,1.65c0,0.911-0.739,1.649-1.65,1.649V9.15c0.911,0,1.65,0.738,1.65,1.65c0,0.911-0.739,1.649-1.65,1.649
		V15.1h15.086v-2.646C16.631,12.452,15.893,11.714,15.893,10.803z"/>
</g>
</svg>
