<?xml version="1.0" encoding="utf-8"?>
<!-- Generator: Adobe Illustrator 16.0.3, SVG Export Plug-In . SVG Version: 6.00 Build 0)  -->
<!DOCTYPE svg PUBLIC "-//W3C//DTD SVG 1.1 Tiny//EN" "http://www.w3.org/Graphics/SVG/1.1/DTD/svg11-tiny.dtd">
<svg version="1.1" baseProfile="tiny" id="Layer_1" xmlns="http://www.w3.org/2000/svg" xmlns:xlink="http://www.w3.org/1999/xlink"
	 x="0px" y="0px" width="20px" height="17px" viewBox="0 0 20 17" xml:space="preserve">
<g>
	<path fill="none" stroke="#232323" stroke-width="0.5" stroke-linecap="round" stroke-linejoin="round" stroke-miterlimit="10" d="
		M15.473,6.911c0.068-0.006,0.133-0.017,0.203-0.017c1.008,0,1.824,0.681,1.824,1.521V9.8c0,0.84-0.816,1.52-1.824,1.52
		c-0.07,0-0.203-0.017-0.203-0.017"/>
	<path fill="none" stroke="#232323" stroke-width="0.5" stroke-linecap="round" stroke-linejoin="round" stroke-miterlimit="10" d="
		M4.527,6.911C4.46,6.905,4.395,6.894,4.325,6.894C3.317,6.894,2.5,7.575,2.5,8.415V9.8c0,0.84,0.816,1.52,1.825,1.52
		c0.069,0,0.135-0.011,0.202-0.017l0.313-0.044"/>
	<path fill="none" stroke="#232323" stroke-width="0.5" stroke-linecap="round" stroke-linejoin="round" stroke-miterlimit="10" d="
		M12.635,14.36c0,0.561-0.453,1.015-1.014,1.015H8.784c-0.56,0-1.013-0.454-1.013-1.015l0,0c0-0.56,0.453-1.014,1.013-1.014h2.837
		C12.182,13.347,12.635,13.801,12.635,14.36L12.635,14.36z"/>
	<path fill="none" stroke="#232323" stroke-width="0.5" stroke-linecap="round" stroke-linejoin="round" stroke-miterlimit="10" d="
		M8.007,13.712c-1.967-0.279-3.479-1.97-3.479-4.014v-4.02c0-2.239,1.815-4.054,4.055-4.054h2.838c2.238,0,4.053,1.815,4.053,4.054
		v5.641"/>
</g>
</svg>
