<?xml version="1.0" encoding="utf-8"?>
<!-- Generator: Adobe Illustrator 16.0.3, SVG Export Plug-In . SVG Version: 6.00 Build 0)  -->
<!DOCTYPE svg PUBLIC "-//W3C//DTD SVG 1.1//EN" "http://www.w3.org/Graphics/SVG/1.1/DTD/svg11.dtd">
<svg version="1.1" id="Layer_1" xmlns="http://www.w3.org/2000/svg" xmlns:xlink="http://www.w3.org/1999/xlink" x="0px" y="0px"
	 width="20px" height="17px" viewBox="0 0 20 17" enable-background="new 0 0 20 17" xml:space="preserve">
<g>
	<path fill="none" stroke="#232323" stroke-width="0.5" stroke-linecap="round" stroke-linejoin="round" stroke-miterlimit="10" d="
		M8.75,11.575C6.594,11.021,5,9.063,5,6.732c0-2.761,2.238-5,5-5s5,2.239,5,5c0,2.356-1.629,4.331-3.822,4.86"/>
	<path fill="none" stroke="#232323" stroke-width="0.5" stroke-linecap="round" stroke-linejoin="round" stroke-miterlimit="10" d="
		M12.689,12.041c0-0.247-0.201-0.448-0.449-0.448H7.76c-0.248,0-0.449,0.201-0.449,0.448v1.793c0,0.248,0.201,0.448,0.449,0.448
		h4.48c0.248,0,0.449-0.2,0.449-0.448V12.041z"/>
	<path fill="none" stroke="#232323" stroke-width="0.5" stroke-linecap="round" stroke-linejoin="round" stroke-miterlimit="10" d="
		M10.834,14.435c0,0.46-0.373,0.833-0.834,0.833s-0.833-0.373-0.833-0.833"/>
	<path fill="none" stroke="#01C5A7" stroke-width="0.5" stroke-linecap="round" stroke-linejoin="round" stroke-miterlimit="10" d="
		M13.064,6.423c0-1.395-1.125-2.529-2.508-2.529"/>
</g>
</svg>
