<?xml version="1.0" encoding="utf-8"?>
<!-- Generator: Adobe Illustrator 16.0.3, SVG Export Plug-In . SVG Version: 6.00 Build 0)  -->
<!DOCTYPE svg PUBLIC "-//W3C//DTD SVG 1.1//EN" "http://www.w3.org/Graphics/SVG/1.1/DTD/svg11.dtd">
<svg version="1.1" id="Layer_1" xmlns="http://www.w3.org/2000/svg" xmlns:xlink="http://www.w3.org/1999/xlink" x="0px" y="0px"
	 width="20px" height="17px" viewBox="0 0 20 17" enable-background="new 0 0 20 17" xml:space="preserve">
<g>
	
		<line fill="none" stroke="#232323" stroke-width="0.5" stroke-linecap="round" stroke-linejoin="round" stroke-miterlimit="10" x1="11.934" y1="8.57" x2="16.121" y2="8.57"/>
	
		<line fill="none" stroke="#232323" stroke-width="0.5" stroke-linecap="round" stroke-linejoin="round" stroke-miterlimit="10" x1="3.88" y1="8.57" x2="8.268" y2="8.57"/>
	<g>
		
			<path fill="none" stroke="#232323" stroke-width="0.5" stroke-linecap="round" stroke-linejoin="round" stroke-miterlimit="10" d="
			M16.529,5.109v9.992H3.472V5.109C3.472,5.109,15.738,5.136,16.529,5.109z"/>
	</g>
	
		<polygon fill="none" stroke="#01C5A7" stroke-width="0.5" stroke-linecap="round" stroke-linejoin="round" stroke-miterlimit="10" points="
		10.068,10.253 8.318,11.406 8.318,5.109 11.818,5.109 11.818,11.406 	"/>
	<g>
		
			<path fill="none" stroke="#01C5A7" stroke-width="0.5" stroke-linecap="round" stroke-linejoin="round" stroke-miterlimit="10" d="
			M8.764,3.458L6.721,2.137C5.555,1.477,4.355,2.19,4.355,4.328v0.781c0.018,0.01,11.375,0,11.426,0V4.328
			c0-2.138-1.199-2.851-2.365-2.19l-2.043,1.321"/>
		
			<path fill="none" stroke="#01C5A7" stroke-width="0.5" stroke-linecap="round" stroke-linejoin="round" stroke-miterlimit="10" d="
			M11.602,5.109V3.841c0-0.369-0.299-0.667-0.666-0.667H9.178c-0.369,0-0.668,0.298-0.668,0.667v1.268
			C8.51,5.109,11.602,5.065,11.602,5.109z"/>
	</g>
</g>
</svg>
