<?xml version="1.0" encoding="utf-8"?>
<!-- Generator: Adobe Illustrator 21.0.0, SVG Export Plug-In . SVG Version: 6.00 Build 0)  -->
<svg version="1.1" id="Layer_1" xmlns="http://www.w3.org/2000/svg" xmlns:xlink="http://www.w3.org/1999/xlink" x="0px" y="0px"
	 viewBox="0 0 20 17" style="enable-background:new 0 0 20 17;" xml:space="preserve">
<style type="text/css">
	.st0{fill:none;stroke:#232323;stroke-width:0.75;stroke-linecap:round;stroke-linejoin:round;stroke-miterlimit:10;}
</style>
<g>
	<path class="st0" d="M5.7,12.9c-0.3,0-0.6-0.2-0.8-0.4l0,0c-0.2-0.3-0.1-0.8,0.2-1.1l0.8-0.8V7.5c0-2.3,2-4.4,4.2-4.4
		c2.2,0,4.2,2.1,4.2,4.4v3.1l0.8,0.8c0.3,0.3,0.4,0.7,0.2,1.1l0,0c-0.2,0.3-0.5,0.4-0.8,0.4H5.7z"/>
	<path class="st0" d="M12.4,12.9c0,1.3-1,2.3-2.3,2.3s-2.3-1-2.3-2.3H12.4z"/>
	<line class="st0" x1="10" y1="1.7" x2="10" y2="3.1"/>
</g>
</svg>
