<?xml version="1.0" encoding="utf-8"?>
<!-- Generator: Adobe Illustrator 16.0.3, SVG Export Plug-In . SVG Version: 6.00 Build 0)  -->
<!DOCTYPE svg PUBLIC "-//W3C//DTD SVG 1.1//EN" "http://www.w3.org/Graphics/SVG/1.1/DTD/svg11.dtd">
<svg version="1.1" id="Layer_1" xmlns="http://www.w3.org/2000/svg" xmlns:xlink="http://www.w3.org/1999/xlink" x="0px" y="0px"
	 width="20px" height="17px" viewBox="0 0 20 17" enable-background="new 0 0 20 17" xml:space="preserve">
<g>
	<g>
		
			<polyline fill="none" stroke="#232323" stroke-width="0.5" stroke-linecap="round" stroke-linejoin="round" stroke-miterlimit="10" points="
			13.301,9.729 14.6,9.729 14.6,1.328 2.601,1.328 2.601,9.729 10.2,9.729 		"/>
		
			<line fill="none" stroke="#232323" stroke-width="0.5" stroke-linecap="round" stroke-linejoin="round" stroke-miterlimit="10" x1="4.791" y1="7.371" x2="7.461" y2="7.371"/>
		<ellipse opacity="0.5" fill="#01C5A7" cx="11.872" cy="4.097" rx="1.007" ry="0.989"/>
		<ellipse fill="#01C5A7" cx="10.614" cy="4.097" rx="1.007" ry="0.989"/>
	</g>
	<g>
		
			<path fill="none" stroke="#232323" stroke-width="0.5" stroke-linecap="round" stroke-linejoin="round" stroke-miterlimit="10" d="
			M13.352,10.563l-1.738-2.989c-0.27-0.535-0.921-0.752-1.456-0.482l0,0c-0.535,0.268-0.752,0.92-0.482,1.455l2.185,3.825
			c0.129,1.857,0.982,2.807,1.824,3.3"/>
		
			<path fill="none" stroke="#232323" stroke-width="0.5" stroke-linecap="round" stroke-linejoin="round" stroke-miterlimit="10" d="
			M14.66,4.506l1.93,1.982c0.678,0.74,0.83,1.621,0.809,2.744v5.75"/>
	</g>
</g>
</svg>
