<?xml version="1.0" encoding="utf-8"?>
<!-- Generator: Adobe Illustrator 16.0.3, SVG Export Plug-In . SVG Version: 6.00 Build 0)  -->
<!DOCTYPE svg PUBLIC "-//W3C//DTD SVG 1.1//EN" "http://www.w3.org/Graphics/SVG/1.1/DTD/svg11.dtd">
<svg version="1.1" id="Layer_1" xmlns="http://www.w3.org/2000/svg" xmlns:xlink="http://www.w3.org/1999/xlink" x="0px" y="0px"
	 width="20px" height="17px" viewBox="0 0 20 17" enable-background="new 0 0 20 17" xml:space="preserve">
<g>
	<path fill="none" stroke="#232323" stroke-width="0.5" stroke-linecap="round" stroke-linejoin="round" stroke-miterlimit="10" d="
		M10.842,14.848C10.268,15.012,9.66,15.1,9.033,15.1c-3.645,0-6.6-2.955-6.6-6.6c0-3.646,2.955-6.6,6.6-6.6s6.6,2.955,6.6,6.6
		c0,0.299-0.02,0.594-0.059,0.883"/>
	<g>
		<path fill="#01C5A7" d="M9.814,9.542H8.469v0.689c0,0.618-0.502,1.118-1.119,1.118l0,0V5.982h2.572
			c1.213,0,1.947,0.719,1.947,1.758v0.016C11.869,8.932,10.953,9.542,9.814,9.542z M10.736,7.762c0-0.5-0.35-0.77-0.908-0.77H8.469
			v1.555H9.85c0.561,0,0.887-0.334,0.887-0.77V7.762z"/>
	</g>
	<g>
		
			<path fill="none" stroke="#232323" stroke-width="0.5" stroke-linecap="round" stroke-linejoin="round" stroke-miterlimit="10" d="
			M12.072,13.705c1.693,0.877,3.744,0.917,5.494,0.032l-0.457,1.303"/>
		
			<path fill="none" stroke="#232323" stroke-width="0.5" stroke-linecap="round" stroke-linejoin="round" stroke-miterlimit="10" d="
			M17.402,11.662c-1.689-0.924-3.76-0.999-5.533-0.136l0.529-1.168"/>
	</g>
</g>
</svg>
