<?xml version="1.0" encoding="utf-8"?>
<!-- Generator: Adobe Illustrator 21.0.0, SVG Export Plug-In . SVG Version: 6.00 Build 0)  -->
<svg version="1.1" id="Layer_1" xmlns="http://www.w3.org/2000/svg" xmlns:xlink="http://www.w3.org/1999/xlink" x="0px" y="0px"
	 viewBox="0 0 20 17" style="enable-background:new 0 0 20 17;" xml:space="preserve">
<style type="text/css">
	.st0{fill:none;stroke:#232323;stroke-width:0.5;stroke-linecap:round;stroke-linejoin:round;stroke-miterlimit:10;}
	.st1{fill:#232323;}
</style>
<g>
	<g>
		<path class="st0" d="M9.7,2c3.6,0,6.6,3,6.6,6.6s-3,6.6-6.6,6.6c-3.6,0-6.6-3-6.6-6.6C3.1,5,6.1,2,9.7,2z"/>
	</g>
	<circle class="st1" cx="9.7" cy="11.9" r="0.8"/>
	<path class="st0" d="M8,6.8c0-0.9,0.8-1.7,1.7-1.7l0,0c0.9,0,1.7,0.8,1.7,1.7l0,0c0,0.6-0.4,1.1-0.9,1.5C9.7,9,9.7,9.2,9.7,9.6v0.4
		"/>
</g>
</svg>
