<?xml version="1.0" encoding="utf-8"?>
<!-- Generator: Adobe Illustrator 21.0.0, SVG Export Plug-In . SVG Version: 6.00 Build 0)  -->
<svg version="1.1" id="Layer_1" xmlns="http://www.w3.org/2000/svg" xmlns:xlink="http://www.w3.org/1999/xlink" x="0px" y="0px"
	 viewBox="0 0 20 17" style="enable-background:new 0 0 20 17;" xml:space="preserve">
<style type="text/css">
	.st0{fill:none;stroke:#232323;stroke-width:0.5;stroke-linecap:round;stroke-linejoin:round;stroke-miterlimit:10;}
</style>
<g>
	<path class="st0" d="M15.4,8.5c0-0.4-0.1-0.9-0.2-1.3L16.9,6l-1.3-2.2l-1.9,0.8c-0.6-0.6-1.4-1-2.2-1.3l-0.2-2H8.7l-0.2,2
		C7.6,3.6,6.9,4,6.3,4.6L4.4,3.8L3.1,6l1.6,1.2C4.7,7.6,4.6,8.1,4.6,8.5s0.1,0.9,0.2,1.3L3.1,11l1.3,2.2l1.9-0.8
		c0.6,0.6,1.4,1,2.2,1.3l0.2,2h2.6l0.2-2c0.9-0.2,1.6-0.7,2.2-1.3l1.9,0.8l1.3-2.2l-1.6-1.2C15.3,9.4,15.4,8.9,15.4,8.5z"/>
	<circle class="st0" cx="10" cy="8.5" r="2.5"/>
</g>
</svg>
